<?xml version="1.0" standalone="no"?>
<!DOCTYPE svg PUBLIC "-//W3C//DTD SVG 1.1//EN" "http://www.w3.org/Graphics/SVG/1.1/DTD/svg11.dtd" >
<svg>
<metadata>
Created by FontForge 20090622 at Sat May  7 02:52:07 2016
 By deploy user
Copyright 1990-1999 Bitstream Inc.  All rights reserved.
</metadata>
<defs>
<font id="BelweBT-Light" horiz-adv-x="1024" >
  <font-face 
    font-family="Belwe Lt BT"
    font-weight="400"
    font-stretch="normal"
    units-per-em="2048"
    panose-1="2 6 5 2 5 3 5 2 5 4"
    ascent="1556"
    descent="-492"
    x-height="967"
    cap-height="1395"
    bbox="-342 -483 2093 1942"
    underline-thickness="94"
    underline-position="-154"
    unicode-range="U+0020-U+F002"
  />
<missing-glyph horiz-adv-x="1229" 
d="M102 -362v1806h1024v-1806h-1024zM217 -248h795v1577h-795v-1577z" />
    <glyph glyph-name=".notdef" horiz-adv-x="1229" 
d="M102 -362v1806h1024v-1806h-1024zM217 -248h795v1577h-795v-1577z" />
    <glyph glyph-name=".null" horiz-adv-x="0" 
 />
    <glyph glyph-name="nonmarkingreturn" horiz-adv-x="508" 
 />
    <glyph glyph-name="space" unicode=" " horiz-adv-x="508" 
 />
    <glyph glyph-name="exclam" unicode="!" horiz-adv-x="541" 
d="M270 156q39 0 65.5 -27t26.5 -66q0 -37 -27 -64.5t-65 -27.5q-37 0 -64.5 28t-27.5 64q0 38 27.5 65.5t64.5 27.5zM309 412h-78q0 274 -27.5 557.5t-27.5 296.5q0 75 24.5 115t69.5 40q48 0 71.5 -41.5t23.5 -126.5q0 -3 -28 -282.5t-28 -558.5z" />
    <glyph glyph-name="quotedbl" unicode="&#x22;" horiz-adv-x="678" 
d="M518 864h-31l-65 457q0 2 -1 6q-3 22 -3 33q0 49 22.5 75.5t63.5 26.5q40 0 62 -26t22 -74q0 -14 -0.5 -23t-1.5 -18zM190 864h-32l-64 457l-3 26t-1 15q0 48 22 74t62 26q41 0 63.5 -26t22.5 -74q0 -9 -3 -34q-1 -5 -1 -7z" />
    <glyph glyph-name="numbersign" unicode="#" horiz-adv-x="1575" 
d="M700 868l-100 -286h289l102 286h-291zM778 1456h133l-168 -471h287l168 471h131l-166 -471h307l-40 -117h-310l-100 -286h332l-43 -115h-330l-166 -469h-133l166 469h-287l-166 -469h-131l166 469h-324l43 115h322l100 286h-348l43 117h348z" />
    <glyph glyph-name="dollar" unicode="$" horiz-adv-x="1014" 
d="M555 561v-452q86 3 144.5 64t58.5 149q0 81 -48.5 138t-154.5 101zM465 1126q-77 -1 -127.5 -49t-50.5 -119q0 -60 44.5 -107t133.5 -81v356zM465 1356h90v-144q75 -5 144.5 -30t142.5 -72l-70 -113q-57 44 -112 73.5t-105 43.5v-379q170 -68 242.5 -148t72.5 -196
q0 -133 -91 -244t-224 -137v-162h-90l-1 154q-111 3 -203.5 47t-160.5 127l93 103q64 -75 131 -115t141 -49v483q-150 57 -215.5 130t-65.5 181q0 119 76.5 201t204.5 98v148z" />
    <glyph glyph-name="percent" unicode="%" horiz-adv-x="1356" 
d="M1196 266q0 130 -66 225t-153 95q-66 0 -103.5 -50t-37.5 -139q0 -129 65.5 -225t151.5 -96q66 0 104.5 51t38.5 139zM1016 690q115 0 188.5 -100t73.5 -260t-73.5 -259.5t-188.5 -99.5t-187.5 99.5t-72.5 259.5q0 161 72.5 260.5t187.5 99.5zM518 817q0 130 -65 225
t-152 95q-66 0 -103.5 -50t-37.5 -139q0 -129 65.5 -225t151.5 -96q65 0 103 50.5t38 139.5zM985 1241h92l-704 -1270h-92zM340 1241q115 0 187.5 -99t72.5 -259q0 -161 -73 -261t-187 -100q-115 0 -188.5 100.5t-73.5 260.5t73 259t189 99z" />
    <glyph glyph-name="ampersand" unicode="&#x26;" horiz-adv-x="1399" 
d="M418 756q-119 -63 -176.5 -143t-57.5 -181q0 -140 98 -237t240 -97q69 0 138.5 26t130.5 75q-103 113 -192.5 246t-180.5 311zM559 821q75 -146 163 -275t183 -233q75 91 114.5 174t39.5 148q0 49 -32.5 77.5t-88.5 28.5h-10v76h356v-76h-125q-5 -122 -56 -243.5
t-147 -241.5q86 -86 140 -118t106 -32q43 0 82 16.5t72 47.5l43 -47q-70 -80 -133.5 -116t-132.5 -36q-67 0 -131 36t-158 130q-95 -83 -194 -124.5t-206 -41.5q-170 0 -289.5 118t-119.5 286q0 139 92 254.5t268 197.5q-22 55 -33.5 108t-11.5 101q0 154 113 269.5
t260 115.5q104 0 171 -61.5t67 -155.5q0 -105 -87 -189.5t-315 -193.5zM532 887q163 82 235.5 153t72.5 146q0 66 -43 109.5t-107 43.5q-89 0 -147 -70t-58 -177q0 -44 11.5 -94t35.5 -111z" />
    <glyph glyph-name="quotesingle" unicode="'" horiz-adv-x="348" 
d="M190 864h-32l-66 457q-1 8 -1.5 16t-0.5 23q0 50 21.5 76t62.5 26t63.5 -26t22.5 -74q0 -9 -3 -34q-1 -5 -1 -7z" />
    <glyph glyph-name="parenleft" unicode="(" horiz-adv-x="606" 
d="M494 1421l61 -61q-134 -181 -199 -376t-65 -413q0 -219 65 -415t199 -375l-61 -62q-185 179 -277 392t-92 460q0 246 92 458.5t277 391.5z" />
    <glyph glyph-name="parenright" unicode=")" horiz-adv-x="606" 
d="M115 1421q183 -178 274.5 -391.5t91.5 -460.5q0 -245 -91.5 -458t-274.5 -392l-64 62q134 181 199 375.5t65 412.5q0 219 -65 414.5t-199 376.5z" />
    <glyph glyph-name="asterisk" unicode="*" 
d="M453 1395h116l-26 -363l329 150l41 -133l-348 -76l240 -266l-111 -82l-182 307l-180 -307l-113 82l240 264l-348 80l43 131l327 -152z" />
    <glyph glyph-name="plus" unicode="+" horiz-adv-x="1706" 
d="M795 1221h118v-551h539v-117h-539v-553h-118v553h-541v117h541v551z" />
    <glyph glyph-name="comma" unicode="," horiz-adv-x="508" 
d="M193 -176l-27 45q45 27 67 56.5t27 67.5l-10 1h-19q-33 0 -55 24t-22 60q0 38 27.5 65t66.5 27q43 0 71.5 -34t28.5 -87q0 -70 -41.5 -130t-113.5 -95z" />
    <glyph glyph-name="hyphen" unicode="-" horiz-adv-x="645" 
d="M76 559h493v-133h-493v133z" />
    <glyph glyph-name="period" unicode="." horiz-adv-x="508" 
d="M254 156q38 0 65 -27t27 -66q0 -37 -27.5 -64.5t-64.5 -27.5t-64.5 28t-27.5 64q0 38 27 65.5t65 27.5z" />
    <glyph glyph-name="slash" unicode="/" horiz-adv-x="569" 
d="M508 1421h110l-557 -1611h-110z" />
    <glyph glyph-name="zero" unicode="0" horiz-adv-x="1014" 
d="M825 475q0 263 -115.5 451t-269.5 188q-116 0 -184 -100.5t-68 -276.5q0 -265 116 -452t271 -187q117 0 183.5 100t66.5 277zM508 1241q188 0 308 -175.5t120 -459.5t-120 -459.5t-308 -175.5q-189 0 -309.5 175.5t-120.5 459.5t120.5 459.5t309.5 175.5z" />
    <glyph glyph-name="one" unicode="1" horiz-adv-x="1014" 
d="M555 1214h43q-2 -18 -3 -36t-1 -48v-34v-1024h113v-72h-369v72h113v977l-132 -54v68q98 31 162.5 91t73.5 60z" />
    <glyph glyph-name="two" unicode="2" horiz-adv-x="1014" 
d="M276 141h351q94 0 130 25.5t62 93.5h68l-66 -317h-69l-2 57h-564l-55 127q354 252 487.5 408.5t133.5 306.5q0 133 -78 221t-195 88q-115 0 -185.5 -70.5t-70.5 -187.5q0 -118 68 -187t184 -69h4v-64q-23 -6 -44.5 -9t-41.5 -3q-130 0 -211.5 82t-81.5 215
q0 156 124.5 270.5t297.5 114.5q166 0 278.5 -103t112.5 -253q0 -169 -134.5 -331t-502.5 -415z" />
    <glyph glyph-name="three" unicode="3" horiz-adv-x="1014" 
d="M662 1081h-271q-63 0 -101 -24t-85 -101l-70 27l82 287l78 -17l4 -39h371q24 0 38.5 2t28.5 7l66 -113l-314 -305q4 0 10 1t9 1q168 0 273.5 -100.5t105.5 -255.5q0 -200 -145 -340t-351 -140q-95 0 -182.5 39.5t-147.5 108.5l105 108q69 -77 145.5 -116t161.5 -39
q122 0 193 81t71 222q0 136 -80 230.5t-194 94.5q-34 0 -64.5 -7t-66.5 -23l-37 51z" />
    <glyph glyph-name="four" unicode="4" horiz-adv-x="1014" 
d="M621 1018l-428 -600h428v600zM666 1214h92v-796h176l-23 -111h-153v-235h125v-72h-414v72h152v235h-521v111z" />
    <glyph glyph-name="five" unicode="5" horiz-adv-x="1014" 
d="M256 813q43 26 89.5 38.5t105.5 12.5q178 0 298.5 -116t120.5 -291q0 -202 -135 -344t-327 -142q-94 0 -178 38.5t-156 113.5l102 108q61 -72 139 -111.5t162 -39.5q118 0 190 74t72 196q0 160 -102 281t-234 121q-49 0 -88.5 -12.5t-72.5 -39.5l-88 50l161 464h449
l16 48h78l-51 -181h-457z" />
    <glyph glyph-name="six" unicode="6" horiz-adv-x="1014" 
d="M514 743q-121 0 -196.5 -83t-75.5 -220q0 -167 85 -279t210 -112q112 0 180.5 87.5t68.5 234.5q0 155 -80.5 263.5t-191.5 108.5zM862 1159l-76 -102q-61 47 -113 68.5t-104 21.5q-135 0 -228 -130.5t-118 -357.5q70 92 155 140.5t177 48.5q163 0 271 -113t108 -284
q0 -193 -124.5 -336.5t-289.5 -143.5q-199 0 -319.5 148.5t-120.5 396.5q0 300 162.5 513.5t380.5 213.5q61 0 123 -21.5t116 -62.5z" />
    <glyph glyph-name="seven" unicode="7" horiz-adv-x="1014" 
d="M213 1270l61 -10l5 -46h575l49 -118q-205 -230 -299 -477.5t-94 -557.5v-61h-158v25q0 294 107 551.5t329 498.5h-397q-82 0 -116.5 -24.5t-55.5 -92.5l-76 17z" />
    <glyph glyph-name="eight" unicode="8" horiz-adv-x="1014" 
d="M451 641q-106 -66 -158.5 -137.5t-52.5 -149.5q0 -106 95 -186t222 -80q111 0 179.5 60.5t68.5 158.5q0 94 -87 176t-267 158zM639 707q143 -70 208.5 -153t65.5 -192q0 -158 -126.5 -274.5t-292.5 -116.5q-174 0 -283 93.5t-109 242.5q0 112 70 205t209 168
q-105 48 -156 110.5t-51 143.5q0 126 106 216.5t259 90.5q130 0 224.5 -77t94.5 -183q0 -85 -52.5 -151.5t-166.5 -122.5zM565 752q87 37 128.5 83.5t41.5 106.5q0 82 -73.5 144.5t-172.5 62.5q-86 0 -139 -43.5t-53 -114.5q0 -72 65.5 -130.5t202.5 -108.5z" />
    <glyph glyph-name="nine" unicode="9" horiz-adv-x="1014" 
d="M152 55l75 103q52 -45 106.5 -67.5t108.5 -22.5q136 0 229 129t120 358q-71 -93 -155 -141.5t-175 -48.5q-163 0 -272 113.5t-109 285.5q0 192 124 334.5t290 142.5q199 0 319.5 -148.5t120.5 -396.5q0 -303 -162.5 -514t-390.5 -211q-60 0 -117.5 21.5t-111.5 62.5z
M473 1163q-107 0 -176.5 -86.5t-69.5 -224.5q0 -164 81 -273.5t202 -109.5q113 0 187.5 85t74.5 218q0 169 -85.5 280t-213.5 111z" />
    <glyph glyph-name="colon" unicode=":" horiz-adv-x="508" 
d="M254 156q38 0 65 -27t27 -66q0 -37 -27.5 -64.5t-64.5 -27.5t-64.5 28t-27.5 64q0 38 27 65.5t65 27.5zM254 653q38 0 65 -26.5t27 -65.5q0 -38 -27.5 -65t-64.5 -27t-64.5 27.5t-27.5 64.5q0 38 27 65t65 27z" />
    <glyph glyph-name="semicolon" unicode=";" horiz-adv-x="508" 
d="M193 -176l-27 45q45 27 67 56.5t27 67.5l-10 1h-19q-33 0 -55 24t-22 60q0 38 27.5 65t66.5 27q43 0 71.5 -34t28.5 -87q0 -70 -41.5 -130t-113.5 -95zM254 653q38 0 65 -26.5t27 -65.5q0 -38 -27.5 -65t-64.5 -27t-64.5 27.5t-27.5 64.5q0 38 27 65t65 27z" />
    <glyph glyph-name="less" unicode="&#x3c;" horiz-adv-x="1706" 
d="M1442 1145v-127l-1000 -408l1000 -405v-129l-1178 483v103z" />
    <glyph glyph-name="equal" unicode="=" horiz-adv-x="1706" 
d="M254 477h1198v-117h-1198v117zM254 860h1198v-117h-1198v117z" />
    <glyph glyph-name="greater" unicode="&#x3e;" horiz-adv-x="1706" 
d="M264 1145l1178 -483v-103l-1178 -483v129l1000 405l-1000 408v127z" />
    <glyph glyph-name="question" unicode="?" horiz-adv-x="862" 
d="M412 156q38 0 65 -27t27 -66q0 -37 -27.5 -64.5t-64.5 -27.5t-65 28t-28 64q0 38 27.5 65.5t65.5 27.5zM457 414h-111v59q0 98 18 163.5t60 131.5q22 35 72 97q120 150 120 270q0 99 -50.5 155t-141.5 56q-84 0 -141.5 -54t-57.5 -133q0 -35 11.5 -71t39.5 -84l-139 -64
q-28 42 -42.5 87.5t-14.5 90.5q0 123 114 213t277 90q136 0 228 -81.5t92 -204.5q0 -121 -170 -306l-66 -73q-56 -63 -77 -125t-21 -170v-47z" />
    <glyph glyph-name="at" unicode="@" horiz-adv-x="2019" 
d="M1190 336q-62 -106 -139 -158.5t-170 -52.5q-125 0 -201 92t-76 244q0 108 49 216t138 193q65 64 144 100t155 36q87 0 143 -49.5t78 -145.5l53 180h143l-170 -610q0 -2 -1 -5q-17 -59 -17 -104q0 -47 25.5 -74.5t68.5 -27.5q34 0 79 17.5t85 48.5q122 90 187 231t65 315
q0 140 -50 252t-153 203q-90 79 -216 122.5t-267 43.5q-187 0 -341.5 -58.5t-275.5 -175.5q-130 -126 -197 -293.5t-67 -369.5q0 -175 57 -304.5t181 -234.5q114 -97 261 -146.5t320 -49.5q163 0 317.5 52t295.5 154l30 -36q-148 -110 -313 -166t-342 -56q-187 0 -342 46.5
t-274 138.5q-151 113 -229.5 274.5t-78.5 358.5q0 204 86 381t250 313q131 110 291 165.5t344 55.5q347 0 553.5 -187t206.5 -499q0 -157 -58 -297t-163 -236q-57 -52 -123.5 -80t-134.5 -28q-97 0 -149 52.5t-58 158.5zM1098 965q-54 0 -99 -31t-92 -100
q-72 -108 -114.5 -234t-42.5 -225q0 -93 40.5 -147t108.5 -54q66 0 126 44.5t116 133.5q57 94 91 202.5t34 197.5q0 93 -47.5 153t-120.5 60z" />
    <glyph glyph-name="A" unicode="A" horiz-adv-x="1262" 
d="M594 1276l-275 -750h537zM541 1395h172l465 -1315h106v-80h-407v80h135l-125 356h-600l-129 -356h123v-80h-320v80h100z" />
    <glyph glyph-name="B" unicode="B" horiz-adv-x="1151" 
d="M383 813v-723h184q174 0 271.5 96t97.5 265q0 163 -99 262.5t-262 99.5h-192zM383 903h111q123 0 189.5 54.5t66.5 154.5q0 96 -71 144.5t-212 48.5h-84v-402zM680 879q205 -20 315.5 -127.5t110.5 -286.5q0 -205 -137 -335t-355 -130h-520v80h133v1233h-133v82h410
q191 0 291 -67t100 -193q0 -94 -54.5 -159t-160.5 -97z" />
    <glyph glyph-name="C" unicode="C" horiz-adv-x="1290" 
d="M1137 1264l63 55l55 -57l-270 -254l-59 59q27 24 40 51t13 60q0 68 -71.5 119t-174.5 51q-218 0 -366 -169.5t-148 -426.5q0 -276 162 -461t401 -185q111 0 213 44.5t201 136.5l55 -62q-103 -122 -240 -188t-286 -66q-281 0 -463 198.5t-182 508.5q0 316 191 530.5
t468 214.5q115 0 215 -40t183 -119z" />
    <glyph glyph-name="D" unicode="D" horiz-adv-x="1341" 
d="M383 1305v-1215h162q258 0 402.5 162t144.5 453q0 288 -139 444t-396 156h-174zM94 1395h416q144 0 249 -21.5t187 -66.5q149 -82 232.5 -241.5t83.5 -363.5q0 -325 -186.5 -513.5t-512.5 -188.5h-469v80h133v1233h-133v82z" />
    <glyph glyph-name="E" unicode="E" horiz-adv-x="1147" 
d="M944 1395l111 -236l-56 -37q-75 99 -164 141t-227 42h-225v-412h485v113h76v-340h-76v137h-485v-713h197q147 0 252.5 58.5t193.5 187.5l57 -27l-143 -319q-24 5 -52 7.5t-81 2.5h-713v80h133v1233h-133v82h850z" />
    <glyph glyph-name="F" unicode="F" horiz-adv-x="1053" 
d="M94 1395h830l104 -236l-55 -37q-75 99 -164 141t-227 42h-199v-412h459v113h76v-359h-76v156h-459v-723h133v-80h-422v80h133v1233h-133v82z" />
    <glyph glyph-name="G" unicode="G" horiz-adv-x="1470" 
d="M1159 702h-385v91h438q50 0 70.5 3t36.5 11l27 -57q-18 -17 -24.5 -31.5t-6.5 -44.5v-387q0 -43 2.5 -74t7.5 -57q-168 -103 -293 -144t-260 -41q-310 0 -501 194t-191 507q0 145 47 273t139 233q106 119 241 181t290 62q107 0 215.5 -39t218.5 -116l57 53l55 -57
l-270 -252l-55 53q24 30 36.5 57.5t12.5 50.5q0 75 -76 125t-194 50q-240 0 -400.5 -173t-160.5 -434q0 -288 179 -484t437 -196q159 0 233 68t74 213v362z" />
    <glyph glyph-name="H" unicode="H" horiz-adv-x="1356" 
d="M94 1395h422v-82h-133v-426h590v426h-133v82h422v-82h-134v-1233h134v-80h-422v80h133v717h-590v-717h133v-80h-422v80h133v1233h-133v82z" />
    <glyph glyph-name="I" unicode="I" horiz-adv-x="612" 
d="M94 1395h422v-82h-133v-1233h133v-80h-422v80h133v1233h-133v82z" />
    <glyph glyph-name="J" unicode="J" horiz-adv-x="664" 
d="M176 1395h422v-82h-133v-1002q0 -174 -60.5 -257t-187.5 -83q-57 0 -102 13t-80 39v124q39 -28 75 -42.5t68 -14.5q71 0 100 33t29 125v1065h-131v82z" />
    <glyph glyph-name="K" unicode="K" horiz-adv-x="1233" 
d="M94 1395h422v-82h-133v-596l563 596h-139v82h352v-82h-92l-426 -453l471 -780h121v-80h-432v80h135l-401 668l-152 -160v-508h133v-80h-422v80h133v1233h-133v82z" />
    <glyph glyph-name="L" unicode="L" horiz-adv-x="1063" 
d="M94 1395h447v-82h-158v-1223h197q144 0 239 66t158 211l57 -21l-123 -403h-73l8 57h-752v80h133v1233h-133v82z" />
    <glyph glyph-name="M" unicode="M" horiz-adv-x="1622" 
d="M184 1395h265l350 -1143l401 1143h248v-82h-121l129 -1233h111v-80h-408v80h148l-105 1061l-401 -1141h-74l-350 1141l-141 -1061h131v-80h-322v80h98l166 1233h-125v82z" />
    <glyph glyph-name="N" unicode="N" horiz-adv-x="1384" 
d="M94 1395h250l723 -1145v1063h-133v82h356v-82h-133v-1313h-108l-732 1155v-1075h134v-80h-357v80h133v1233h-133v82z" />
    <glyph glyph-name="O" unicode="O" horiz-adv-x="1659" 
d="M829 1346q-254 0 -418.5 -171t-164.5 -438q0 -287 175.5 -488.5t422.5 -201.5q242 0 405.5 174t163.5 436q0 283 -174 486t-410 203zM829 1421q325 0 537.5 -205t212.5 -520t-212.5 -520t-537.5 -205q-324 0 -536.5 205t-212.5 520t212.5 520t536.5 205z" />
    <glyph glyph-name="P" unicode="P" horiz-adv-x="1176" 
d="M383 1305v-615q0 -134 46 -190t153 -56q158 0 258 119t100 307q0 206 -118 320.5t-333 114.5h-106zM94 1395h445q269 0 420 -135.5t151 -376.5q0 -222 -147 -369t-367 -147q-59 0 -113.5 8.5t-99.5 25.5v-321h147v-80h-436v80h133v1233h-133v82z" />
    <glyph glyph-name="Q" unicode="Q" horiz-adv-x="1659" 
d="M881 -27q57 -21 197.5 -94.5t224.5 -73.5q33 0 76 16t96 48l32 -43q-66 -66 -141 -100.5t-154 -34.5q-72 0 -138 21.5t-165 84.5l-13 9q-174 106 -271 106q-52 0 -126 -20.5t-169 -61.5l-68 68q78 10 196.5 50.5t165.5 45.5q-261 79 -402.5 261.5t-141.5 440.5
q0 315 212.5 520t536.5 205q325 0 537.5 -205t212.5 -520q0 -301 -193 -501t-505 -222zM829 1346q-254 0 -418.5 -171t-164.5 -438q0 -287 175.5 -488.5t422.5 -201.5q242 0 405.5 174t163.5 436q0 283 -174 486t-410 203z" />
    <glyph glyph-name="R" unicode="R" horiz-adv-x="1309" 
d="M383 1305v-797h172q228 0 347.5 103.5t119.5 299.5q0 192 -117.5 293t-341.5 101h-180zM94 1395h477q296 0 456.5 -127.5t160.5 -360.5q0 -186 -127 -312t-348 -159l360 -356h117v-80h-250l-418 418h-139v-338h133v-80h-422v80h133v1233h-133v82z" />
    <glyph glyph-name="S" unicode="S" horiz-adv-x="1124" 
d="M938 1317l51 55l51 -39l-133 -168q-97 86 -182 125t-174 39q-116 0 -194 -65.5t-78 -159.5q0 -130 303 -254l14 -6l17 -7q384 -155 384 -397q0 -187 -148 -328t-353 -141q-122 0 -243.5 55.5t-225.5 157.5l127 129q94 -114 201.5 -174.5t213.5 -60.5q130 0 220 81t90 197
q0 103 -66 172t-252 144l-8 3q-387 153 -387 355q0 164 126 277.5t310 113.5q80 0 165.5 -26.5t170.5 -77.5z" />
    <glyph glyph-name="T" unicode="T" horiz-adv-x="1090" 
d="M135 1442h78l-8 -47h680l-8 47h79l70 -357h-80q-29 120 -87.5 170t-170.5 50h-65v-1225h133v-80h-422v80h133v1225h-66q-112 0 -170 -50t-88 -170h-80z" />
    <glyph glyph-name="U" unicode="U" horiz-adv-x="1356" 
d="M76 1395h289v-967q0 -183 70 -274t212 -91q146 0 236 101.5t90 269.5v879h-133v82h288v-1315h134v-80h-287l-2 147q-78 -88 -167.5 -132t-193.5 -44q-202 0 -302.5 106.5t-100.5 319.5v916h-133v82z" />
    <glyph glyph-name="V" unicode="V" horiz-adv-x="1233" 
d="M1063 1290q-46 -30 -80.5 -42.5t-69.5 -12.5q-34 0 -110 19.5t-117 19.5q-86 0 -166.5 -65t-173.5 -210l309 -860zM1163 1409l39 -37q-29 -38 -72 -164q-7 -18 -10 -27l-332 -933l-12 -36q-49 -134 -59 -212h-186q-10 52 -25 106.5t-37 114.5l-393 1092h-113v82h387v-82
h-112l81 -232q102 170 208 249t233 79q43 0 135.5 -14.5t140.5 -14.5q44 0 75.5 7t51.5 22z" />
    <glyph glyph-name="W" unicode="W" horiz-adv-x="1745" 
d="M1577 1290q-46 -30 -80.5 -42.5t-69.5 -12.5q-34 0 -109 19.5t-116 19.5q-82 0 -160.5 -60t-167.5 -192l295 -883zM1677 1409l39 -55q-38 -42 -74 -150q-5 -15 -8 -23l-329 -933q-5 -12 -13 -36q-49 -134 -59 -212h-178q-9 50 -23 101t-39 120l-112 326l-107 -299
q-2 -7 -8 -23q-51 -138 -64 -225h-182q-15 84 -58 212l-3 9l-375 1092h-113v82h375v-82h-102l401 -1174l193 537l-213 637h-97v82h336v-82h-84l66 -213q94 157 199.5 233t228.5 76q43 0 137 -14.5t141 -14.5q44 0 74.5 7t50.5 22z" />
    <glyph glyph-name="X" unicode="X" horiz-adv-x="1157" 
d="M39 1395h410v-82h-138l289 -488l309 488h-114v82h317v-82h-94l-369 -576l395 -657h99v-80h-402v80h129l-311 516l-328 -516h136v-80h-355v80h113l385 604l-375 629h-96v82z" />
    <glyph glyph-name="Y" unicode="Y" horiz-adv-x="1190" 
d="M-23 1395h406v-82h-123l377 -711l338 711h-103v82h295v-82h-92l-567 -1190q29 15 57.5 23t55.5 8q33 0 81.5 -16.5t71.5 -16.5q32 0 60 14.5t57 46.5l45 -28q-60 -101 -111.5 -142t-113.5 -41q-48 0 -125 28t-101 28q-21 0 -39.5 -9.5t-35.5 -27.5l-52 30l201 422
l-471 871h-111v82z" />
    <glyph glyph-name="Z" unicode="Z" horiz-adv-x="1071" 
d="M156 1446h94l-4 -51h674l79 -109v-16q-27 -28 -63 -77l-2 -3l-746 -1049h457q122 0 185.5 47t93.5 156h84l-52 -401h-86l-2 57h-569q-66 0 -104.5 -2.5t-73.5 -7.5l-86 125q28 22 70 72t96 126l669 938h-424q-100 0 -157.5 -40.5t-87.5 -133.5h-82z" />
    <glyph glyph-name="bracketleft" unicode="[" horiz-adv-x="606" 
d="M205 1395h354v-72h-209v-1532h209v-72h-354v1676z" />
    <glyph glyph-name="backslash" unicode="\" horiz-adv-x="569" 
d="M-49 1421h110l557 -1611h-110z" />
    <glyph glyph-name="bracketright" unicode="]" horiz-adv-x="606" 
d="M47 1393h356v-1674h-356v72h209v1532h-209v70z" />
    <glyph glyph-name="asciicircum" unicode="^" horiz-adv-x="2048" 
d="M934 1462h178l520 -565h-92l-518 436l-520 -436h-90z" />
    <glyph glyph-name="underscore" unicode="_" 
d="M0 -365h1024v-118h-1024v118z" />
    <glyph glyph-name="grave" unicode="`" 
d="M276 1456h152l209 -350h-92z" />
    <glyph glyph-name="a" unicode="a" horiz-adv-x="1042" 
d="M702 553q-56 6 -86 8t-51 2q-157 0 -241 -64t-84 -184q0 -107 59 -172t156 -65q111 0 179 77t68 207v191zM236 999l65 -14l-16 -84q60 48 126 71t142 23q153 0 224 -85.5t71 -270.5v-565h110v-74h-241l-15 127q-63 -78 -142 -117t-173 -39q-131 0 -222 95.5t-91 236.5
q0 155 124.5 243.5t346.5 88.5q32 0 71 -2.5t86 -7.5v84q0 97 -48.5 151.5t-133.5 54.5q-97 0 -169 -51t-111 -149l-68 18z" />
    <glyph glyph-name="b" unicode="b" horiz-adv-x="1081" 
d="M307 348q0 -158 54 -230.5t171 -72.5q142 0 231 119.5t89 314.5q0 178 -87 294t-220 116q-61 0 -118.5 -23.5t-119.5 -74.5v-443zM408 1413v-76l-101 -37v-423q89 60 166 89t148 29q166 0 275.5 -130.5t109.5 -334.5q0 -236 -144.5 -397.5t-351.5 -161.5q-96 0 -191.5 38
t-156.5 102v1136l-111 -37v76z" />
    <glyph glyph-name="c" unicode="c" horiz-adv-x="1006" 
d="M911 842l-106 -109q-59 86 -132 131t-153 45q-137 0 -226 -102t-89 -262q0 -189 111.5 -322t267.5 -133q77 0 154.5 34t140.5 95l43 -47q-73 -97 -175 -149t-221 -52q-203 0 -326.5 133.5t-123.5 354.5q0 226 142.5 381t346.5 155q101 0 185 -37t161 -116z" />
    <glyph glyph-name="d" unicode="d" horiz-adv-x="1147" 
d="M807 655q0 126 -69.5 197.5t-190.5 71.5q-137 0 -228.5 -115t-91.5 -291q0 -189 92.5 -317.5t227.5 -128.5q68 0 137 38.5t123 106.5v438zM1053 1413v-76l-101 -37v-1226h111v-74h-242l-14 115q-79 -72 -160.5 -108t-163.5 -36q-178 0 -292.5 136.5t-114.5 353.5
q0 227 134 380.5t318 153.5q75 0 144 -25t135 -75v352l-111 -37v76z" />
    <glyph glyph-name="e" unicode="e" 
d="M848 600l-619 -170q30 -153 123.5 -237t235.5 -84q85 0 164.5 33t148.5 98l47 -50q-89 -108 -197 -163.5t-233 -55.5q-194 0 -318 141.5t-124 360.5q0 223 137 372.5t338 149.5q87 0 165.5 -38t135.5 -109q42 -52 70 -116.5t28 -96.5q0 -14 -49 -23q-34 -7 -53 -12z
M801 662q-43 125 -114 190.5t-165 65.5q-137 0 -223 -100.5t-86 -262.5q0 -9 1 -22.5t4 -32.5z" />
    <glyph glyph-name="f" unicode="f" horiz-adv-x="588" 
d="M623 1370l-64 -86q-27 26 -60 39.5t-67 13.5q-74 0 -122 -46t-48 -117q0 -92 73 -158t177 -66h61l-28 -94h-195v-782h152v-74h-408v74h111v782h-144l29 94h123q-37 40 -55.5 87t-18.5 100q0 104 101 194t223 90q43 0 83.5 -13t76.5 -38z" />
    <glyph glyph-name="g" unicode="g" 
d="M231 629q0 -155 85.5 -262t207.5 -107q110 0 181 82.5t71 214.5q0 158 -84.5 262.5t-210.5 104.5q-107 0 -178.5 -83t-71.5 -212zM535 -18q-53 -50 -77 -93.5t-24 -89.5q0 -61 41.5 -101t106.5 -40q71 0 112 39.5t41 107.5q0 67 -54 115t-146 62zM51 53q76 34 136.5 77.5
t111.5 98.5q-103 51 -161 145t-58 210q0 174 124 292.5t300 118.5q60 0 120.5 -15.5t112.5 -45.5q41 86 81.5 115.5t109.5 29.5q10 0 22 -1.5t37 -6.5l-26 -110q-25 9 -44 13.5t-36 4.5q-29 0 -47.5 -16.5t-18.5 -42.5q0 -9 56.5 -109.5t56.5 -210.5q0 -182 -121.5 -297
t-308.5 -115q-33 0 -65 4t-61 10q-41 -47 -88 -86t-102 -71q70 10 139.5 15.5t137.5 5.5q201 0 311.5 -60.5t110.5 -169.5q0 -100 -91 -177t-215 -77q-125 0 -201.5 55t-76.5 142q0 57 42 111.5t122 101.5q-10 0 -32.5 1t-35.5 1q-54 0 -123.5 -9t-150.5 -26z" />
    <glyph glyph-name="h" unicode="h" horiz-adv-x="1171" 
d="M440 1413v-76l-98 -37v-471q104 84 192 125t162 41q127 0 204 -78.5t77 -209.5v-633h108v-74h-364v74h108v631q0 84 -47.5 128t-138.5 44q-72 0 -151 -36t-150 -102v-665h109v-74h-365v74h109v1173l-109 -37v76z" />
    <glyph glyph-name="i" unicode="i" horiz-adv-x="551" 
d="M350 995h8q0 -7 -2 -24q-6 -67 -6 -94v-803h111v-74h-367v74h111v790l-111 -35v76zM268 1317q43 0 73 -30t30 -73q0 -42 -30 -71t-73 -29q-40 0 -70 30.5t-30 69.5q0 42 29.5 72.5t70.5 30.5z" />
    <glyph glyph-name="j" unicode="j" horiz-adv-x="526" 
d="M342 995h6q-3 -36 -4.5 -65.5t-1.5 -52.5v-963q0 -131 -77 -213.5t-230 -118.5l-19 80q103 28 141 78.5t38 163.5v960l-109 -35v76zM260 1317q42 0 72 -30t30 -73q0 -42 -30 -71t-72 -29q-40 0 -71 30.5t-31 69.5q0 42 30.5 72.5t71.5 30.5z" />
    <glyph glyph-name="k" unicode="k" horiz-adv-x="1090" 
d="M342 811v-377q45 -13 85 -18.5t81 -5.5q155 0 241.5 71t86.5 197q0 102 -67 166.5t-173 64.5q-58 0 -119.5 -23.5t-134.5 -74.5zM440 1413v-76l-98 -37v-401q85 48 158.5 72t132.5 24q157 0 256.5 -87.5t99.5 -223.5q0 -147 -111.5 -238t-299.5 -96l305 -276h108v-74
h-252l-397 393v-319h109v-74h-365v74h109v1173l-109 -37v76z" />
    <glyph glyph-name="l" unicode="l" horiz-adv-x="537" 
d="M440 1413v-76l-98 -37v-1226h109v-74h-365v74h109v1173l-109 -37v76z" />
    <glyph glyph-name="m" unicode="m" horiz-adv-x="1782" 
d="M334 985h12l4 -156q104 84 191.5 125t160.5 41q83 0 151.5 -46.5t96.5 -123.5q106 87 193.5 128.5t163.5 41.5q126 0 203 -78.5t77 -209.5v-633h111v-74h-367v74h111v631q0 84 -46 128t-134 44q-68 0 -145 -36.5t-148 -101.5v-665h110v-74h-366v74h110v631q0 84 -46 128
t-134 44q-67 0 -144.5 -36.5t-148.5 -101.5v-665h111v-74h-367v74h111v790l-111 -35v76z" />
    <glyph glyph-name="n" unicode="n" horiz-adv-x="1180" 
d="M985 707v-633h111v-74h-367v74h111v631q0 84 -48 128t-139 44q-72 0 -152 -36.5t-151 -101.5v-665h111v-74h-367v74h111v790l-111 -35v76l240 80h12l4 -156q104 84 192 125t163 41q126 0 203 -78.5t77 -209.5z" />
    <glyph glyph-name="o" unicode="o" horiz-adv-x="1176" 
d="M578 924q-155 0 -247.5 -110t-92.5 -296q0 -202 105 -338.5t261 -136.5q152 0 243 110t91 296q0 201 -105 338t-255 137zM588 995q221 0 366.5 -144.5t145.5 -367.5q0 -222 -146 -367t-366 -145q-221 0 -366.5 145t-145.5 367t145.5 367t366.5 145z" />
    <glyph glyph-name="p" unicode="p" horiz-adv-x="1151" 
d="M342 53v-383h109v-73h-365v73h109v1194l-109 -35v76l240 80h10l6 -115q91 66 169 95.5t155 29.5q173 0 291 -141.5t118 -355.5q0 -228 -129.5 -377.5t-318.5 -149.5q-80 0 -149.5 20.5t-135.5 61.5zM342 344q0 -158 59 -228.5t189 -70.5q150 0 235.5 115t85.5 317
q0 186 -85 307t-212 121q-65 0 -128 -28.5t-144 -96.5v-436z" />
    <glyph glyph-name="q" unicode="q" horiz-adv-x="1081" 
d="M772 664q0 131 -54 194.5t-167 63.5q-143 0 -232.5 -120t-89.5 -315q0 -178 87 -292.5t221 -114.5q61 0 117.5 23t117.5 73v488zM821 932l113 48q-7 -45 -10.5 -82.5t-3.5 -63.5v-1164h108v-73h-389v73h133v420q-86 -60 -163.5 -89.5t-149.5 -29.5q-166 0 -274.5 130.5
t-108.5 334.5q0 236 144 397.5t351 161.5q63 0 127.5 -16t122.5 -47z" />
    <glyph glyph-name="r" unicode="r" horiz-adv-x="758" 
d="M698 995l56 -28l-123 -199q-41 41 -76 59.5t-72 18.5q-63 0 -98 -47.5t-35 -134.5v-590h129v-74h-385v74h111v663q0 46 -9 62t-34 28l-47 -59l-60 41l131 186q68 -37 102.5 -73t49.5 -84q37 85 76.5 121t91.5 36q32 0 69 -13.5t80 -41.5z" />
    <glyph glyph-name="s" unicode="s" horiz-adv-x="768" 
d="M670 909l-68 -104q-67 56 -127 84.5t-113 28.5q-64 0 -105.5 -37t-41.5 -95q0 -89 184 -170l76 -34q124 -59 173.5 -123t49.5 -162q0 -126 -104 -226t-250 -100q-91 0 -175.5 39t-150.5 111l103 119q89 -89 160.5 -130.5t136.5 -41.5q72 0 119 47.5t47 120.5
q0 66 -39.5 111.5t-167.5 105.5l-5 2q-266 124 -266 284q0 110 83 183t208 73q70 0 137 -21t136 -65z" />
    <glyph glyph-name="t" unicode="t" horiz-adv-x="621" 
d="M301 1169l41 -12v-199h209q1 -4 1.5 -9t0.5 -15q0 -37 -18.5 -54.5t-57.5 -17.5h-135v-645q0 -77 23 -112t73 -35q27 0 54 9.5t63 33.5l31 -50q-52 -43 -112 -67.5t-118 -24.5q-87 0 -124 47.5t-37 165.5v678h-117v49q80 47 135 111t88 147z" />
    <glyph glyph-name="u" unicode="u" horiz-adv-x="1180" 
d="M326 985h16v-723q0 -84 47.5 -128t138.5 -44q72 0 151 36t150 101v637l-108 -35v76l240 80h16v-911h108v-74h-256v137q-103 -83 -191 -124.5t-163 -41.5q-126 0 -203 79.5t-77 211.5v602l-109 -35v76z" />
    <glyph glyph-name="v" unicode="v" horiz-adv-x="1034" 
d="M878 835q-19 -7 -38 -10.5t-39 -3.5q-45 0 -144.5 28t-148.5 28q-51 0 -102.5 -25t-116.5 -82l278 -670zM217 995q10 -52 20 -89.5t23 -67.5q101 86 171.5 121.5t137.5 35.5q52 0 150 -22.5t139 -22.5q28 0 52 8t61 31l45 -43q-33 -43 -69 -130l-3 -7l-282 -668
q-10 -22 -21 -56t-25 -85h-165q-6 26 -15.5 54t-32.5 81l-309 729l-98 -41l-25 64z" />
    <glyph glyph-name="w" unicode="w" horiz-adv-x="1518" 
d="M1331 835q-19 -7 -37 -10.5t-37 -3.5q-45 0 -145.5 28t-148.5 28q-51 0 -101 -24t-104 -73l280 -680zM217 995q8 -43 18.5 -83t24.5 -74l297 -738l174 392l-153 372l-99 -41l-24 64l219 108q11 -32 25.5 -67.5l33.5 -79.5q99 82 163.5 114.5t123.5 32.5q50 0 144 -23.5
t134 -23.5q35 0 65 10t58 31l41 -43q-27 -40 -58 -118q-5 -13 -7 -19l-262 -668q-12 -29 -22 -63t-20 -78h-159q-5 25 -14.5 53.5t-32.5 81.5l-117 268l-117 -262q-8 -18 -18.5 -51t-26.5 -90h-157q-6 26 -15.5 54t-32.5 81l-309 729l-98 -41l-25 64z" />
    <glyph glyph-name="x" unicode="x" horiz-adv-x="985" 
d="M61 967h379v-74h-121l197 -320l225 320h-141v74h324v-74h-95l-272 -385l279 -434h116v-74h-403v74h121l-201 313l-225 -313h123v-74h-334v74h123l272 377l-274 442h-93v74z" />
    <glyph glyph-name="y" unicode="y" horiz-adv-x="1034" 
d="M878 835q-19 -7 -38 -10.5t-39 -3.5q-45 0 -144.5 28t-148.5 28q-54 0 -107.5 -26t-105.5 -77l276 -588zM205 995q12 -35 27 -73.5t34 -81.5q95 84 165 119.5t138 35.5q52 0 150 -22.5t139 -22.5q28 0 52 8t61 31l45 -43q-37 -57 -71 -136l-1 -1l-485 -1026
q-48 -103 -108.5 -152t-137.5 -49q-35 0 -68 11t-57 30l53 152q42 -15 64.5 -20t42.5 -5q53 0 99.5 37.5t82.5 110.5l64 127l-400 839l-98 -41l-25 64z" />
    <glyph glyph-name="z" unicode="z" horiz-adv-x="834" 
d="M156 1028h75l2 -61h472l57 -93q-22 -23 -62 -73l-16 -21l-485 -628h313q82 0 129.5 32t67.5 101h67l-78 -346h-73l2 61h-523l-67 98l575 742h-254q-83 0 -125 -25t-77 -92l-70 6z" />
    <glyph glyph-name="braceleft" unicode="{" 
d="M846 1516v-51q-142 -2 -194 -55.5t-52 -209.5v-143q0 -226 -61 -308.5t-226 -113.5q165 -31 226 -113.5t61 -308.5v-143q0 -156 51.5 -208.5t194.5 -54.5v-51h-10q-217 0 -298 73.5t-81 272.5v213q0 158 -59 218t-222 73v60q165 15 223 74t58 216v213q0 200 81 273.5
t298 73.5h10z" />
    <glyph glyph-name="bar" unicode="|" 
d="M449 1565h126v-2048h-126v2048z" />
    <glyph glyph-name="braceright" unicode="}" 
d="M178 1516h10q216 0 297.5 -74t81.5 -273v-213q0 -157 58 -216t223 -74v-60q-163 -13 -222 -73t-59 -218v-213q0 -198 -81.5 -272t-297.5 -74h-10v51q143 2 194.5 54.5t51.5 208.5v143q0 226 61 308.5t226 113.5q-165 31 -226 113.5t-61 308.5v143q0 156 -52 209.5
t-194 55.5v51z" />
    <glyph glyph-name="asciitilde" unicode="~" horiz-adv-x="1706" 
d="M1530 758v-131q-101 -72 -197.5 -108t-189.5 -36q-43 0 -90.5 9t-100.5 26q-30 10 -87 31q-202 72 -302 72q-83 0 -173.5 -37.5t-211.5 -122.5v133q105 73 202 109t185 36q56 0 116.5 -12.5t174.5 -52.5q12 -4 35 -13q164 -59 254 -59q85 0 176 36.5t209 119.5z" />
    <glyph glyph-name="Adieresis" unicode="&#xc4;" horiz-adv-x="1262" 
d="M594 1276l-275 -750h537zM541 1395h172l465 -1315h106v-80h-407v80h135l-125 356h-600l-129 -356h123v-80h-320v80h100zM805 1780q35 0 61.5 -26.5t26.5 -61.5q0 -38 -25.5 -64t-62.5 -26q-38 0 -63 25t-25 63q0 35 26.5 62.5t61.5 27.5zM457 1780q35 0 61.5 -26.5
t26.5 -61.5q0 -38 -26 -64t-62 -26q-38 0 -63 25.5t-25 64.5q0 35 26.5 61.5t61.5 26.5z" />
    <glyph glyph-name="Aring" unicode="&#xc5;" horiz-adv-x="1262" 
d="M594 1276l-275 -750h537zM541 1395h172l465 -1315h106v-80h-407v80h135l-125 356h-600l-129 -356h123v-80h-320v80h100zM633 1851q-63 0 -107.5 -44t-44.5 -107t44.5 -106.5t107.5 -43.5q62 0 105.5 44t43.5 106q0 63 -43.5 107t-105.5 44zM631 1942q100 0 170.5 -70.5
t70.5 -169.5q0 -101 -70 -171.5t-171 -70.5q-100 0 -170 70.5t-70 171.5t69.5 170.5t170.5 69.5z" />
    <glyph glyph-name="Ccedilla" unicode="&#xc7;" horiz-adv-x="1290" 
d="M1137 1264l63 55l55 -57l-270 -254l-59 59q27 24 40 51t13 60q0 68 -71.5 119t-174.5 51q-218 0 -366 -169.5t-148 -426.5q0 -276 162 -461t401 -185q111 0 213 44.5t201 136.5l55 -62q-103 -122 -240 -188t-286 -66q-281 0 -463 198.5t-182 508.5q0 316 191 530.5
t468 214.5q115 0 215 -40t183 -119zM651 0h66v-111h20q103 0 160 -44t57 -124q0 -89 -56.5 -134.5t-168.5 -45.5q-56 0 -115.5 9.5t-138.5 31.5l2 76q89 -19 142.5 -27t93.5 -8q64 0 97.5 23.5t33.5 68.5q0 54 -34.5 78.5t-109.5 24.5q-18 0 -28.5 -0.5t-20.5 -1.5v184z" />
    <glyph glyph-name="Eacute" unicode="&#xc9;" horiz-adv-x="1147" 
d="M944 1395l111 -236l-56 -37q-75 99 -164 141t-227 42h-225v-412h485v113h76v-340h-76v137h-485v-713h197q147 0 252.5 58.5t193.5 187.5l57 -27l-143 -319q-24 5 -52 7.5t-81 2.5h-713v80h133v1233h-133v82h850zM657 1882h152l-269 -350h-92z" />
    <glyph glyph-name="Ntilde" unicode="&#xd1;" horiz-adv-x="1384" 
d="M94 1395h250l723 -1145v1063h-133v82h356v-82h-133v-1313h-108l-732 1155v-1075h134v-80h-357v80h133v1233h-133v82zM909 1796h82q-26 -91 -74 -136.5t-117 -45.5q-15 0 -30.5 2.5t-34.5 7.5l-97 31q-16 5 -28.5 7.5t-24.5 2.5q-29 0 -53 -19.5t-39 -54.5h-80
q21 88 71 135.5t122 47.5q16 0 30 -2.5t25 -6.5l96 -32q21 -6 34 -8.5t22 -2.5q32 0 55 18t41 56z" />
    <glyph glyph-name="Odieresis" unicode="&#xd6;" horiz-adv-x="1659" 
d="M829 1346q-254 0 -418.5 -171t-164.5 -438q0 -287 175.5 -488.5t422.5 -201.5q242 0 405.5 174t163.5 436q0 283 -174 486t-410 203zM829 1421q325 0 537.5 -205t212.5 -520t-212.5 -520t-537.5 -205q-324 0 -536.5 205t-212.5 520t212.5 520t536.5 205zM1003 1780
q35 0 61.5 -26.5t26.5 -61.5q0 -38 -25.5 -64t-62.5 -26q-38 0 -63 25t-25 63q0 35 26.5 62.5t61.5 27.5zM655 1780q35 0 61.5 -26.5t26.5 -61.5q0 -38 -26 -64t-62 -26q-38 0 -63 25.5t-25 64.5q0 35 26.5 61.5t61.5 26.5z" />
    <glyph glyph-name="Udieresis" unicode="&#xdc;" horiz-adv-x="1356" 
d="M76 1395h289v-967q0 -183 70 -274t212 -91q146 0 236 101.5t90 269.5v879h-133v82h288v-1315h134v-80h-287l-2 147q-78 -88 -167.5 -132t-193.5 -44q-202 0 -302.5 106.5t-100.5 319.5v916h-133v82zM821 1780q35 0 61.5 -26.5t26.5 -61.5q0 -38 -25.5 -64t-62.5 -26
q-38 0 -63 25t-25 63q0 35 26.5 62.5t61.5 27.5zM473 1780q35 0 61.5 -26.5t26.5 -61.5q0 -38 -26 -64t-62 -26q-38 0 -63 25.5t-25 64.5q0 35 26.5 61.5t61.5 26.5z" />
    <glyph glyph-name="aacute" unicode="&#xe1;" horiz-adv-x="1042" 
d="M702 553q-56 6 -86 8t-51 2q-157 0 -241 -64t-84 -184q0 -107 59 -172t156 -65q111 0 179 77t68 207v191zM236 999l65 -14l-16 -84q60 48 126 71t142 23q153 0 224 -85.5t71 -270.5v-565h110v-74h-241l-15 127q-63 -78 -142 -117t-173 -39q-131 0 -222 95.5t-91 236.5
q0 155 124.5 243.5t346.5 88.5q32 0 71 -2.5t86 -7.5v84q0 97 -48.5 151.5t-133.5 54.5q-97 0 -169 -51t-111 -149l-68 18zM606 1456h152l-269 -350h-92z" />
    <glyph glyph-name="agrave" unicode="&#xe0;" horiz-adv-x="1042" 
d="M702 553q-56 6 -86 8t-51 2q-157 0 -241 -64t-84 -184q0 -107 59 -172t156 -65q111 0 179 77t68 207v191zM236 999l65 -14l-16 -84q60 48 126 71t142 23q153 0 224 -85.5t71 -270.5v-565h110v-74h-241l-15 127q-63 -78 -142 -117t-173 -39q-131 0 -222 95.5t-91 236.5
q0 155 124.5 243.5t346.5 88.5q32 0 71 -2.5t86 -7.5v84q0 97 -48.5 151.5t-133.5 54.5q-97 0 -169 -51t-111 -149l-68 18zM286 1456h152l209 -350h-92z" />
    <glyph glyph-name="acircumflex" unicode="&#xe2;" horiz-adv-x="1042" 
d="M702 553q-56 6 -86 8t-51 2q-157 0 -241 -64t-84 -184q0 -107 59 -172t156 -65q111 0 179 77t68 207v191zM236 999l65 -14l-16 -84q60 48 126 71t142 23q153 0 224 -85.5t71 -270.5v-565h110v-74h-241l-15 127q-63 -78 -142 -117t-173 -39q-131 0 -222 95.5t-91 236.5
q0 155 124.5 243.5t346.5 88.5q32 0 71 -2.5t86 -7.5v84q0 97 -48.5 151.5t-133.5 54.5q-97 0 -169 -51t-111 -149l-68 18zM446 1456h152l200 -350h-92l-184 264l-184 -264h-92z" />
    <glyph glyph-name="adieresis" unicode="&#xe4;" horiz-adv-x="1042" 
d="M702 553q-56 6 -86 8t-51 2q-157 0 -241 -64t-84 -184q0 -107 59 -172t156 -65q111 0 179 77t68 207v191zM236 999l65 -14l-16 -84q60 48 126 71t142 23q153 0 224 -85.5t71 -270.5v-565h110v-74h-241l-15 127q-63 -78 -142 -117t-173 -39q-131 0 -222 95.5t-91 236.5
q0 155 124.5 243.5t346.5 88.5q32 0 71 -2.5t86 -7.5v84q0 97 -48.5 151.5t-133.5 54.5q-97 0 -169 -51t-111 -149l-68 18zM696 1354q35 0 61.5 -26.5t26.5 -61.5q0 -38 -25.5 -64t-62.5 -26q-38 0 -63 25t-25 63q0 35 26.5 62.5t61.5 27.5zM348 1354q35 0 61.5 -26.5
t26.5 -61.5q0 -38 -26 -64t-62 -26q-38 0 -63 25.5t-25 64.5q0 35 26.5 61.5t61.5 26.5z" />
    <glyph glyph-name="atilde" unicode="&#xe3;" horiz-adv-x="1042" 
d="M702 553q-56 6 -86 8t-51 2q-157 0 -241 -64t-84 -184q0 -107 59 -172t156 -65q111 0 179 77t68 207v191zM236 999l65 -14l-16 -84q60 48 126 71t142 23q153 0 224 -85.5t71 -270.5v-565h110v-74h-241l-15 127q-63 -78 -142 -117t-173 -39q-131 0 -222 95.5t-91 236.5
q0 155 124.5 243.5t346.5 88.5q32 0 71 -2.5t86 -7.5v84q0 97 -48.5 151.5t-133.5 54.5q-97 0 -169 -51t-111 -149l-68 18zM729 1370h82q-26 -91 -74 -136.5t-117 -45.5q-15 0 -30.5 2.5t-34.5 7.5l-97 31q-16 5 -28.5 7.5t-24.5 2.5q-29 0 -53 -19.5t-39 -54.5h-80
q21 88 71 135.5t122 47.5q16 0 30 -2.5t25 -6.5l96 -32q21 -6 34 -8.5t22 -2.5q32 0 55 18t41 56z" />
    <glyph glyph-name="aring" unicode="&#xe5;" horiz-adv-x="1042" 
d="M702 553q-56 6 -86 8t-51 2q-157 0 -241 -64t-84 -184q0 -107 59 -172t156 -65q111 0 179 77t68 207v191zM236 999l65 -14l-16 -84q60 48 126 71t142 23q153 0 224 -85.5t71 -270.5v-565h110v-74h-241l-15 127q-63 -78 -142 -117t-173 -39q-131 0 -222 95.5t-91 236.5
q0 155 124.5 243.5t346.5 88.5q32 0 71 -2.5t86 -7.5v84q0 97 -48.5 151.5t-133.5 54.5q-97 0 -169 -51t-111 -149l-68 18zM561 1452q-63 0 -107 -43.5t-44 -105.5q0 -63 44 -107.5t107 -44.5q62 0 106 44.5t44 107.5t-43.5 106t-106.5 43zM561 1542q100 0 170 -70t70 -169
q0 -101 -69.5 -171.5t-170.5 -70.5q-100 0 -171 70.5t-71 171.5q0 100 70.5 169.5t171.5 69.5z" />
    <glyph glyph-name="ccedilla" unicode="&#xe7;" horiz-adv-x="1006" 
d="M911 842l-106 -109q-59 86 -132 131t-153 45q-137 0 -226 -102t-89 -262q0 -189 111.5 -322t267.5 -133q77 0 154.5 34t140.5 95l43 -47q-73 -97 -175 -149t-221 -52q-203 0 -326.5 133.5t-123.5 354.5q0 226 142.5 381t346.5 155q101 0 185 -37t161 -116zM471 0h66v-111
h20q103 0 160 -44t57 -124q0 -89 -56.5 -134.5t-168.5 -45.5q-56 0 -115.5 9.5t-138.5 31.5l2 76q89 -19 142.5 -27t93.5 -8q64 0 97.5 23.5t33.5 68.5q0 54 -34.5 78.5t-109.5 24.5q-18 0 -28.5 -0.5t-20.5 -1.5v184z" />
    <glyph glyph-name="eacute" unicode="&#xe9;" 
d="M848 600l-619 -170q30 -153 123.5 -237t235.5 -84q85 0 164.5 33t148.5 98l47 -50q-89 -108 -197 -163.5t-233 -55.5q-194 0 -318 141.5t-124 360.5q0 223 137 372.5t338 149.5q87 0 165.5 -38t135.5 -109q42 -52 70 -116.5t28 -96.5q0 -14 -49 -23q-34 -7 -53 -12z
M801 662q-43 125 -114 190.5t-165 65.5q-137 0 -223 -100.5t-86 -262.5q0 -9 1 -22.5t4 -32.5zM596 1456h152l-269 -350h-92z" />
    <glyph glyph-name="egrave" unicode="&#xe8;" 
d="M848 600l-619 -170q30 -153 123.5 -237t235.5 -84q85 0 164.5 33t148.5 98l47 -50q-89 -108 -197 -163.5t-233 -55.5q-194 0 -318 141.5t-124 360.5q0 223 137 372.5t338 149.5q87 0 165.5 -38t135.5 -109q42 -52 70 -116.5t28 -96.5q0 -14 -49 -23q-34 -7 -53 -12z
M801 662q-43 125 -114 190.5t-165 65.5q-137 0 -223 -100.5t-86 -262.5q0 -9 1 -22.5t4 -32.5zM276 1456h152l209 -350h-92z" />
    <glyph glyph-name="ecircumflex" unicode="&#xea;" 
d="M848 600l-619 -170q30 -153 123.5 -237t235.5 -84q85 0 164.5 33t148.5 98l47 -50q-89 -108 -197 -163.5t-233 -55.5q-194 0 -318 141.5t-124 360.5q0 223 137 372.5t338 149.5q87 0 165.5 -38t135.5 -109q42 -52 70 -116.5t28 -96.5q0 -14 -49 -23q-34 -7 -53 -12z
M801 662q-43 125 -114 190.5t-165 65.5q-137 0 -223 -100.5t-86 -262.5q0 -9 1 -22.5t4 -32.5zM436 1456h152l200 -350h-92l-184 264l-184 -264h-92z" />
    <glyph glyph-name="edieresis" unicode="&#xeb;" 
d="M848 600l-619 -170q30 -153 123.5 -237t235.5 -84q85 0 164.5 33t148.5 98l47 -50q-89 -108 -197 -163.5t-233 -55.5q-194 0 -318 141.5t-124 360.5q0 223 137 372.5t338 149.5q87 0 165.5 -38t135.5 -109q42 -52 70 -116.5t28 -96.5q0 -14 -49 -23q-34 -7 -53 -12z
M801 662q-43 125 -114 190.5t-165 65.5q-137 0 -223 -100.5t-86 -262.5q0 -9 1 -22.5t4 -32.5zM686 1354q35 0 61.5 -26.5t26.5 -61.5q0 -38 -25.5 -64t-62.5 -26q-38 0 -63 25t-25 63q0 35 26.5 62.5t61.5 27.5zM338 1354q35 0 61.5 -26.5t26.5 -61.5q0 -38 -26 -64
t-62 -26q-38 0 -63 25.5t-25 64.5q0 35 26.5 61.5t61.5 26.5z" />
    <glyph glyph-name="iacute" unicode="&#xed;" horiz-adv-x="551" 
d="M350 995h8q0 -7 -2 -24q-6 -67 -6 -94v-803h111v-74h-367v74h111v790l-111 -35v76zM360 1456h152l-269 -350h-92z" />
    <glyph glyph-name="igrave" unicode="&#xec;" horiz-adv-x="551" 
d="M350 995h8q0 -7 -2 -24q-6 -67 -6 -94v-803h111v-74h-367v74h111v790l-111 -35v76zM40 1456h152l209 -350h-92z" />
    <glyph glyph-name="icircumflex" unicode="&#xee;" horiz-adv-x="551" 
d="M350 995h8q0 -7 -2 -24q-6 -67 -6 -94v-803h111v-74h-367v74h111v790l-111 -35v76zM200 1456h152l200 -350h-92l-184 264l-184 -264h-92z" />
    <glyph glyph-name="idieresis" unicode="&#xef;" horiz-adv-x="551" 
d="M350 995h8q0 -7 -2 -24q-6 -67 -6 -94v-803h111v-74h-367v74h111v790l-111 -35v76zM450 1354q35 0 61.5 -26.5t26.5 -61.5q0 -38 -25.5 -64t-62.5 -26q-38 0 -63 25t-25 63q0 35 26.5 62.5t61.5 27.5zM102 1354q35 0 61.5 -26.5t26.5 -61.5q0 -38 -26 -64t-62 -26
q-38 0 -63 25.5t-25 64.5q0 35 26.5 61.5t61.5 26.5z" />
    <glyph glyph-name="ntilde" unicode="&#xf1;" horiz-adv-x="1180" 
d="M985 707v-633h111v-74h-367v74h111v631q0 84 -48 128t-139 44q-72 0 -152 -36.5t-151 -101.5v-665h111v-74h-367v74h111v790l-111 -35v76l240 80h12l4 -156q104 84 192 125t163 41q126 0 203 -78.5t77 -209.5zM797 1370h82q-26 -91 -74 -136.5t-117 -45.5
q-15 0 -30.5 2.5t-34.5 7.5l-97 31q-16 5 -28.5 7.5t-24.5 2.5q-29 0 -53 -19.5t-39 -54.5h-80q21 88 71 135.5t122 47.5q16 0 30 -2.5t25 -6.5l96 -32q21 -6 34 -8.5t22 -2.5q32 0 55 18t41 56z" />
    <glyph glyph-name="oacute" unicode="&#xf3;" horiz-adv-x="1176" 
d="M578 924q-155 0 -247.5 -110t-92.5 -296q0 -202 105 -338.5t261 -136.5q152 0 243 110t91 296q0 201 -105 338t-255 137zM588 995q221 0 366.5 -144.5t145.5 -367.5q0 -222 -146 -367t-366 -145q-221 0 -366.5 145t-145.5 367t145.5 367t366.5 145zM672 1456h152
l-269 -350h-92z" />
    <glyph glyph-name="ograve" unicode="&#xf2;" horiz-adv-x="1176" 
d="M578 924q-155 0 -247.5 -110t-92.5 -296q0 -202 105 -338.5t261 -136.5q152 0 243 110t91 296q0 201 -105 338t-255 137zM588 995q221 0 366.5 -144.5t145.5 -367.5q0 -222 -146 -367t-366 -145q-221 0 -366.5 145t-145.5 367t145.5 367t366.5 145zM352 1456h152
l209 -350h-92z" />
    <glyph glyph-name="ocircumflex" unicode="&#xf4;" horiz-adv-x="1176" 
d="M578 924q-155 0 -247.5 -110t-92.5 -296q0 -202 105 -338.5t261 -136.5q152 0 243 110t91 296q0 201 -105 338t-255 137zM588 995q221 0 366.5 -144.5t145.5 -367.5q0 -222 -146 -367t-366 -145q-221 0 -366.5 145t-145.5 367t145.5 367t366.5 145zM512 1456h152
l200 -350h-92l-184 264l-184 -264h-92z" />
    <glyph glyph-name="odieresis" unicode="&#xf6;" horiz-adv-x="1176" 
d="M578 924q-155 0 -247.5 -110t-92.5 -296q0 -202 105 -338.5t261 -136.5q152 0 243 110t91 296q0 201 -105 338t-255 137zM588 995q221 0 366.5 -144.5t145.5 -367.5q0 -222 -146 -367t-366 -145q-221 0 -366.5 145t-145.5 367t145.5 367t366.5 145zM762 1354
q35 0 61.5 -26.5t26.5 -61.5q0 -38 -25.5 -64t-62.5 -26q-38 0 -63 25t-25 63q0 35 26.5 62.5t61.5 27.5zM414 1354q35 0 61.5 -26.5t26.5 -61.5q0 -38 -26 -64t-62 -26q-38 0 -63 25.5t-25 64.5q0 35 26.5 61.5t61.5 26.5z" />
    <glyph glyph-name="otilde" unicode="&#xf5;" horiz-adv-x="1176" 
d="M578 924q-155 0 -247.5 -110t-92.5 -296q0 -202 105 -338.5t261 -136.5q152 0 243 110t91 296q0 201 -105 338t-255 137zM588 995q221 0 366.5 -144.5t145.5 -367.5q0 -222 -146 -367t-366 -145q-221 0 -366.5 145t-145.5 367t145.5 367t366.5 145zM795 1370h82
q-26 -91 -74 -136.5t-117 -45.5q-15 0 -30.5 2.5t-34.5 7.5l-97 31q-16 5 -28.5 7.5t-24.5 2.5q-29 0 -53 -19.5t-39 -54.5h-80q21 88 71 135.5t122 47.5q16 0 30 -2.5t25 -6.5l96 -32q21 -6 34 -8.5t22 -2.5q32 0 55 18t41 56z" />
    <glyph glyph-name="uacute" unicode="&#xfa;" horiz-adv-x="1180" 
d="M326 985h16v-723q0 -84 47.5 -128t138.5 -44q72 0 151 36t150 101v637l-108 -35v76l240 80h16v-911h108v-74h-256v137q-103 -83 -191 -124.5t-163 -41.5q-126 0 -203 79.5t-77 211.5v602l-109 -35v76zM674 1456h152l-269 -350h-92z" />
    <glyph glyph-name="ugrave" unicode="&#xf9;" horiz-adv-x="1180" 
d="M326 985h16v-723q0 -84 47.5 -128t138.5 -44q72 0 151 36t150 101v637l-108 -35v76l240 80h16v-911h108v-74h-256v137q-103 -83 -191 -124.5t-163 -41.5q-126 0 -203 79.5t-77 211.5v602l-109 -35v76zM354 1456h152l209 -350h-92z" />
    <glyph glyph-name="ucircumflex" unicode="&#xfb;" horiz-adv-x="1180" 
d="M326 985h16v-723q0 -84 47.5 -128t138.5 -44q72 0 151 36t150 101v637l-108 -35v76l240 80h16v-911h108v-74h-256v137q-103 -83 -191 -124.5t-163 -41.5q-126 0 -203 79.5t-77 211.5v602l-109 -35v76zM514 1456h152l200 -350h-92l-184 264l-184 -264h-92z" />
    <glyph glyph-name="udieresis" unicode="&#xfc;" horiz-adv-x="1180" 
d="M326 985h16v-723q0 -84 47.5 -128t138.5 -44q72 0 151 36t150 101v637l-108 -35v76l240 80h16v-911h108v-74h-256v137q-103 -83 -191 -124.5t-163 -41.5q-126 0 -203 79.5t-77 211.5v602l-109 -35v76zM764 1354q35 0 61.5 -26.5t26.5 -61.5q0 -38 -25.5 -64t-62.5 -26
q-38 0 -63 25t-25 63q0 35 26.5 62.5t61.5 27.5zM416 1354q35 0 61.5 -26.5t26.5 -61.5q0 -38 -26 -64t-62 -26q-38 0 -63 25.5t-25 64.5q0 35 26.5 61.5t61.5 26.5z" />
    <glyph glyph-name="dagger" unicode="&#x2020;" 
d="M430 1395h164l-51 -424l327 49v-158l-327 49q19 -177 31 -249.5t26 -116.5q-26 -125 -40 -320t-18 -481h-60q-3 271 -18 481.5t-38 319.5q22 87 53 351l2 15l-327 -49v158l327 -49z" />
    <glyph glyph-name="degree" unicode="&#xb0;" horiz-adv-x="674" 
d="M338 1372q-84 0 -143.5 -58.5t-59.5 -142.5t59.5 -143t143.5 -59t142.5 59t58.5 143t-58.5 142.5t-142.5 58.5zM338 1454q117 0 200 -83t83 -200q0 -116 -83.5 -199t-201.5 -83t-199.5 82t-81.5 200q0 119 82.5 201t200.5 82z" />
    <glyph glyph-name="cent" unicode="&#xa2;" horiz-adv-x="1014" 
d="M500 995q-118 -20 -186 -109.5t-68 -223.5q0 -141 70.5 -250.5t183.5 -145.5v729zM500 1270h90v-194q85 -4 158 -38t139 -102l-94 -96q-50 69 -97.5 104.5t-105.5 48.5v-737q76 2 142 29.5t118 79.5l45 -43q-51 -73 -129.5 -120.5t-175.5 -64.5v-213h-90v211
q-176 14 -279.5 135.5t-103.5 313.5q0 187 107 322t276 163v201z" />
    <glyph glyph-name="sterling" unicode="&#xa3;" horiz-adv-x="1014" 
d="M846 1069l-103 -76q-61 90 -109.5 127t-103.5 37q-67 0 -110 -41.5t-43 -107.5q0 -61 49 -171t63 -153h271v-80h-260v-10q0 -119 -68.5 -235.5t-198.5 -217.5h353q94 0 130 25.5t62 93.5h66l-66 -317h-67l-2 57h-527l-49 152q109 80 168 183t59 210q0 10 -0.5 21.5
t-3.5 37.5h-170v80h152q-47 101 -67.5 166t-20.5 111q0 110 94 196t217 86q77 0 148 -43.5t137 -130.5z" />
    <glyph glyph-name="section" unicode="&#xa7;" 
d="M621 336q103 68 154.5 129.5t51.5 116.5q0 69 -74.5 119.5t-349.5 138.5q-106 -72 -156 -131.5t-50 -114.5q0 -69 71.5 -118.5t352.5 -139.5zM700 307q105 -37 155 -95.5t50 -141.5q0 -139 -115.5 -232.5t-293.5 -93.5q-71 0 -151 20.5t-161 59.5l-22 -66l-70 19l82 233
q106 -84 213.5 -129t200.5 -45q90 0 151.5 53t61.5 131q0 112 -287 207l-38 12q-266 88 -336 148t-70 152q0 77 58 154t194 175q-101 37 -152 96.5t-51 141.5q0 128 115 222.5t278 94.5q77 0 162.5 -20.5t163.5 -59.5l22 64l70 -18l-82 -232q-105 83 -212.5 127.5
t-201.5 44.5q-88 0 -149.5 -50.5t-61.5 -123.5q0 -114 301 -213l25 -8q266 -89 335.5 -148t69.5 -147q0 -83 -60 -161.5t-194 -170.5z" />
    <glyph glyph-name="bullet" unicode="&#x2022;" horiz-adv-x="1208" 
d="M307 762q0 123 87 209t210 86q122 0 208.5 -86.5t86.5 -208.5t-87.5 -209.5t-209.5 -87.5q-123 0 -209 87t-86 210z" />
    <glyph glyph-name="paragraph" unicode="&#xb6;" 
d="M948 1479v-78h-125v-1401h-94v1401h-182v-1401h-96v782q-173 8 -274 102.5t-101 245.5q0 157 107.5 253t285.5 96h479z" />
    <glyph glyph-name="germandbls" unicode="&#xdf;" horiz-adv-x="1075" 
d="M432 18v129q55 -45 105.5 -65.5t105.5 -20.5q101 0 166 62.5t65 159.5q0 63 -43.5 129t-146.5 153l-12 11q-187 158 -187 239q0 55 95.5 177.5t95.5 215.5q0 61 -42 101.5t-106 40.5q-87 0 -132.5 -56t-45.5 -164v-1130h-256v74h111v782h-144l29 94l115 1
q2 233 86.5 352.5t247.5 119.5q112 0 190 -64.5t78 -156.5q0 -87 -97.5 -201t-97.5 -153q0 -54 144 -171q17 -14 26 -22q132 -107 175.5 -178t43.5 -155q0 -146 -102.5 -248.5t-251.5 -102.5q-64 0 -116 11.5t-99 35.5z" />
    <glyph glyph-name="registered" unicode="&#xae;" horiz-adv-x="1683" 
d="M729 719q16 -1 32 -1.5t34 -0.5q112 0 173.5 45.5t61.5 128.5q0 73 -53 117.5t-143 44.5q-52 0 -78.5 -18.5t-26.5 -53.5v-262zM469 1092h393q147 0 232.5 -54.5t85.5 -146.5q0 -76 -69.5 -124t-217.5 -75q93 -29 142 -77.5t71 -133.5q6 -22 11 -63q13 -88 59 -88
q32 0 49.5 34t17.5 99h43v-12q0 -88 -40.5 -133.5t-119.5 -45.5q-46 0 -78.5 17t-48.5 49q-18 40 -21 113.5t-9 95.5q-20 68 -70.5 100.5t-136.5 32.5h-33v-248q0 -54 26.5 -75.5t98.5 -25.5v-40h-385v40q72 3 99.5 24.5t27.5 76.5v516q0 55 -26 76t-101 25v43zM844 1303
q-122 0 -236 -48t-202 -137t-134.5 -202.5t-46.5 -237.5q0 -127 46.5 -239t136.5 -201q88 -89 198.5 -135t235.5 -46q126 0 236.5 46t197.5 135q88 90 135 203t47 237t-47.5 241.5t-132.5 200.5q-86 87 -200.5 135t-233.5 48zM844 1382q138 0 268.5 -54t228.5 -152
q97 -97 150 -228t53 -272q0 -137 -55.5 -267.5t-157.5 -232.5q-99 -99 -224.5 -150t-270.5 -51q-137 0 -263 52.5t-227 152.5t-154 227t-53 271q0 140 53 268.5t152 229.5q98 99 228 152.5t272 53.5z" />
    <glyph glyph-name="copyright" unicode="&#xa9;" horiz-adv-x="1683" 
d="M1120 1096h35l2 -314h-41q-34 137 -104 206t-176 69q-123 0 -185.5 -94.5t-62.5 -278.5q0 -189 67 -285t199 -96q86 0 156 43t127 131l34 -24q-58 -105 -143 -157t-199 -52q-167 0 -285 123t-118 297q0 186 116 312t285 126q74 0 148 -34t82 -34q27 0 42 14.5t21 47.5z
M844 1303q-123 0 -237.5 -48.5t-200.5 -136.5q-88 -89 -134.5 -202.5t-46.5 -237.5q0 -125 47 -238.5t136 -201.5q88 -89 198.5 -135t235.5 -46q126 0 236.5 46t197.5 135q88 90 135 203t47 237t-47.5 240.5t-132.5 201.5q-86 87 -200.5 135t-233.5 48zM844 1382
q137 0 266.5 -53.5t226.5 -150.5q98 -97 152.5 -228.5t54.5 -271.5t-53 -268t-154 -230q-98 -100 -225 -152.5t-270 -52.5t-269 52.5t-227 152.5t-154 227t-53 271q0 140 53 268.5t152 229.5q98 99 228 152.5t272 53.5z" />
    <glyph glyph-name="trademark" unicode="&#x2122;" horiz-adv-x="1683" 
d="M788 1438h183l141 -400l148 400h174v-25l-30 -2q-22 -2 -34 -15.5t-12 -37.5v-373q0 -24 12 -37.5t34 -15.5l30 -2v-27h-236v27l31 2q21 2 33 16t12 37v395l-178 -479h-15l-174 479v-395q0 -23 12.5 -37t34.5 -16l31 -2v-27h-197v27l34 2q21 2 32.5 16t11.5 37v371
q0 23 -12.5 37t-34.5 16l-31 2v27zM256 1438h440l11 -178h-25q-8 79 -40.5 115t-96.5 36h-21v-426q0 -23 12 -37t33 -16l31 -2v-27h-248v27l31 2q21 1 33 15.5t12 37.5v426h-20q-64 0 -97 -36t-41 -115h-26z" />
    <glyph glyph-name="acute" unicode="&#xb4;" 
d="M596 1456h152l-269 -350h-92z" />
    <glyph glyph-name="dieresis" unicode="&#xa8;" 
d="M686 1354q35 0 61.5 -26.5t26.5 -61.5q0 -38 -25.5 -64t-62.5 -26q-38 0 -63 25t-25 63q0 35 26.5 62.5t61.5 27.5zM338 1354q35 0 61.5 -26.5t26.5 -61.5q0 -38 -26 -64t-62 -26q-38 0 -63 25.5t-25 64.5q0 35 26.5 61.5t61.5 26.5z" />
    <glyph glyph-name="notequal" unicode="&#x2260;" horiz-adv-x="1706" 
d="M1210 1180l88 -70l-196 -250h350v-115h-424l-211 -270h635v-115h-709l-251 -319l-89 70l197 249h-346v115h420l211 270h-631v115h704z" />
    <glyph glyph-name="AE" unicode="&#xc6;" horiz-adv-x="1659" 
d="M743 1313l-432 -787h432v787zM510 1395h946l111 -236l-56 -37q-75 99 -164 141t-227 42h-225v-412h485v113h76v-340h-76v137h-485v-713h197q147 0 252.5 58.5t193.5 187.5l57 -27l-143 -319q-24 5 -52 7.5t-81 2.5h-707v80h131v356h-483l-197 -356h117v-80h-317v80h98
l682 1233h-133v82z" />
    <glyph glyph-name="Oslash" unicode="&#xd8;" horiz-adv-x="1659" 
d="M1255 1126l-778 -936q80 -69 175.5 -106t193.5 -37q240 0 403.5 173.5t163.5 436.5q0 128 -38.5 243t-119.5 226zM1182 1202q-77 71 -169.5 107.5t-195.5 36.5q-243 0 -407 -173t-164 -434q0 -132 40.5 -254t116.5 -219zM1411 1479h137l-202 -242q118 -111 175.5 -244.5
t57.5 -296.5q0 -315 -212.5 -520t-537.5 -205q-115 0 -224.5 31.5t-207.5 91.5l-168 -203h-137l221 265q-117 111 -175 245t-58 295q0 315 212.5 520t536.5 205q123 0 231.5 -30t201.5 -91z" />
    <glyph glyph-name="infinity" unicode="&#x221e;" horiz-adv-x="1706" 
d="M905 559q51 -95 119 -141.5t156 -46.5q102 0 168.5 71t66.5 181q0 108 -61 179.5t-152 71.5q-85 0 -153.5 -72.5t-143.5 -242.5zM803 666q-51 95 -119 142.5t-154 47.5q-105 0 -171 -71t-66 -183q0 -108 61 -179t152 -71q85 0 152 69t145 245zM866 494
q-71 -138 -148 -201.5t-173 -63.5q-134 0 -226 109t-92 272q0 172 82.5 277.5t214.5 105.5q97 0 172 -63t144 -203q67 138 146 204t175 66q134 0 226 -108.5t92 -272.5q0 -171 -82 -277t-213 -106q-96 0 -169 60t-149 201z" />
    <glyph glyph-name="plusminus" unicode="&#xb1;" horiz-adv-x="1706" 
d="M254 158h1198v-117h-1198v117zM795 1180h118v-344h539v-117h-539v-344h-118v344h-541v117h541v344z" />
    <glyph glyph-name="lessequal" unicode="&#x2264;" horiz-adv-x="1706" 
d="M262 150h1182v-117h-1182v117zM1444 1192v-125l-977 -324l977 -323v-125l-1182 399v101z" />
    <glyph glyph-name="greaterequal" unicode="&#x2265;" horiz-adv-x="1706" 
d="M262 150h1182v-117h-1182v117zM262 1192l1182 -397v-101l-1182 -399v125l979 323l-979 324v125z" />
    <glyph glyph-name="yen" unicode="&#xa5;" horiz-adv-x="1014" 
d="M-33 1214h359v-71h-109l334 -590l297 590h-94v71h262v-71h-82l-205 -404h225v-80h-264l-55 -106h319v-82h-358v-399h127v-72h-395v72h127v399h-381v82h329l-61 106h-268v80h221l-232 404h-96v71z" />
    <glyph glyph-name="mu" unicode="&#xb5;" horiz-adv-x="1120" 
d="M164 193q-27 -136 -52 -339q-34 -272 -112 -272q-37 0 -58.5 23.5t-21.5 64.5q0 40 64.5 273.5t105.5 427.5l109 514h147l-104 -492q-6 -30 -9.5 -58.5t-3.5 -53.5q0 -83 42 -129t118 -46q98 0 163.5 68.5t94.5 200.5l111 510h149l-114 -531q-13 -59 -17 -87.5t-4 -49.5
q0 -48 26 -78t66 -30q35 0 65.5 18t51.5 51t41 93.5t39 60.5q12 0 19 -10t7 -27q0 -25 -11 -66.5t-29 -83.5q-38 -82 -95 -122.5t-135 -40.5q-68 0 -108.5 51t-40.5 139v23q-46 -110 -116 -164t-165 -54q-96 0 -152.5 54.5t-70.5 161.5z" />
    <glyph glyph-name="partialdiff" unicode="&#x2202;" horiz-adv-x="1044" 
d="M754 604q13 81 19.5 161.5t6.5 158.5q0 140 -39.5 216.5t-111.5 76.5q-53 0 -117 -63.5t-109 -63.5q-29 0 -51 21.5t-22 51.5q0 59 68 105.5t163 46.5q171 0 273 -152.5t102 -412.5q0 -335 -139 -555t-344 -220q-147 0 -241.5 106.5t-94.5 272.5q0 189 108.5 316
t266.5 127q99 0 162.5 -47t99.5 -146zM709 483q0 117 -45 180.5t-127 63.5q-113 0 -184.5 -127.5t-71.5 -333.5q0 -117 44 -178t128 -61q111 0 183.5 128t72.5 328z" />
    <glyph glyph-name="summation" unicode="&#x2211;" horiz-adv-x="1434" 
d="M12 1473h1135l98 -340h-74l-67 219q-8 27 -32 39t-73 12h-741l864 -850v-37l-858 -756h893q60 0 77.5 13t29.5 51l71 229h74l-135 -446h-1260v28l959 838l-961 950v50z" />
    <glyph glyph-name="product" unicode="&#x220f;" horiz-adv-x="1595" 
d="M57 1473h1479v-70h-186v-1727h186v-69h-555v69h197v1727h-762v-1727h196v-69h-555v69h187v1727h-187v70z" />
    <glyph glyph-name="pi" unicode="&#x3c0;" horiz-adv-x="1354" 
d="M1329 885l-35 -162h-329q-34 -179 -54 -452q-23 -314 -120 -314q-38 0 -58 24.5t-20 69.5q0 58 77 280.5t117 391.5h-375q-33 -177 -53 -448q-25 -318 -123 -318q-37 0 -57 25t-20 71q0 56 77.5 277t118.5 393h-133q-136 0 -180 -43.5t-72 -171.5h-59q37 207 117.5 292
t238.5 85h942z" />
    <glyph glyph-name="integral" unicode="&#x222b;" horiz-adv-x="1020" 
d="M301 -268q103 0 116 664q3 141 5 216q12 503 102 719.5t281 216.5q76 0 122 -39t46 -104q0 -48 -31 -77.5t-82 -29.5q-53 0 -85 35t-32 92q0 8 -6 15.5t-14 7.5q-105 0 -119 -634q-3 -157 -6 -245q-10 -308 -31.5 -461t-62.5 -247q-49 -114 -123 -173t-168 -59
q-73 0 -119.5 38t-46.5 97q0 53 31.5 84t83.5 31q47 0 79.5 -29t32.5 -67q0 -24 7.5 -37.5t19.5 -13.5z" />
    <glyph glyph-name="ordfeminine" unicode="&#xaa;" horiz-adv-x="782" 
d="M526 1104q-9 1 -25 2q-58 6 -77 6q-117 0 -180.5 -45t-63.5 -129q0 -76 44.5 -121t117.5 -45q84 0 134 53.5t50 145.5v133zM176 1417l49 -10l-12 -59q46 33 95 49t108 16q114 0 167.5 -60t53.5 -190v-395h82v-51h-180l-13 88q-46 -54 -105.5 -81.5t-129.5 -27.5
q-98 0 -167 67.5t-69 166.5q0 108 94 169.5t261 61.5q28 0 57 -1.5t59 -4.5v57q0 69 -35.5 107.5t-99.5 38.5q-74 0 -128 -36t-83 -105l-51 14z" />
    <glyph glyph-name="ordmasculine" unicode="&#xba;" horiz-adv-x="883" 
d="M434 1364q-117 0 -186.5 -77t-69.5 -208q0 -140 79.5 -235.5t195.5 -95.5q113 0 182.5 77t69.5 205q0 142 -79 238t-192 96zM440 1413q167 0 276 -101t109 -257q0 -155 -109.5 -257t-275.5 -102q-164 0 -273.5 102t-109.5 257t109.5 256.5t273.5 101.5z" />
    <glyph glyph-name="Omega" unicode="&#x3a9;" horiz-adv-x="1567" 
d="M1100 188v-26h313l66 203h61l-108 -365h-500q134 233 202 451t68 413q0 271 -107.5 416t-308.5 145t-309 -145t-108 -416q0 -195 68 -411t204 -453h-500l-110 365h61l68 -203h311v26q-165 203 -234 361.5t-69 327.5q0 272 174.5 446t443.5 174t443 -174.5t174 -445.5
q0 -169 -69 -327.5t-234 -361.5z" />
    <glyph glyph-name="ae" unicode="&#xe6;" horiz-adv-x="1651" 
d="M702 553q-56 6 -86 8t-51 2q-157 0 -241 -64t-84 -184q0 -107 59 -172t156 -65q111 0 179 77t68 207v191zM1425 662q-42 125 -113 190.5t-165 65.5q-137 0 -222 -100.5t-85 -262.5q0 -22 0.5 -34t1.5 -21zM236 999l65 -14l-16 -84q60 48 126 71t142 23q101 0 170 -41.5
t104 -126.5q72 84 159 126t190 42q87 0 165.5 -38t135.5 -109q41 -53 69.5 -118t28.5 -95q0 -13 -48 -23q-32 -6 -52 -12l-619 -170q29 -153 123 -237t235 -84q86 0 164 32.5t148 98.5l49 -50q-87 -107 -196.5 -163t-235.5 -56t-223.5 60.5t-157.5 175.5
q-77 -121 -169 -178.5t-206 -57.5q-131 0 -222 95.5t-91 236.5q0 155 124.5 243.5t346.5 88.5q32 0 71 -2.5t86 -7.5v84q0 97 -48.5 151.5t-133.5 54.5q-97 0 -169 -51t-111 -149l-68 18z" />
    <glyph glyph-name="oslash" unicode="&#xf8;" horiz-adv-x="1176" 
d="M864 741l-493 -594q47 -50 107 -77t126 -27q152 0 243 110t91 296q0 80 -18.5 154.5t-55.5 137.5zM807 819q-47 50 -107 77.5t-122 27.5q-153 0 -246.5 -110t-93.5 -290q0 -79 19 -154.5t56 -144.5zM1004 1057h122l-172 -207q72 -68 109 -161.5t37 -205.5
q0 -222 -146 -367t-366 -145q-77 0 -151 22t-140 64l-154 -186h-125l203 244q-73 74 -109 166t-36 202q0 223 145 367.5t367 144.5q78 0 152.5 -21.5t142.5 -64.5z" />
    <glyph glyph-name="questiondown" unicode="&#xbf;" horiz-adv-x="862" 
d="M408 979h108v-70q0 -95 -20.5 -162t-75.5 -149q-18 -27 -57 -75q-117 -146 -117 -265q0 -97 50.5 -154t135.5 -57q89 0 147 53t58 133q0 36 -11.5 71.5t-39.5 84.5l139 64q28 -42 42.5 -88t14.5 -91q0 -122 -114 -212.5t-277 -90.5q-133 0 -226 82.5t-93 200.5
q0 129 162 303q24 25 36 39q92 101 114 164.5t22 171.5v7q2 21 2 40zM453 1421q36 0 63 -27.5t27 -64.5q0 -38 -26.5 -65t-63.5 -27q-39 0 -67 27t-28 65t28.5 65t66.5 27z" />
    <glyph glyph-name="exclamdown" unicode="&#xa1;" horiz-adv-x="541" 
d="M231 981h78q0 -280 28 -559.5t28 -282.5q0 -84 -23.5 -126t-71.5 -42q-45 0 -69.5 40.5t-24.5 115.5q0 13 27.5 296.5t27.5 557.5zM270 1421q37 0 64.5 -27.5t27.5 -64.5t-27 -64.5t-65 -27.5t-65 27t-27 65t27.5 65t64.5 27z" />
    <glyph glyph-name="logicalnot" unicode="&#xac;" horiz-adv-x="1706" 
d="M254 858h1198v-502h-115v385h-1083v117z" />
    <glyph glyph-name="radical" unicode="&#x221a;" horiz-adv-x="1288" 
d="M1106 1647h182v-82h-119l-594 -1606h-53l-323 893l-119 -43l-23 68l262 92l265 -729z" />
    <glyph glyph-name="florin" unicode="&#x192;" horiz-adv-x="1014" 
d="M950 1116l-108 -98q-42 65 -85.5 97t-90.5 32q-66 0 -117 -81.5t-51 -195.5q0 -98 57 -150t188 -73l-10 -63h-244l-71 -629q-18 -150 -75 -211t-171 -61q-40 0 -74.5 6.5t-68.5 21.5l12 51h16q117 0 166 50t66 190l67 582h-168l11 80h166l24 196q21 174 114 277.5
t226 103.5q57 0 115.5 -32.5t105.5 -92.5z" />
    <glyph glyph-name="approxequal" unicode="&#x2248;" horiz-adv-x="1706" 
d="M1530 584v-131q-107 -75 -202 -110.5t-187 -35.5q-98 0 -288 69.5t-290 69.5q-82 0 -169.5 -35.5t-215.5 -123.5v131q108 74 203.5 110.5t183.5 36.5q111 0 301.5 -69.5t276.5 -69.5q85 0 173.5 35.5t213.5 122.5zM1530 934v-131q-104 -73 -200 -108.5t-187 -35.5
q-100 0 -290 69t-290 69q-83 0 -171.5 -36t-213.5 -122v131q106 73 202 109t185 36q111 0 300.5 -68.5t277.5 -68.5q87 0 175 35t212 121z" />
    <glyph glyph-name="Delta" unicode="&#x2206;" horiz-adv-x="1208" 
d="M555 1212l-389 -1042h768zM596 1497h29l555 -1497h-1151z" />
    <glyph glyph-name="guillemotleft" unicode="&#xab;" horiz-adv-x="664" 
d="M516 868h72l-133 -376l120 -377h-69l-193 377zM279 868h69l-131 -376l121 -377h-72l-192 377z" />
    <glyph glyph-name="guillemotright" unicode="&#xbb;" horiz-adv-x="664" 
d="M326 868h71l193 -376l-205 -377h-70l134 377zM88 868h72l190 -376l-203 -377h-71l133 377z" />
    <glyph glyph-name="ellipsis" unicode="&#x2026;" horiz-adv-x="2048" 
d="M342 156q38 0 65 -27t27 -66q0 -37 -27.5 -64.5t-64.5 -27.5t-64.5 28t-27.5 64q0 38 27 65.5t65 27.5zM1024 156q38 0 65 -27t27 -66q0 -37 -27.5 -64.5t-64.5 -27.5t-64.5 28t-27.5 64q0 38 27 65.5t65 27.5zM1708 156q38 0 65 -27t27 -66q0 -37 -27.5 -64.5
t-64.5 -27.5t-64.5 28t-27.5 64q0 38 27 65.5t65 27.5z" />
    <glyph glyph-name="nonbreakingspace" unicode="&#xa0;" horiz-adv-x="1014" 
 />
    <glyph glyph-name="Agrave" unicode="&#xc0;" horiz-adv-x="1262" 
d="M594 1276l-275 -750h537zM541 1395h172l465 -1315h106v-80h-407v80h135l-125 356h-600l-129 -356h123v-80h-320v80h100zM395 1882h152l209 -350h-92z" />
    <glyph glyph-name="Atilde" unicode="&#xc3;" horiz-adv-x="1262" 
d="M594 1276l-275 -750h537zM541 1395h172l465 -1315h106v-80h-407v80h135l-125 356h-600l-129 -356h123v-80h-320v80h100zM838 1796h82q-26 -91 -74 -136.5t-117 -45.5q-15 0 -30.5 2.5t-34.5 7.5l-97 31q-16 5 -28.5 7.5t-24.5 2.5q-29 0 -53 -19.5t-39 -54.5h-80
q21 88 71 135.5t122 47.5q16 0 30 -2.5t25 -6.5l96 -32q21 -6 34 -8.5t22 -2.5q32 0 55 18t41 56z" />
    <glyph glyph-name="Otilde" unicode="&#xd5;" horiz-adv-x="1659" 
d="M829 1346q-254 0 -418.5 -171t-164.5 -438q0 -287 175.5 -488.5t422.5 -201.5q242 0 405.5 174t163.5 436q0 283 -174 486t-410 203zM829 1421q325 0 537.5 -205t212.5 -520t-212.5 -520t-537.5 -205q-324 0 -536.5 205t-212.5 520t212.5 520t536.5 205zM1036 1796h82
q-26 -91 -74 -136.5t-117 -45.5q-15 0 -30.5 2.5t-34.5 7.5l-97 31q-16 5 -28.5 7.5t-24.5 2.5q-29 0 -53 -19.5t-39 -54.5h-80q21 88 71 135.5t122 47.5q16 0 30 -2.5t25 -6.5l96 -32q21 -6 34 -8.5t22 -2.5q32 0 55 18t41 56z" />
    <glyph glyph-name="OE" unicode="&#x152;" horiz-adv-x="2157" 
d="M1237 905q0 130 -18.5 197.5t-61.5 118.5q-50 59 -136 92t-192 33q-254 0 -418.5 -171t-164.5 -438q0 -290 176.5 -490t431.5 -200q190 0 286.5 102t96.5 302v454zM1350 1395h604l110 -236l-55 -37q-75 99 -164 141t-227 42h-223v-412h483v113h76v-340h-76v137h-483v-713
h194q148 0 253.5 58.5t193.5 187.5l57 -27l-144 -319q-24 5 -52 7.5t-80 2.5h-467q-144 0 -311 -14.5t-193 -14.5q-338 0 -552 203t-214 522q0 315 212.5 520t536.5 205q34 0 207 -13t314 -13z" />
    <glyph glyph-name="oe" unicode="&#x153;" horiz-adv-x="1886" 
d="M1663 662q-42 125 -113.5 190.5t-165.5 65.5q-136 0 -221.5 -100.5t-85.5 -262.5q0 -22 0.5 -33.5t2.5 -21.5zM1020 770q64 106 168 165.5t225 59.5q88 0 166 -38t135 -109q42 -52 70 -116.5t28 -96.5q0 -14 -48 -23q-33 -7 -52 -12l-620 -170q29 -153 123.5 -237
t236.5 -84q85 0 163 32.5t148 98.5l47 -50q-89 -109 -196.5 -164t-233.5 -55q-117 0 -211 55t-157 160q-74 -104 -183 -159.5t-241 -55.5q-221 0 -366.5 145t-145.5 367q0 223 145 367.5t367 144.5q134 0 248.5 -59.5t183.5 -165.5zM578 924q-155 0 -247.5 -110t-92.5 -296
q0 -202 105 -338.5t261 -136.5q152 0 243 110t91 296q0 201 -105 338t-255 137z" />
    <glyph glyph-name="endash" unicode="&#x2013;" 
d="M0 541h1024v-95h-1024v95z" />
    <glyph glyph-name="emdash" unicode="&#x2014;" horiz-adv-x="2048" 
d="M0 541h2048v-95h-2048v95z" />
    <glyph glyph-name="quotedblleft" unicode="&#x201c;" horiz-adv-x="801" 
d="M606 1421l27 -45q-45 -27 -67.5 -57t-26.5 -67q4 0 10.5 0.5t17.5 0.5q33 0 55.5 -24.5t22.5 -61.5q0 -38 -27.5 -65t-66.5 -27q-45 0 -72.5 33t-27.5 88q0 71 41 130.5t114 94.5zM311 1421l29 -45q-46 -28 -69 -57.5t-27 -66.5q5 0 11 0.5t17 0.5q33 0 55.5 -24.5
t22.5 -61.5q0 -38 -27 -65t-65 -27q-45 0 -73.5 33.5t-28.5 87.5q0 71 41 130.5t114 94.5z" />
    <glyph glyph-name="quotedblright" unicode="&#x201d;" horiz-adv-x="801" 
d="M489 1075l-26 45q45 28 67.5 58t26.5 67q-6 -1 -11.5 -1.5t-15.5 -0.5q-34 0 -56.5 24.5t-22.5 61.5q0 38 27.5 65t66.5 27q43 0 71.5 -34.5t28.5 -88.5q0 -70 -41 -128.5t-115 -94.5zM195 1075l-27 45q45 28 67.5 58t26.5 67q-6 -1 -11 -1.5t-13 -0.5q-36 0 -59 24.5
t-23 61.5q0 38 27.5 65t66.5 27q43 0 71.5 -34.5t28.5 -88.5q0 -70 -41 -128.5t-114 -94.5z" />
    <glyph glyph-name="quoteleft" unicode="&#x2018;" horiz-adv-x="508" 
d="M311 1421l29 -45q-46 -28 -69 -57.5t-27 -66.5q5 0 11 0.5t17 0.5q33 0 55.5 -24.5t22.5 -61.5q0 -38 -27 -65t-65 -27q-45 0 -73.5 33.5t-28.5 87.5q0 71 41 130.5t114 94.5z" />
    <glyph glyph-name="quoteright" unicode="&#x2019;" horiz-adv-x="508" 
d="M195 1075l-27 45q44 27 67 58t27 69q-6 -1 -11 -1.5t-13 -0.5q-36 0 -59 24t-23 60q0 38 27.5 65t66.5 27q43 0 71.5 -33.5t28.5 -87.5q0 -70 -41 -130t-114 -95z" />
    <glyph glyph-name="divide" unicode="&#xf7;" horiz-adv-x="1706" 
d="M854 365q47 0 81 -34t34 -81t-33.5 -81t-81.5 -34t-81.5 33.5t-33.5 81.5t34 81.5t81 33.5zM254 670h1198v-117h-1198v117zM854 1085q48 0 81.5 -33.5t33.5 -80.5q0 -48 -33.5 -81.5t-81.5 -33.5q-49 0 -82 33.5t-33 81.5q0 47 34 80.5t81 33.5z" />
    <glyph glyph-name="lozenge" unicode="&#x25ca;" horiz-adv-x="1012" 
d="M506 1409l-385 -817l385 -825l385 825zM506 1653l500 -1061l-500 -1069l-500 1069z" />
    <glyph glyph-name="ydieresis" unicode="&#xff;" horiz-adv-x="1034" 
d="M878 835q-19 -7 -38 -10.5t-39 -3.5q-45 0 -144.5 28t-148.5 28q-54 0 -107.5 -26t-105.5 -77l276 -588zM205 995q12 -35 27 -73.5t34 -81.5q95 84 165 119.5t138 35.5q52 0 150 -22.5t139 -22.5q28 0 52 8t61 31l45 -43q-37 -57 -71 -136l-1 -1l-485 -1026
q-48 -103 -108.5 -152t-137.5 -49q-35 0 -68 11t-57 30l53 152q42 -15 64.5 -20t42.5 -5q53 0 99.5 37.5t82.5 110.5l64 127l-400 839l-98 -41l-25 64zM692 1354q35 0 61.5 -26.5t26.5 -61.5q0 -38 -25.5 -64t-62.5 -26q-38 0 -63 25t-25 63q0 35 26.5 62.5t61.5 27.5z
M344 1354q35 0 61.5 -26.5t26.5 -61.5q0 -38 -26 -64t-62 -26q-38 0 -63 25.5t-25 64.5q0 35 26.5 61.5t61.5 26.5z" />
    <glyph glyph-name="Ydieresis" unicode="&#x178;" horiz-adv-x="1190" 
d="M-23 1395h406v-82h-123l377 -711l338 711h-103v82h295v-82h-92l-567 -1190q29 15 57.5 23t55.5 8q33 0 81.5 -16.5t71.5 -16.5q32 0 60 14.5t57 46.5l45 -28q-60 -101 -111.5 -142t-113.5 -41q-48 0 -125 28t-101 28q-21 0 -39.5 -9.5t-35.5 -27.5l-52 30l201 422
l-471 871h-111v82zM770 1780q35 0 61.5 -26.5t26.5 -61.5q0 -38 -25.5 -64t-62.5 -26q-38 0 -63 25t-25 63q0 35 26.5 62.5t61.5 27.5zM422 1780q35 0 61.5 -26.5t26.5 -61.5q0 -38 -26 -64t-62 -26q-38 0 -63 25.5t-25 64.5q0 35 26.5 61.5t61.5 26.5z" />
    <glyph glyph-name="fraction" unicode="&#x2215;" horiz-adv-x="342" 
d="M584 1241h98l-924 -1270h-100z" />
    <glyph glyph-name="currency" unicode="&#xa4;" horiz-adv-x="1014" 
d="M979 215q-81 -128 -172.5 -186t-210.5 -58q-180 0 -292.5 135t-133.5 386h-150l19 81h127q0 44 0.5 66.5t0.5 40.5h-147l19 80h137q31 220 145.5 350.5t274.5 130.5q85 0 148.5 -30.5t115.5 -98.5l64 55l55 -57l-260 -244l-60 60q28 24 41 51t13 59q0 58 -33.5 93.5
t-89.5 35.5q-122 0 -211.5 -117.5t-95.5 -287.5h438l-19 -80h-417q1 -20 3 -42t7 -64l379 -1l-19 -81h-346q33 -176 133 -285t222 -109q75 0 135 39t116 125z" />
    <glyph glyph-name="guilsinglleft" unicode="&#x2039;" horiz-adv-x="426" 
d="M281 868h69l-133 -376l123 -377h-72l-192 377z" />
    <glyph glyph-name="guilsinglright" unicode="&#x203a;" horiz-adv-x="426" 
d="M88 868h72l190 -376l-203 -377h-71l133 377z" />
    <glyph glyph-name="fi" unicode="&#xf001;" horiz-adv-x="1038" 
d="M725 1294l-86 -88q-45 65 -97.5 98t-109.5 33q-74 0 -122 -45t-48 -116q0 -103 78.5 -164.5t214.5 -61.5q70 0 141.5 11.5t143.5 33.5h6q-3 -32 -4.5 -62.5t-1.5 -55.5v-803h108v-74h-364v74h108v782h-342v-782h111v-74h-367v74h111v782h-144l29 94h123q-37 40 -55.5 87
t-18.5 100q0 103 102 193.5t222 90.5q69 0 136 -32t126 -95z" />
    <glyph glyph-name="fl" unicode="&#xf002;" horiz-adv-x="1034" 
d="M694 1323l244 90v-76l-98 -37v-1226h108v-74h-364v74h108v1175l-63 -20q-47 53 -97.5 80.5t-99.5 27.5q-74 0 -122 -46t-48 -117q0 -92 73 -158t177 -66h61l-28 -94h-195v-782h111v-74h-367v74h111v782h-144l29 94h123q-37 40 -55.5 87t-18.5 100q0 103 102 193.5
t222 90.5q61 0 118.5 -24t112.5 -74z" />
    <glyph glyph-name="daggerdbl" unicode="&#x2021;" 
d="M430 1395h164l-51 -424l327 49v-158l-327 49q13 -105 27 -193.5t28 -150.5q-17 -74 -30.5 -160t-24.5 -182l327 49v-157l-327 49l51 -422h-164l51 422l-327 -49v157l327 -48q-9 84 -22.5 169t-32.5 172q18 83 32 169t23 175l-327 -49v158l327 -49z" />
    <glyph glyph-name="periodcentered" unicode="&#xb7;" horiz-adv-x="508" 
d="M254 698q38 0 65 -26.5t27 -65.5q0 -38 -27.5 -65t-64.5 -27t-64.5 27.5t-27.5 64.5q0 38 27 65t65 27z" />
    <glyph glyph-name="quotesinglbase" unicode="&#x201a;" horiz-adv-x="508" 
d="M195 -190l-27 45q44 27 66.5 57t27.5 69q-6 -1 -12 -1h-17q-33 0 -55 23.5t-22 59.5q0 38 27.5 65.5t66.5 27.5q43 0 71.5 -34t28.5 -87q0 -70 -41.5 -130.5t-113.5 -94.5z" />
    <glyph glyph-name="quotedblbase" unicode="&#x201e;" horiz-adv-x="801" 
d="M489 -190l-26 45q44 27 66.5 57t27.5 69q-5 0 -11.5 -0.5t-17.5 -0.5q-33 0 -55 23.5t-22 59.5q0 38 27.5 65.5t66.5 27.5q43 0 71.5 -34t28.5 -87q0 -70 -41.5 -130.5t-114.5 -94.5zM195 -190l-27 45q44 27 66.5 57t27.5 69q-6 -1 -12 -1h-17q-33 0 -55 23.5t-22 59.5
q0 38 27.5 65.5t66.5 27.5q43 0 71.5 -34t28.5 -87q0 -70 -41.5 -130.5t-113.5 -94.5z" />
    <glyph glyph-name="perthousand" unicode="&#x2030;" horiz-adv-x="1972" 
d="M1812 266q0 130 -65.5 225t-153.5 95q-65 0 -102 -50t-37 -139q0 -130 65 -225.5t150 -95.5q66 0 104.5 51t38.5 139zM1196 266q0 130 -66 225t-153 95q-65 0 -102 -50t-37 -139q0 -130 64.5 -225.5t150.5 -95.5q66 0 104.5 51t38.5 139zM1632 690q115 0 188.5 -100
t73.5 -260t-73.5 -259.5t-188.5 -99.5q-114 0 -187 99.5t-73 259.5q0 161 72.5 260.5t187.5 99.5zM1016 690q115 0 188.5 -100t73.5 -260t-73.5 -259.5t-188.5 -99.5t-187.5 99.5t-72.5 259.5q0 161 72.5 260.5t187.5 99.5zM518 817q0 130 -65 225t-152 95q-66 0 -103.5 -50
t-37.5 -139q0 -129 65.5 -225t151.5 -96q65 0 103 50.5t38 139.5zM985 1241h92l-704 -1270h-92zM340 1241q115 0 187.5 -99t72.5 -259q0 -161 -73 -261t-187 -100q-115 0 -188.5 100.5t-73.5 260.5t73 259t189 99z" />
    <glyph glyph-name="Acircumflex" unicode="&#xc2;" horiz-adv-x="1262" 
d="M594 1276l-275 -750h537zM541 1395h172l465 -1315h106v-80h-407v80h135l-125 356h-600l-129 -356h123v-80h-320v80h100zM555 1882h152l200 -350h-92l-184 264l-184 -264h-92z" />
    <glyph glyph-name="Ecircumflex" unicode="&#xca;" horiz-adv-x="1147" 
d="M944 1395l111 -236l-56 -37q-75 99 -164 141t-227 42h-225v-412h485v113h76v-340h-76v137h-485v-713h197q147 0 252.5 58.5t193.5 187.5l57 -27l-143 -319q-24 5 -52 7.5t-81 2.5h-713v80h133v1233h-133v82h850zM497 1882h152l200 -350h-92l-184 264l-184 -264h-92z" />
    <glyph glyph-name="Aacute" unicode="&#xc1;" horiz-adv-x="1262" 
d="M594 1276l-275 -750h537zM541 1395h172l465 -1315h106v-80h-407v80h135l-125 356h-600l-129 -356h123v-80h-320v80h100zM715 1882h152l-269 -350h-92z" />
    <glyph glyph-name="Edieresis" unicode="&#xcb;" horiz-adv-x="1147" 
d="M944 1395l111 -236l-56 -37q-75 99 -164 141t-227 42h-225v-412h485v113h76v-340h-76v137h-485v-713h197q147 0 252.5 58.5t193.5 187.5l57 -27l-143 -319q-24 5 -52 7.5t-81 2.5h-713v80h133v1233h-133v82h850zM747 1780q35 0 61.5 -26.5t26.5 -61.5q0 -38 -25.5 -64
t-62.5 -26q-38 0 -63 25t-25 63q0 35 26.5 62.5t61.5 27.5zM399 1780q35 0 61.5 -26.5t26.5 -61.5q0 -38 -26 -64t-62 -26q-38 0 -63 25.5t-25 64.5q0 35 26.5 61.5t61.5 26.5z" />
    <glyph glyph-name="Egrave" unicode="&#xc8;" horiz-adv-x="1147" 
d="M944 1395l111 -236l-56 -37q-75 99 -164 141t-227 42h-225v-412h485v113h76v-340h-76v137h-485v-713h197q147 0 252.5 58.5t193.5 187.5l57 -27l-143 -319q-24 5 -52 7.5t-81 2.5h-713v80h133v1233h-133v82h850zM337 1882h152l209 -350h-92z" />
    <glyph glyph-name="Iacute" unicode="&#xcd;" horiz-adv-x="612" 
d="M94 1395h422v-82h-133v-1233h133v-80h-422v80h133v1233h-133v82zM391 1882h152l-269 -350h-92z" />
    <glyph glyph-name="Icircumflex" unicode="&#xce;" horiz-adv-x="612" 
d="M94 1395h422v-82h-133v-1233h133v-80h-422v80h133v1233h-133v82zM231 1882h152l200 -350h-92l-184 264l-184 -264h-92z" />
    <glyph glyph-name="Idieresis" unicode="&#xcf;" horiz-adv-x="612" 
d="M94 1395h422v-82h-133v-1233h133v-80h-422v80h133v1233h-133v82zM481 1780q35 0 61.5 -26.5t26.5 -61.5q0 -38 -25.5 -64t-62.5 -26q-38 0 -63 25t-25 63q0 35 26.5 62.5t61.5 27.5zM133 1780q35 0 61.5 -26.5t26.5 -61.5q0 -38 -26 -64t-62 -26q-38 0 -63 25.5t-25 64.5
q0 35 26.5 61.5t61.5 26.5z" />
    <glyph glyph-name="Igrave" unicode="&#xcc;" horiz-adv-x="612" 
d="M94 1395h422v-82h-133v-1233h133v-80h-422v80h133v1233h-133v82zM71 1882h152l209 -350h-92z" />
    <glyph glyph-name="Oacute" unicode="&#xd3;" horiz-adv-x="1659" 
d="M829 1346q-254 0 -418.5 -171t-164.5 -438q0 -287 175.5 -488.5t422.5 -201.5q242 0 405.5 174t163.5 436q0 283 -174 486t-410 203zM829 1421q325 0 537.5 -205t212.5 -520t-212.5 -520t-537.5 -205q-324 0 -536.5 205t-212.5 520t212.5 520t536.5 205zM913 1882h152
l-269 -350h-92z" />
    <glyph glyph-name="Ocircumflex" unicode="&#xd4;" horiz-adv-x="1659" 
d="M829 1346q-254 0 -418.5 -171t-164.5 -438q0 -287 175.5 -488.5t422.5 -201.5q242 0 405.5 174t163.5 436q0 283 -174 486t-410 203zM829 1421q325 0 537.5 -205t212.5 -520t-212.5 -520t-537.5 -205q-324 0 -536.5 205t-212.5 520t212.5 520t536.5 205zM753 1882h152
l200 -350h-92l-184 264l-184 -264h-92z" />
    <glyph glyph-name="apple" unicode="&#xf000;" horiz-adv-x="1618" 
d="M836 1216q-1 6 -1.5 14t-0.5 23q0 124 95 229.5t236 131.5q1 -10 1.5 -23t0.5 -39q0 -131 -103.5 -234.5t-203.5 -103.5h-8q-3 0 -7.5 1t-8.5 1zM1505 403q-114 -247 -205 -342.5t-204 -95.5q-50 0 -131.5 33t-122.5 33q-45 0 -131 -33t-127 -33q-64 0 -128.5 44
t-129.5 132q-102 140 -157.5 295.5t-55.5 300.5q0 219 125 356.5t323 137.5q68 0 155 -34t124 -34q34 0 121.5 35t152.5 35q110 0 198 -40t161 -124q-102 -65 -151.5 -145.5t-49.5 -182.5q0 -113 60 -200t173 -138z" />
    <glyph glyph-name="Ograve" unicode="&#xd2;" horiz-adv-x="1659" 
d="M829 1346q-254 0 -418.5 -171t-164.5 -438q0 -287 175.5 -488.5t422.5 -201.5q242 0 405.5 174t163.5 436q0 283 -174 486t-410 203zM829 1421q325 0 537.5 -205t212.5 -520t-212.5 -520t-537.5 -205q-324 0 -536.5 205t-212.5 520t212.5 520t536.5 205zM593 1882h152
l209 -350h-92z" />
    <glyph glyph-name="Uacute" unicode="&#xda;" horiz-adv-x="1356" 
d="M76 1395h289v-967q0 -183 70 -274t212 -91q146 0 236 101.5t90 269.5v879h-133v82h288v-1315h134v-80h-287l-2 147q-78 -88 -167.5 -132t-193.5 -44q-202 0 -302.5 106.5t-100.5 319.5v916h-133v82zM731 1882h152l-269 -350h-92z" />
    <glyph glyph-name="Ucircumflex" unicode="&#xdb;" horiz-adv-x="1356" 
d="M76 1395h289v-967q0 -183 70 -274t212 -91q146 0 236 101.5t90 269.5v879h-133v82h288v-1315h134v-80h-287l-2 147q-78 -88 -167.5 -132t-193.5 -44q-202 0 -302.5 106.5t-100.5 319.5v916h-133v82zM571 1882h152l200 -350h-92l-184 264l-184 -264h-92z" />
    <glyph glyph-name="Ugrave" unicode="&#xd9;" horiz-adv-x="1356" 
d="M76 1395h289v-967q0 -183 70 -274t212 -91q146 0 236 101.5t90 269.5v879h-133v82h288v-1315h134v-80h-287l-2 147q-78 -88 -167.5 -132t-193.5 -44q-202 0 -302.5 106.5t-100.5 319.5v916h-133v82zM411 1882h152l209 -350h-92z" />
    <glyph glyph-name="dotlessi" unicode="&#x131;" horiz-adv-x="551" 
d="M350 995h8q0 -7 -2 -24q-6 -67 -6 -94v-803h111v-74h-367v74h111v790l-111 -35v76z" />
    <glyph glyph-name="circumflex" unicode="&#x2c6;" 
d="M436 1456h152l200 -350h-92l-184 264l-184 -264h-92z" />
    <glyph glyph-name="tilde" unicode="&#x2dc;" 
d="M719 1370h82q-26 -91 -74 -136.5t-117 -45.5q-15 0 -30.5 2.5t-34.5 7.5l-97 31q-16 5 -28.5 7.5t-24.5 2.5q-29 0 -53 -19.5t-39 -54.5h-80q21 88 71 135.5t122 47.5q16 0 30 -2.5t25 -6.5l96 -32q21 -6 34 -8.5t22 -2.5q32 0 55 18t41 56z" />
    <glyph glyph-name="macron" unicode="&#xaf;" 
d="M256 1323h512v-117h-512v117z" />
    <glyph glyph-name="breve" unicode="&#x2d8;" 
d="M238 1411h79q6 -76 53 -110.5t142 -34.5q96 0 140.5 34t52.5 111h81q-9 -137 -74.5 -199.5t-199.5 -62.5q-133 0 -199 63t-75 199z" />
    <glyph glyph-name="dotaccent" unicode="&#x2d9;" 
d="M512 1358q39 0 66.5 -27t27.5 -65q0 -40 -27 -67.5t-67 -27.5q-38 0 -65 28t-27 67q0 37 27.5 64.5t64.5 27.5z" />
    <glyph glyph-name="ring" unicode="&#x2da;" 
d="M512 1479q-63 0 -106.5 -44.5t-43.5 -107.5t43.5 -106t106.5 -43t107.5 43.5t44.5 105.5q0 63 -44.5 107.5t-107.5 44.5zM512 1569q100 0 171 -70t71 -170t-70.5 -171t-171.5 -71q-100 0 -170 70.5t-70 171.5t70 170.5t170 69.5z" />
    <glyph glyph-name="cedilla" unicode="&#xb8;" 
d="M479 0h66v-111h20q103 0 160 -44t57 -124q0 -89 -56.5 -134.5t-168.5 -45.5q-56 0 -115.5 9.5t-138.5 31.5l2 76q89 -19 142.5 -27t93.5 -8q64 0 97.5 23.5t33.5 68.5q0 54 -34.5 78.5t-109.5 24.5q-18 0 -28.5 -0.5t-20.5 -1.5v184z" />
    <glyph glyph-name="hungarumlaut" unicode="&#x2dd;" 
d="M739 1456h133l-227 -350h-74zM485 1456h133l-208 -350h-74z" />
    <glyph glyph-name="ogonek" unicode="&#x2db;" 
d="M553 0h59q-72 -63 -108.5 -123t-36.5 -117q0 -43 26 -62.5t85 -19.5h75v-104h-73q-106 0 -158.5 38.5t-52.5 117.5q0 65 45.5 132t138.5 138z" />
    <glyph glyph-name="caron" unicode="&#x2c7;" 
d="M236 1456h92l184 -264l184 264h92l-200 -350h-152z" />
    <glyph glyph-name="Lslash" unicode="&#x141;" horiz-adv-x="1063" 
d="M94 1395h447v-82h-158v-502l326 211v-119l-326 -211v-602h197q144 0 239 66t158 211l57 -21l-123 -403h-73l8 57h-752v80h133v522l-227 -147v118l227 148v592h-133v82z" />
    <glyph glyph-name="lslash" unicode="&#x142;" horiz-adv-x="537" 
d="M440 1413v-76l-98 -37v-497l195 127v-103l-195 -127v-626h109v-74h-365v74h109v544l-195 -126v102l195 127v526l-109 -37v76z" />
    <glyph glyph-name="Scaron" unicode="&#x160;" horiz-adv-x="1124" 
d="M938 1317l51 55l51 -39l-133 -168q-97 86 -182 125t-174 39q-116 0 -194 -65.5t-78 -159.5q0 -130 303 -254l14 -6l17 -7q384 -155 384 -397q0 -187 -148 -328t-353 -141q-122 0 -243.5 55.5t-225.5 157.5l127 129q94 -114 201.5 -174.5t213.5 -60.5q130 0 220 81t90 197
q0 103 -66 172t-252 144l-8 3q-387 153 -387 355q0 164 126 277.5t310 113.5q80 0 165.5 -26.5t170.5 -77.5zM287 1882h92l184 -264l184 264h92l-200 -350h-152z" />
    <glyph glyph-name="scaron" unicode="&#x161;" horiz-adv-x="768" 
d="M670 909l-68 -104q-67 56 -127 84.5t-113 28.5q-64 0 -105.5 -37t-41.5 -95q0 -89 184 -170l76 -34q124 -59 173.5 -123t49.5 -162q0 -126 -104 -226t-250 -100q-91 0 -175.5 39t-150.5 111l103 119q89 -89 160.5 -130.5t136.5 -41.5q72 0 119 47.5t47 120.5
q0 66 -39.5 111.5t-167.5 105.5l-5 2q-266 124 -266 284q0 110 83 183t208 73q70 0 137 -21t136 -65zM109 1456h92l184 -264l184 264h92l-200 -350h-152z" />
    <glyph glyph-name="Zcaron" unicode="&#x17d;" horiz-adv-x="1071" 
d="M156 1446h94l-4 -51h674l79 -109v-16q-27 -28 -63 -77l-2 -3l-746 -1049h457q122 0 185.5 47t93.5 156h84l-52 -401h-86l-2 57h-569q-66 0 -104.5 -2.5t-73.5 -7.5l-86 125q28 22 70 72t96 126l669 938h-424q-100 0 -157.5 -40.5t-87.5 -133.5h-82zM261 1882h92l184 -264
l184 264h92l-200 -350h-152z" />
    <glyph glyph-name="zcaron" unicode="&#x17e;" horiz-adv-x="834" 
d="M156 1028h75l2 -61h472l57 -93q-22 -23 -62 -73l-16 -21l-485 -628h313q82 0 129.5 32t67.5 101h67l-78 -346h-73l2 61h-523l-67 98l575 742h-254q-83 0 -125 -25t-77 -92l-70 6zM142 1456h92l184 -264l184 264h92l-200 -350h-152z" />
    <glyph glyph-name="brokenbar" unicode="&#xa6;" 
d="M449 408h126v-758h-126v758zM449 1432h126v-758h-126v758z" />
    <glyph glyph-name="Eth" unicode="&#xd0;" horiz-adv-x="1341" 
d="M383 1305v-414h354v-98h-354v-703h162q258 0 402.5 162t144.5 453q0 288 -139 444t-396 156h-174zM94 1395h416q144 0 249 -21.5t187 -66.5q149 -82 232.5 -241.5t83.5 -363.5q0 -325 -186.5 -513.5t-512.5 -188.5h-469v80h133v713h-227v98h227v422h-133v82z" />
    <glyph glyph-name="eth" unicode="&#xf0;" horiz-adv-x="1124" 
d="M553 874q-146 0 -235 -104t-89 -278q0 -191 101 -321t248 -130q143 0 230 104.5t87 280.5q0 190 -99 319t-241 129h-2zM410 1421q39 -26 87 -63l109 -88l199 116l43 -65l-182 -107q202 -195 292.5 -370.5t90.5 -368.5q0 -222 -137 -363t-349 -141q-208 0 -347.5 139
t-139.5 349q0 209 138.5 347t348.5 138q63 0 117 -14.5t108 -46.5q-36 70 -85.5 142.5t-112.5 145.5l-268 -151l-41 67l254 142l-80.5 81t-77.5 70z" />
    <glyph glyph-name="Yacute" unicode="&#xdd;" horiz-adv-x="1190" 
d="M-23 1395h406v-82h-123l377 -711l338 711h-103v82h295v-82h-92l-567 -1190q29 15 57.5 23t55.5 8q33 0 81.5 -16.5t71.5 -16.5q32 0 60 14.5t57 46.5l45 -28q-60 -101 -111.5 -142t-113.5 -41q-48 0 -125 28t-101 28q-21 0 -39.5 -9.5t-35.5 -27.5l-52 30l201 422
l-471 871h-111v82zM680 1882h152l-269 -350h-92z" />
    <glyph glyph-name="yacute" unicode="&#xfd;" horiz-adv-x="1034" 
d="M878 835q-19 -7 -38 -10.5t-39 -3.5q-45 0 -144.5 28t-148.5 28q-54 0 -107.5 -26t-105.5 -77l276 -588zM205 995q12 -35 27 -73.5t34 -81.5q95 84 165 119.5t138 35.5q52 0 150 -22.5t139 -22.5q28 0 52 8t61 31l45 -43q-37 -57 -71 -136l-1 -1l-485 -1026
q-48 -103 -108.5 -152t-137.5 -49q-35 0 -68 11t-57 30l53 152q42 -15 64.5 -20t42.5 -5q53 0 99.5 37.5t82.5 110.5l64 127l-400 839l-98 -41l-25 64zM602 1456h152l-269 -350h-92z" />
    <glyph glyph-name="Thorn" unicode="&#xde;" horiz-adv-x="1176" 
d="M383 1133v-613q0 -134 46 -190t153 -56q158 0 258 119t100 307q0 205 -118 319t-333 114h-106zM94 1395h422v-82h-133v-90h156q270 0 420.5 -135t150.5 -375q0 -222 -147 -369t-367 -147q-63 0 -116.5 8t-96.5 24v-149h147v-80h-436v80h133v1233h-133v82z" />
    <glyph glyph-name="thorn" unicode="&#xfe;" horiz-adv-x="1151" 
d="M342 344q0 -158 59 -228.5t189 -70.5q150 0 235.5 115t85.5 317q0 186 -85 307t-212 121q-65 0 -128 -28.5t-144 -96.5v-436zM440 1413v-76l-98 -37v-430q91 66 169 95.5t155 29.5q173 0 291 -141.5t118 -355.5q0 -228 -129.5 -377.5t-318.5 -149.5q-80 0 -149.5 20.5
t-135.5 61.5v-383h109v-73h-365v73h109v1577l-109 -37v76z" />
    <glyph glyph-name="minus" unicode="&#x2212;" horiz-adv-x="1706" 
d="M254 670h1198v-119h-1198v119z" />
    <glyph glyph-name="multiply" unicode="&#xd7;" horiz-adv-x="1706" 
d="M381 1169l477 -477l475 477l82 -82l-475 -477l475 -475l-82 -82l-475 475l-477 -475l-80 82l475 475l-475 477z" />
    <glyph glyph-name="onesuperior" unicode="&#xb9;" horiz-adv-x="670" 
d="M367 1214h28q-1 -11 -1.5 -21.5t-0.5 -29.5v-20v-615h74v-43h-244v43h74v586l-86 -31v39q64 20 107 56t49 36z" />
    <glyph glyph-name="twosuperior" unicode="&#xb2;" horiz-adv-x="670" 
d="M182 569h232q60 0 84.5 15.5t42.5 56.5h45l-43 -190h-47v34h-373l-37 76q233 151 321.5 245.5t88.5 184.5q0 80 -52 132.5t-129 52.5q-75 0 -121.5 -42.5t-46.5 -111.5q0 -71 45 -112.5t121 -41.5h2v-39q-20 -4 -33 -6t-22 -2q-86 0 -140 49.5t-54 128.5q0 95 82 163.5
t196 68.5q110 0 184 -61t74 -152q0 -102 -88 -198.5t-332 -250.5z" />
    <glyph glyph-name="threesuperior" unicode="&#xb3;" horiz-adv-x="670" 
d="M436 1135h-178q-42 0 -67 -15t-56 -61l-45 16l53 172l52 -10l2 -23h245q16 0 25.5 1t20.5 3l42 -67l-206 -182h12q110 0 180 -60t70 -153q0 -120 -95.5 -203.5t-232.5 -83.5q-64 0 -121 23t-96 65l68 66q45 -48 96 -71.5t106 -23.5q82 0 129 49t47 134q0 81 -53 137.5
t-129 56.5q-22 0 -43 -4.5t-43 -13.5l-24 31z" />
    <glyph glyph-name="onequarter" unicode="&#xbc;" horiz-adv-x="1620" 
d="M1372 569l-270 -336h270v336zM1401 680h57v-447h111l-15 -61h-96v-131h80v-41h-262v41h96v131h-328v61zM1223 1241h98l-924 -1270h-100zM350 1214h27q-1 -9 -1.5 -19.5t-0.5 -27.5v-18v-574h69v-40h-231v40h72v547l-84 -30v38q62 18 102.5 51t46.5 33z" />
    <glyph glyph-name="onehalf" unicode="&#xbd;" horiz-adv-x="1620" 
d="M1155 80h221q60 0 82.5 14t38.5 51h43l-41 -178h-45v33h-356l-35 72q222 139 306.5 227t84.5 172q0 75 -49 124.5t-123 49.5q-72 0 -116 -39.5t-44 -105.5t43 -105t115 -39h2v-34q-22 -5 -33.5 -7t-19.5 -2q-82 0 -133.5 46.5t-51.5 121.5q0 87 78.5 151t188.5 64
q104 0 174.5 -58t70.5 -142q0 -94 -84 -184t-317 -232zM1223 1241h98l-924 -1270h-100zM350 1214h27q-1 -9 -1.5 -19.5t-0.5 -27.5v-18v-574h69v-40h-231v40h72v547l-84 -30v38q62 18 102.5 51t46.5 33z" />
    <glyph glyph-name="threequarters" unicode="&#xbe;" horiz-adv-x="1620" 
d="M1372 569l-270 -336h270v336zM1401 680h57v-447h111l-15 -61h-96v-131h80v-41h-262v41h96v131h-328v61zM1223 1241h98l-924 -1270h-100zM416 1141h-170q-39 0 -62.5 -13.5t-54.5 -56.5l-43 14l51 160l49 -8l2 -23h234q16 0 25 1t18 4l41 -62l-197 -172q1 0 4.5 1t5.5 1
q106 0 173 -56.5t67 -144.5q0 -112 -91.5 -190t-221.5 -78q-59 0 -114 22t-93 60l65 62q43 -43 92 -65t103 -22q77 0 121.5 45t44.5 123q0 77 -51 131t-123 54q-21 0 -40 -4.5t-42 -14.5l-23 29z" />
    <glyph glyph-name="franc" unicode="&#x20a3;" horiz-adv-x="1810" 
d="M94 1395h830l104 -236l-55 -37q-75 99 -164 141t-227 42h-199v-412h459v113h76v-359h-76v156h-459v-723h133v-80h-422v80h133v1233h-133v82zM1751 995l56 -28l-123 -199q-41 41 -76 59.5t-72 18.5q-63 0 -98 -47.5t-35 -134.5v-590h129v-74h-385v74h111v663q0 46 -9 62
t-34 28l-47 -59l-60 41l131 186q68 -37 102.5 -73t49.5 -84q37 85 76.5 121t91.5 36q32 0 69 -13.5t80 -41.5z" />
    <glyph glyph-name="Gbreve" unicode="&#x11e;" horiz-adv-x="1470" 
d="M1159 702h-385v91h438q50 0 70.5 3t36.5 11l27 -57q-18 -17 -24.5 -31.5t-6.5 -44.5v-387q0 -43 2.5 -74t7.5 -57q-168 -103 -293 -144t-260 -41q-310 0 -501 194t-191 507q0 145 47 273t139 233q106 119 241 181t290 62q107 0 215.5 -39t218.5 -116l57 53l55 -57
l-270 -252l-55 53q24 30 36.5 57.5t12.5 50.5q0 75 -76 125t-194 50q-240 0 -400.5 -173t-160.5 -434q0 -288 179 -484t437 -196q159 0 233 68t74 213v362zM461 1837h79q6 -76 53 -110.5t142 -34.5q96 0 140.5 34t52.5 111h81q-9 -137 -74.5 -199.5t-199.5 -62.5
q-133 0 -199 63t-75 199z" />
    <glyph glyph-name="gbreve" unicode="&#x11f;" 
d="M231 629q0 -155 85.5 -262t207.5 -107q110 0 181 82.5t71 214.5q0 158 -84.5 262.5t-210.5 104.5q-107 0 -178.5 -83t-71.5 -212zM535 -18q-53 -50 -77 -93.5t-24 -89.5q0 -61 41.5 -101t106.5 -40q71 0 112 39.5t41 107.5q0 67 -54 115t-146 62zM51 53q76 34 136.5 77.5
t111.5 98.5q-103 51 -161 145t-58 210q0 174 124 292.5t300 118.5q60 0 120.5 -15.5t112.5 -45.5q41 86 81.5 115.5t109.5 29.5q10 0 22 -1.5t37 -6.5l-26 -110q-25 9 -44 13.5t-36 4.5q-29 0 -47.5 -16.5t-18.5 -42.5q0 -9 56.5 -109.5t56.5 -210.5q0 -182 -121.5 -297
t-308.5 -115q-33 0 -65 4t-61 10q-41 -47 -88 -86t-102 -71q70 10 139.5 15.5t137.5 5.5q201 0 311.5 -60.5t110.5 -169.5q0 -100 -91 -177t-215 -77q-125 0 -201.5 55t-76.5 142q0 57 42 111.5t122 101.5q-10 0 -32.5 1t-35.5 1q-54 0 -123.5 -9t-150.5 -26zM238 1411h79
q6 -76 53 -110.5t142 -34.5q96 0 140.5 34t52.5 111h81q-9 -137 -74.5 -199.5t-199.5 -62.5q-133 0 -199 63t-75 199z" />
    <glyph glyph-name="Idotaccent" unicode="&#x130;" horiz-adv-x="612" 
d="M94 1395h422v-82h-133v-1233h133v-80h-422v80h133v1233h-133v82zM307 1784q39 0 66.5 -27t27.5 -65q0 -40 -27 -67.5t-67 -27.5q-38 0 -65 28t-27 67q0 37 27.5 64.5t64.5 27.5z" />
    <glyph glyph-name="Scedilla" unicode="&#x15e;" horiz-adv-x="1124" 
d="M938 1317l51 55l51 -39l-133 -168q-97 86 -182 125t-174 39q-116 0 -194 -65.5t-78 -159.5q0 -130 303 -254l14 -6l17 -7q384 -155 384 -397q0 -187 -148 -328t-353 -141q-122 0 -243.5 55.5t-225.5 157.5l127 129q94 -114 201.5 -174.5t213.5 -60.5q130 0 220 81t90 197
q0 103 -66 172t-252 144l-8 3q-387 153 -387 355q0 164 126 277.5t310 113.5q80 0 165.5 -26.5t170.5 -77.5zM530 0h66v-111h20q103 0 160 -44t57 -124q0 -89 -56.5 -134.5t-168.5 -45.5q-56 0 -115.5 9.5t-138.5 31.5l2 76q89 -19 142.5 -27t93.5 -8q64 0 97.5 23.5
t33.5 68.5q0 54 -34.5 78.5t-109.5 24.5q-18 0 -28.5 -0.5t-20.5 -1.5v184z" />
    <glyph glyph-name="scedilla" unicode="&#x15f;" horiz-adv-x="768" 
d="M670 909l-68 -104q-67 56 -127 84.5t-113 28.5q-64 0 -105.5 -37t-41.5 -95q0 -89 184 -170l76 -34q124 -59 173.5 -123t49.5 -162q0 -126 -104 -226t-250 -100q-91 0 -175.5 39t-150.5 111l103 119q89 -89 160.5 -130.5t136.5 -41.5q72 0 119 47.5t47 120.5
q0 66 -39.5 111.5t-167.5 105.5l-5 2q-266 124 -266 284q0 110 83 183t208 73q70 0 137 -21t136 -65zM352 0h66v-111h20q103 0 160 -44t57 -124q0 -89 -56.5 -134.5t-168.5 -45.5q-56 0 -115.5 9.5t-138.5 31.5l2 76q89 -19 142.5 -27t93.5 -8q64 0 97.5 23.5t33.5 68.5
q0 54 -34.5 78.5t-109.5 24.5q-18 0 -28.5 -0.5t-20.5 -1.5v184z" />
    <glyph glyph-name="Cacute" unicode="&#x106;" horiz-adv-x="1290" 
d="M1137 1264l63 55l55 -57l-270 -254l-59 59q27 24 40 51t13 60q0 68 -71.5 119t-174.5 51q-218 0 -366 -169.5t-148 -426.5q0 -276 162 -461t401 -185q111 0 213 44.5t201 136.5l55 -62q-103 -122 -240 -188t-286 -66q-281 0 -463 198.5t-182 508.5q0 316 191 530.5
t468 214.5q115 0 215 -40t183 -119zM840 1882h152l-269 -350h-92z" />
    <glyph glyph-name="cacute" unicode="&#x107;" horiz-adv-x="1006" 
d="M911 842l-106 -109q-59 86 -132 131t-153 45q-137 0 -226 -102t-89 -262q0 -189 111.5 -322t267.5 -133q77 0 154.5 34t140.5 95l43 -47q-73 -97 -175 -149t-221 -52q-203 0 -326.5 133.5t-123.5 354.5q0 226 142.5 381t346.5 155q101 0 185 -37t161 -116zM641 1456h152
l-269 -350h-92z" />
    <glyph glyph-name="Ccaron" unicode="&#x10c;" horiz-adv-x="1290" 
d="M1137 1264l63 55l55 -57l-270 -254l-59 59q27 24 40 51t13 60q0 68 -71.5 119t-174.5 51q-218 0 -366 -169.5t-148 -426.5q0 -276 162 -461t401 -185q111 0 213 44.5t201 136.5l55 -62q-103 -122 -240 -188t-286 -66q-281 0 -463 198.5t-182 508.5q0 316 191 530.5
t468 214.5q115 0 215 -40t183 -119zM480 1882h92l184 -264l184 264h92l-200 -350h-152z" />
    <glyph glyph-name="ccaron" unicode="&#x10d;" horiz-adv-x="1006" 
d="M911 842l-106 -109q-59 86 -132 131t-153 45q-137 0 -226 -102t-89 -262q0 -189 111.5 -322t267.5 -133q77 0 154.5 34t140.5 95l43 -47q-73 -97 -175 -149t-221 -52q-203 0 -326.5 133.5t-123.5 354.5q0 226 142.5 381t346.5 155q101 0 185 -37t161 -116zM281 1456h92
l184 -264l184 264h92l-200 -350h-152z" />
    <glyph glyph-name="dcroat" unicode="&#x111;" horiz-adv-x="1147" 
d="M807 651q0 124 -70 194t-192 70q-137 0 -227.5 -112t-90.5 -285q0 -189 92.5 -317.5t227.5 -128.5q68 0 137 38.5t123 106.5v434zM1053 1413v-76l-101 -37v-157h195v-80h-195v-989h111v-74h-242l-14 115q-79 -72 -160.5 -108t-163.5 -36q-178 0 -292.5 137t-114.5 353
q0 223 133.5 373.5t318.5 150.5q75 0 145 -24.5t134 -73.5v176h-291v80h291v112l-111 -32v71z" />
    <glyph glyph-name="sfthyphen" unicode="&#xad;" horiz-adv-x="645" 
d="M76 559h493v-133h-493v133z" />
    <glyph glyph-name="periodcentered" unicode="&#x2219;" horiz-adv-x="508" 
d="M254 698q38 0 65 -26.5t27 -65.5q0 -38 -27.5 -65t-64.5 -27t-64.5 27.5t-27.5 64.5q0 38 27 65t65 27z" />
    <glyph glyph-name="Euro" horiz-adv-x="1014" 
d="M979 215q-81 -128 -172.5 -186t-210.5 -58q-180 0 -292.5 135t-133.5 386h-150l19 81h127q0 44 0.5 66.5t0.5 40.5h-147l19 80h137q31 220 145.5 350.5t274.5 130.5q85 0 148.5 -30.5t115.5 -98.5l64 55l55 -57l-260 -244l-60 60q28 24 41 51t13 59q0 58 -33.5 93.5
t-89.5 35.5q-122 0 -211.5 -117.5t-95.5 -287.5h438l-19 -80h-417q1 -20 3 -42t7 -64l379 -1l-19 -81h-346q33 -176 133 -285t222 -109q75 0 135 39t116 125z" />
    <glyph glyph-name="Euro" unicode="&#x20ac;" horiz-adv-x="1014" 
d="M979 215q-81 -128 -172.5 -186t-210.5 -58q-180 0 -292.5 135t-133.5 386h-150l19 81h127q0 44 0.5 66.5t0.5 40.5h-147l19 80h137q31 220 145.5 350.5t274.5 130.5q85 0 148.5 -30.5t115.5 -98.5l64 55l55 -57l-260 -244l-60 60q28 24 41 51t13 59q0 58 -33.5 93.5
t-89.5 35.5q-122 0 -211.5 -117.5t-95.5 -287.5h438l-19 -80h-417q1 -20 3 -42t7 -64l379 -1l-19 -81h-346q33 -176 133 -285t222 -109q75 0 135 39t116 125z" />
    </font>
</defs>
</svg>
