<?xml version="1.0" encoding="utf-8"?>
<!-- Generator: Adobe Illustrator 16.0.0, SVG Export Plug-In . SVG Version: 6.00 Build 0)  -->
<!DOCTYPE svg PUBLIC "-//W3C//DTD SVG 1.1//EN" "http://www.w3.org/Graphics/SVG/1.1/DTD/svg11.dtd">
<svg version="1.1" id="Layer_1" xmlns="http://www.w3.org/2000/svg" xmlns:xlink="http://www.w3.org/1999/xlink" x="0px" y="0px"
	 width="36px" height="36px" viewBox="0 0 36 36" enable-background="new 0 0 36 36" xml:space="preserve">
<rect x="17.542" y="9.75" fill="#FFFFFF" width="0.917" height="16.5"/>
<rect x="14.759" y="8.866" transform="matrix(0.7074 0.7068 -0.7068 0.7074 13.6357 -6.955)" fill="#FFFFFF" width="0.917" height="8.25"/>
<rect x="16.657" y="12.533" transform="matrix(0.7071 0.7071 -0.7071 0.7071 15.2731 -10.8906)" fill="#FFFFFF" width="8.25" height="0.917"/>
<path fill="#FFFFFF" d="M18,34.5C8.902,34.5,1.5,27.098,1.5,18S8.902,1.5,18,1.5S34.5,8.902,34.5,18S27.098,34.5,18,34.5z M18,2.417
	C9.407,2.417,2.417,9.407,2.417,18S9.407,33.583,18,33.583S33.583,26.593,33.583,18S26.593,2.417,18,2.417z"/>
</svg>
