<?xml version="1.0" encoding="utf-8"?>
<!-- Generator: Adobe Illustrator 16.0.0, SVG Export Plug-In . SVG Version: 6.00 Build 0)  -->
<!DOCTYPE svg PUBLIC "-//W3C//DTD SVG 1.1//EN" "http://www.w3.org/Graphics/SVG/1.1/DTD/svg11.dtd">
<svg version="1.1" id="Layer_1" xmlns="http://www.w3.org/2000/svg" xmlns:xlink="http://www.w3.org/1999/xlink" x="0px" y="0px"
	 width="50px" height="50px" viewBox="0 0 50 50" enable-background="new 0 0 50 50" xml:space="preserve">
<g>
	<g>
		<path d="M25,39.11c-0.099,0-0.198-0.026-0.287-0.077L7.481,29.102c-0.413-0.267-0.856-0.573-1.234-0.834l-0.125-0.086
			l-1.344-0.984c-0.018-0.013-0.034-0.026-0.05-0.041c-1.952-1.799-2.822-3.721-2.822-6.23c0-4.586,3.225-9.491,9.39-9.992
			c4.892-0.396,9.364,1.943,13.705,7.188c4.341-5.245,8.816-7.581,13.705-7.188c6.165,0.501,9.391,5.406,9.391,9.992
			c0,2.509-0.87,4.43-2.822,6.23c-0.016,0.015-0.032,0.028-0.05,0.041l-1.444,1.054c-0.384,0.265-0.838,0.58-1.235,0.836
			l-17.257,9.948C25.198,39.084,25.099,39.11,25,39.11z M5.481,26.29l1.418,1.033c0.37,0.255,0.803,0.555,1.181,0.8L25,37.874
			l16.945-9.767c0.361-0.235,0.805-0.542,1.181-0.801l0.101-0.07l1.292-0.946c1.702-1.578,2.429-3.184,2.429-5.364
			c0-4.061-2.863-8.403-8.335-8.848c-4.719-0.386-8.878,1.927-13.163,7.313c-0.109,0.137-0.274,0.216-0.449,0.216l0,0
			c-0.174,0-0.34-0.081-0.449-0.216c-4.284-5.387-8.444-7.7-13.163-7.313c-5.472,0.445-8.334,4.787-8.334,8.848
			C3.053,23.106,3.78,24.712,5.481,26.29z"/>
	</g>
	<g>
		<path d="M42.8,20.307c-0.317,0-0.574-0.258-0.574-0.575c0-0.425-0.075-0.842-0.222-1.238c-0.56-1.503-2.076-2.514-3.772-2.514
			c-0.316,0-0.574-0.257-0.574-0.574s0.258-0.574,0.574-0.574c2.174,0,4.123,1.311,4.849,3.262c0.194,0.525,0.293,1.076,0.293,1.638
			C43.374,20.049,43.116,20.307,42.8,20.307z"/>
	</g>
</g>
</svg>
