<?xml version="1.0" encoding="utf-8"?>
<!-- Generator: Adobe Illustrator 16.0.0, SVG Export Plug-In . SVG Version: 6.00 Build 0)  -->
<!DOCTYPE svg PUBLIC "-//W3C//DTD SVG 1.1//EN" "http://www.w3.org/Graphics/SVG/1.1/DTD/svg11.dtd">
<svg version="1.1" id="Layer_1" xmlns="http://www.w3.org/2000/svg" xmlns:xlink="http://www.w3.org/1999/xlink" x="0px" y="0px"
	 width="50px" height="50px" viewBox="0 0 50 50" enable-background="new 0 0 50 50" xml:space="preserve">
<g>
	<g>
		<path d="M2.004,43.925c-0.268,0-0.485-0.217-0.485-0.485V16.636c0-6.193,4.746-10.864,11.038-10.864
			c0.13,0,3.166,0.034,4.952,1.694c0.196,0.182,0.208,0.489,0.025,0.685c-0.183,0.196-0.489,0.208-0.686,0.025
			c-1.506-1.399-4.267-1.435-4.294-1.435c-5.737,0-10.065,4.254-10.065,9.895V43.44C2.489,43.708,2.272,43.925,2.004,43.925z"/>
	</g>
	<g>
		<path d="M12.558,30.341c-3.999,0-7.253-3.254-7.253-7.253v-2.56c0-0.268,0.217-0.485,0.485-0.485c0.268,0,0.485,0.217,0.485,0.485
			v2.56c0,3.465,2.818,6.283,6.283,6.283c3.464,0,6.283-2.818,6.283-6.283v-8.499c0-1.869-0.824-3.628-2.26-4.827
			c-0.206-0.171-0.233-0.477-0.062-0.683c0.171-0.205,0.478-0.233,0.683-0.062c1.658,1.384,2.608,3.414,2.608,5.571v8.499
			C19.81,27.087,16.557,30.341,12.558,30.341z"/>
	</g>
	<g>
		<path d="M4.843,21.043c-0.268,0-0.485-0.217-0.485-0.485c0-0.268,0.217-0.485,0.485-0.485c0.313,0,0.617-0.01,0.915-0.029
			c7.558-0.48,10.122-6.952,10.942-12.297c0.041-0.265,0.282-0.447,0.553-0.406c0.265,0.041,0.446,0.288,0.406,0.553
			c-1.236,8.053-5.44,12.711-11.838,13.117C5.503,21.033,5.178,21.043,4.843,21.043z"/>
	</g>
	<g>
		<path d="M12.588,35.309c-2.371,0-3.436-1.612-3.672-2.464c-0.011-0.042-0.018-0.085-0.018-0.129v-3.354
			c0-0.268,0.217-0.485,0.485-0.485s0.485,0.217,0.485,0.485v3.278c0.105,0.298,0.708,1.7,2.692,1.7c2.006,0,2.612-1.396,2.721-1.7
			v-3.278c0-0.268,0.217-0.485,0.485-0.485s0.485,0.217,0.485,0.485v3.354c0,0.044-0.006,0.087-0.018,0.129
			C15.998,33.697,14.933,35.309,12.588,35.309z"/>
	</g>
	<g>
		<path d="M23.125,44.228c-0.268,0-0.485-0.217-0.485-0.485v-7.306c0-3.03-3.458-4.615-6.873-4.615
			c-0.268,0-0.485-0.217-0.485-0.485c0-0.268,0.217-0.485,0.485-0.485c3.897,0,7.843,1.918,7.843,5.584v7.306
			C23.609,44.011,23.392,44.228,23.125,44.228z"/>
	</g>
	<g>
		<path d="M5.79,41.338H2.004c-0.268,0-0.485-0.218-0.485-0.485s0.217-0.485,0.485-0.485H5.79c2.869,0,3.109-2.059,3.109-3.989
			v-7.312c0-0.268,0.217-0.485,0.485-0.485s0.485,0.217,0.485,0.485v7.312C9.869,37.863,9.869,41.338,5.79,41.338z"/>
	</g>
	<g>
		<path d="M17.856,32.013c-0.268,0-0.485-0.217-0.485-0.485v-4.23c0-0.268,0.217-0.485,0.485-0.485s0.485,0.217,0.485,0.485v4.23
			C18.341,31.796,18.124,32.013,17.856,32.013z"/>
	</g>
	<g>
		<path d="M36.921,28.907c-4,0-7.253-3.254-7.253-7.253v-8.499c0-2.157,0.951-4.188,2.608-5.571
			c0.205-0.172,0.512-0.144,0.683,0.061c0.172,0.206,0.144,0.511-0.062,0.683c-1.436,1.199-2.26,2.958-2.26,4.827v8.499
			c0,3.464,2.819,6.283,6.284,6.283c3.464,0,6.283-2.819,6.283-6.283v-2.56c0-0.268,0.217-0.485,0.485-0.485
			s0.485,0.217,0.485,0.485v2.56C44.174,25.653,40.92,28.907,36.921,28.907z"/>
	</g>
	<g>
		<path d="M41.255,27.338c-0.139,0-0.277-0.06-0.373-0.174c-0.171-0.206-0.144-0.511,0.062-0.683c1.436-1.199,2.26-2.958,2.26-4.827
			v-8.499c0-3.464-2.818-6.283-6.283-6.283c-3.465,0-6.283,2.819-6.283,6.283v2.56c0,0.268-0.217,0.485-0.485,0.485
			s-0.485-0.217-0.485-0.485v-2.56c0-3.999,3.254-7.253,7.253-7.253c3.999,0,7.252,3.254,7.252,7.253v8.499
			c0,2.157-0.951,4.188-2.608,5.571C41.475,27.301,41.365,27.338,41.255,27.338z"/>
	</g>
	<g>
		<path d="M43.689,16.963c-0.069,0-0.14-0.015-0.207-0.047c-3.538-1.672-5.996-5.272-7.106-10.412
			c-0.057-0.261,0.11-0.52,0.371-0.576c0.26-0.057,0.52,0.109,0.577,0.372c0.728,3.371,2.46,7.796,6.573,9.74
			c0.242,0.114,0.345,0.403,0.231,0.646C44.046,16.861,43.871,16.963,43.689,16.963z"/>
	</g>
	<g>
		<path d="M30.154,16.956c-0.181,0-0.355-0.102-0.438-0.277c-0.115-0.242-0.012-0.531,0.229-0.646
			c3.293-1.563,5.5-4.838,6.559-9.735c0.056-0.262,0.315-0.429,0.576-0.372c0.262,0.057,0.428,0.315,0.371,0.577
			c-1.108,5.132-3.561,8.731-7.09,10.406C30.294,16.941,30.224,16.956,30.154,16.956z"/>
	</g>
	<g>
		<path d="M36.917,33.875c-2.372,0-3.437-1.612-3.672-2.464c-0.012-0.042-0.018-0.085-0.018-0.129v-3.354
			c0-0.268,0.217-0.485,0.485-0.485c0.268,0,0.485,0.217,0.485,0.485v3.278c0.105,0.298,0.708,1.699,2.693,1.699
			c2.005,0,2.614-1.407,2.719-1.7v-3.278c0-0.268,0.217-0.485,0.485-0.485s0.485,0.217,0.485,0.485v3.354
			c0,0.043-0.006,0.087-0.018,0.129C40.326,32.263,39.261,33.875,36.917,33.875z"/>
	</g>
	<g>
		<path d="M26.354,44.228c-0.268,0-0.485-0.217-0.485-0.485v-8.74c0-3.666,3.946-5.584,7.843-5.584c0.268,0,0.485,0.217,0.485,0.485
			s-0.217,0.485-0.485,0.485c-3.416,0-6.874,1.585-6.874,4.614v8.74C26.839,44.011,26.622,44.228,26.354,44.228z"/>
	</g>
	<g>
		<path d="M47.996,44.228c-0.268,0-0.485-0.217-0.485-0.485v-8.74c0-3.029-3.458-4.614-6.873-4.614
			c-0.268,0-0.485-0.217-0.485-0.485s0.218-0.485,0.485-0.485c3.897,0,7.843,1.918,7.843,5.584v8.74
			C48.48,44.011,48.263,44.228,47.996,44.228z"/>
	</g>
	<g>
		<path d="M40.095,31.766c-0.268,0-0.485-0.217-0.485-0.485v-3.648c0-0.268,0.217-0.485,0.485-0.485s0.485,0.217,0.485,0.485v3.648
			C40.58,31.549,40.362,31.766,40.095,31.766z"/>
	</g>
</g>
</svg>
