<?xml version="1.0" encoding="utf-8"?>
<!-- Generator: Adobe Illustrator 16.0.0, SVG Export Plug-In . SVG Version: 6.00 Build 0)  -->
<!DOCTYPE svg PUBLIC "-//W3C//DTD SVG 1.1//EN" "http://www.w3.org/Graphics/SVG/1.1/DTD/svg11.dtd">
<svg version="1.1" id="Layer_1" xmlns="http://www.w3.org/2000/svg" xmlns:xlink="http://www.w3.org/1999/xlink" x="0px" y="0px"
	 width="20px" height="20px" viewBox="0 0 20 20" enable-background="new 0 0 20 20" xml:space="preserve">
<path fill="#231F20" d="M13.27,0.967c-3.127,0-5.671,2.544-5.671,5.671c0,1.512,0.598,2.884,1.565,3.901l-8.095,8.095l0.707,0.707
	l8.14-8.141c0.94,0.693,2.098,1.108,3.354,1.108c3.128,0,5.672-2.544,5.672-5.671S16.397,0.967,13.27,0.967z M13.27,11.31
	c-2.576,0-4.671-2.096-4.671-4.671s2.096-4.671,4.671-4.671c2.576,0,4.672,2.096,4.672,4.671S15.846,11.31,13.27,11.31z"/>
</svg>
