<?xml version="1.0" encoding="utf-8"?>
<!-- Generator: Adobe Illustrator 16.0.0, SVG Export Plug-In . SVG Version: 6.00 Build 0)  -->
<!DOCTYPE svg PUBLIC "-//W3C//DTD SVG 1.1//EN" "http://www.w3.org/Graphics/SVG/1.1/DTD/svg11.dtd">
<svg version="1.1" id="Layer_1" xmlns="http://www.w3.org/2000/svg" xmlns:xlink="http://www.w3.org/1999/xlink" x="0px" y="0px"
	 width="50px" height="50px" viewBox="0 0 50 50" enable-background="new 0 0 50 50" xml:space="preserve">
<g>
	<g>
		<g>
			<path fill="none" stroke="#000000" stroke-width="2.0308" stroke-linejoin="round" stroke-miterlimit="10" d="M17.143,28.805"/>
		</g>
		<g>
			<path fill="none" stroke="#000000" stroke-width="2.0308" stroke-linejoin="round" stroke-miterlimit="10" d="M2.399,28.805"/>
		</g>
		<g>
			<path d="M15.693,48.713c-7.119,0-12.911-5.792-12.911-12.911v-8.515c0-0.295,0.24-0.535,0.535-0.535s0.535,0.24,0.535,0.535
				v8.515c0,6.529,5.312,11.841,11.841,11.841s11.841-5.312,11.841-11.841v-8.515c0-0.295,0.24-0.535,0.535-0.535
				c0.295,0,0.535,0.24,0.535,0.535v8.515C28.604,42.921,22.812,48.713,15.693,48.713z"/>
		</g>
		<g>
			<path d="M21.31,28.617H10.366v-1.07H21.31c0.684,0,1.24-0.557,1.24-1.241c0-0.684-0.556-1.24-1.24-1.24H10.851v-1.07H21.31
				c1.274,0,2.311,1.037,2.311,2.31C23.62,27.58,22.583,28.617,21.31,28.617z"/>
		</g>
		<g>
			<circle cx="16.221" cy="26.306" r="0.605"/>
		</g>
		<g>
			<circle cx="18.285" cy="26.306" r="0.604"/>
		</g>
		<g>
			<circle cx="20.347" cy="26.306" r="0.605"/>
		</g>
		<g>
			<path d="M14.603,5.707h-1.07V4.705c0-1.112,0.904-2.017,2.016-2.017s2.016,0.905,2.016,2.017v0.901h-1.07V4.705
				c0-0.522-0.424-0.946-0.946-0.946c-0.521,0-0.946,0.424-0.946,0.946V5.707z"/>
		</g>
		<g>
			<path d="M4.042,35.704c-0.226,0-0.436-0.145-0.51-0.371c-0.09-0.281,0.064-0.583,0.345-0.673l2.966-0.957l0.9-5.704
				c0.046-0.292,0.319-0.491,0.612-0.445c0.292,0.046,0.491,0.32,0.445,0.612l-0.952,6.028c-0.031,0.199-0.172,0.364-0.364,0.426
				l-3.278,1.058C4.151,35.695,4.096,35.704,4.042,35.704z"/>
		</g>
		<g>
			<path d="M27.533,35.704c-0.055,0-0.11-0.008-0.165-0.026L24.09,34.62c-0.192-0.062-0.333-0.227-0.364-0.426l-0.952-6.028
				c-0.046-0.292,0.153-0.566,0.445-0.612c0.292-0.047,0.565,0.153,0.612,0.445l0.9,5.704l2.966,0.957
				c0.281,0.091,0.436,0.393,0.345,0.673C27.969,35.559,27.759,35.704,27.533,35.704z"/>
		</g>
		<g>
			<path d="M25.679,28.457h-3.171v-1.07h3.171c0.9,0,1.591-0.255,2.053-0.759c0.837-0.912,0.722-2.375,0.72-2.391l-0.002-5.344
				c0-7.031-5.722-12.751-12.755-12.751c-7.033,0-12.754,5.72-12.754,12.751v5.297c-0.004,0.062-0.119,1.527,0.718,2.438
				c0.462,0.504,1.153,0.759,2.053,0.759h4.104c0.006-1.063,0.206-3.348,1.671-4.945c1.014-1.106,2.431-1.667,4.209-1.667
				c3.313,0,4.727,1.94,5.328,3.569l-1.003,0.371c-0.704-1.904-2.159-2.87-4.325-2.87c-1.464,0-2.614,0.442-3.417,1.316
				c-1.607,1.749-1.381,4.686-1.378,4.716c0.012,0.149-0.038,0.297-0.14,0.407c-0.102,0.11-0.244,0.173-0.394,0.173H5.711
				c-1.216,0-2.174-0.375-2.848-1.113c-1.154-1.266-0.998-3.125-0.991-3.204l-0.002-5.248c0-7.62,6.2-13.82,13.822-13.821h0h0
				c0,0,0.001,0,0.001,0c7.623,0,13.825,6.201,13.825,13.821v5.297c0.004,0.03,0.161,1.889-0.993,3.155
				C27.853,28.083,26.895,28.457,25.679,28.457z"/>
		</g>
	</g>
	<g>
		<path d="M36.849,12.514c-0.106,0-0.208-0.043-0.283-0.119l-1.08-1.107h-1.024c-2.757,0-5-2.243-5-5s2.243-5,5-5h8.675
			c2.757,0,5,2.243,5,5s-2.243,5-5,5h-4.926l-1.079,1.107C37.057,12.471,36.955,12.514,36.849,12.514z M34.462,2.077
			c-2.321,0-4.21,1.889-4.21,4.21s1.889,4.21,4.21,4.21h1.191c0.107,0,0.208,0.043,0.283,0.119l0.913,0.937l0.913-0.937
			c0.074-0.076,0.176-0.119,0.283-0.119h5.093c2.321,0,4.21-1.889,4.21-4.21s-1.889-4.21-4.21-4.21H34.462z"/>
	</g>
	<g>
		<path d="M31.851,8.491c-0.082,0-0.164-0.039-0.215-0.112c-0.433-0.615-0.662-1.338-0.662-2.092c0-0.64,0.168-1.269,0.488-1.82
			c0.073-0.126,0.234-0.168,0.36-0.096c0.125,0.073,0.169,0.234,0.096,0.36C31.644,5.202,31.5,5.74,31.5,6.287
			c0,0.645,0.196,1.263,0.566,1.789c0.083,0.119,0.055,0.283-0.064,0.367C31.956,8.475,31.903,8.491,31.851,8.491z"/>
	</g>
	<g>
		<path d="M32.402,4.002c-0.074,0-0.147-0.031-0.199-0.091c-0.095-0.11-0.083-0.276,0.027-0.372
			c0.659-0.571,1.503-0.885,2.376-0.885c0.146,0,0.264,0.118,0.264,0.263s-0.118,0.264-0.264,0.264
			c-0.747,0-1.468,0.269-2.032,0.757C32.525,3.981,32.463,4.002,32.402,4.002z"/>
	</g>
	<g>
		<g>
			<path d="M38.775,7.026c-0.17,0-0.293-0.129-0.317-0.289l-0.059-0.4c-0.029-0.194,0.083-0.329,0.271-0.353
				c0.512-0.064,0.747-0.223,0.747-0.512V5.461c0-0.265-0.2-0.417-0.54-0.417c-0.253,0-0.471,0.077-0.683,0.236
				c-0.07,0.052-0.165,0.094-0.265,0.094c-0.223,0-0.412-0.188-0.412-0.411c0-0.113,0.046-0.229,0.153-0.318
				c0.311-0.259,0.705-0.424,1.224-0.424c0.847,0,1.423,0.436,1.423,1.218V5.45c0,0.747-0.518,1.052-1.159,1.182L39.14,6.737
				c-0.023,0.153-0.146,0.289-0.317,0.289H38.775z M38.775,7.414c0.294,0,0.512,0.217,0.512,0.5v0.012c0,0.282-0.218,0.5-0.512,0.5
				c-0.293,0-0.511-0.218-0.511-0.5V7.914C38.264,7.631,38.481,7.414,38.775,7.414z"/>
		</g>
	</g>
</g>
</svg>
