<?xml version="1.0" encoding="utf-8"?>
<!-- Generator: Adobe Illustrator 16.0.0, SVG Export Plug-In . SVG Version: 6.00 Build 0)  -->
<!DOCTYPE svg PUBLIC "-//W3C//DTD SVG 1.1//EN" "http://www.w3.org/Graphics/SVG/1.1/DTD/svg11.dtd">
<svg version="1.1" id="Layer_1" xmlns="http://www.w3.org/2000/svg" xmlns:xlink="http://www.w3.org/1999/xlink" x="0px" y="0px"
	 width="50px" height="50px" viewBox="0 0 50 50" enable-background="new 0 0 50 50" xml:space="preserve">
<g>
	<g>
		<path d="M44.808,33.174H5.192c-2.24,0-4.063-1.822-4.063-4.063V12.075c0-2.24,1.823-4.063,4.063-4.063h39.616
			c2.24,0,4.063,1.823,4.063,4.063v17.036C48.871,31.352,47.048,33.174,44.808,33.174z M5.192,9.202
			c-1.584,0-2.873,1.289-2.873,2.873v17.036c0,1.584,1.289,2.873,2.873,2.873h39.616c1.584,0,2.873-1.289,2.873-2.873V12.075
			c0-1.584-1.289-2.873-2.873-2.873H5.192z"/>
	</g>
	<g>
		<path d="M48.128,26.465H1.875c-0.329,0-0.595-0.267-0.595-0.595c0-0.329,0.267-0.595,0.595-0.595h46.254
			c0.329,0,0.595,0.267,0.595,0.595C48.724,26.198,48.457,26.465,48.128,26.465z"/>
	</g>
	<g>
		<circle cx="24.996" cy="28.911" r="0.808"/>
	</g>
	<g>
		<path d="M34.41,41.988c-0.056,0-0.11-0.008-0.161-0.022H15.754c-0.051,0.015-0.105,0.022-0.161,0.022
			c-0.329,0-0.595-0.267-0.595-0.595v-1.417c0-0.736,0.221-1.292,0.658-1.651c0.535-0.442,1.188-0.402,1.409-0.372
			c2.133-0.023,3.861-1.766,3.861-3.905v-1.47c0-0.329,0.267-0.595,0.595-0.595c0.328,0,0.595,0.267,0.595,0.595v1.47
			c0,2.809-2.286,5.095-5.095,5.095c-0.038,0-0.076-0.003-0.113-0.011l0,0c-0.002,0-0.312-0.044-0.499,0.115
			c-0.182,0.154-0.22,0.482-0.22,0.729v0.799h17.626v-0.799c0-0.25-0.039-0.58-0.224-0.733c-0.188-0.155-0.494-0.112-0.496-0.111
			c-0.038,0.008-0.075,0.011-0.113,0.011c-2.809,0-5.095-2.286-5.095-5.095v-1.47c0-0.329,0.267-0.595,0.595-0.595
			s0.595,0.267,0.595,0.595v1.47c0,2.139,1.728,3.881,3.861,3.905c0.223-0.03,0.875-0.069,1.41,0.373
			c0.436,0.359,0.657,0.915,0.657,1.651v1.417C35.005,41.722,34.738,41.988,34.41,41.988z"/>
	</g>
</g>
</svg>
