<?xml version="1.0" encoding="utf-8"?>
<!-- Generator: Adobe Illustrator 16.0.0, SVG Export Plug-In . SVG Version: 6.00 Build 0)  -->
<!DOCTYPE svg PUBLIC "-//W3C//DTD SVG 1.1//EN" "http://www.w3.org/Graphics/SVG/1.1/DTD/svg11.dtd">
<svg version="1.1" id="Layer_1" xmlns="http://www.w3.org/2000/svg" xmlns:xlink="http://www.w3.org/1999/xlink" x="0px" y="0px"
	 width="50px" height="50px" viewBox="0 0 50 50" enable-background="new 0 0 50 50" xml:space="preserve">
<g>
	<g>
		<path d="M13.293,31.465c-0.109,0-0.213-0.044-0.29-0.122l-1.998-2.048H9.069c-4.716,0-8.554-3.837-8.554-8.553
			s3.837-8.553,8.554-8.553h15.352c4.027,0,7.458,2.74,8.343,6.662c0.049,0.218-0.087,0.435-0.305,0.483
			c-0.216,0.05-0.434-0.087-0.483-0.305c-0.789-3.495-3.966-6.031-7.555-6.031H9.069c-4.271,0-7.745,3.474-7.745,7.744
			c0,4.27,3.474,7.745,7.745,7.745h2.107c0.109,0,0.213,0.044,0.29,0.122l1.827,1.873l1.827-1.873
			c0.076-0.078,0.18-0.122,0.29-0.122h2.223c0.223,0,0.404,0.181,0.404,0.404s-0.181,0.404-0.404,0.404H15.58l-1.997,2.048
			C13.507,31.421,13.403,31.465,13.293,31.465z"/>
	</g>
	<g>
		<path d="M4.45,24.579c-0.127,0-0.252-0.06-0.331-0.171c-0.759-1.076-1.16-2.344-1.16-3.666c0-1.122,0.296-2.225,0.856-3.189
			c0.112-0.194,0.358-0.259,0.553-0.147c0.193,0.112,0.259,0.36,0.146,0.553c-0.488,0.841-0.746,1.804-0.746,2.783
			c0,1.155,0.35,2.261,1.012,3.2c0.129,0.182,0.085,0.435-0.097,0.563C4.611,24.555,4.53,24.579,4.45,24.579z"/>
	</g>
	<g>
		<path d="M5.425,16.637c-0.113,0-0.226-0.047-0.306-0.14c-0.146-0.169-0.128-0.424,0.041-0.57c1.155-1,2.634-1.552,4.165-1.552
			c0.223,0,0.405,0.182,0.405,0.405s-0.182,0.404-0.405,0.404c-1.336,0-2.627,0.481-3.636,1.354
			C5.613,16.604,5.519,16.637,5.425,16.637z"/>
	</g>
	<g>
		<path d="M36.706,37.812L36.706,37.812c-0.109,0-0.213-0.044-0.289-0.122l-1.997-2.047h-8.841c-4.716,0-8.554-3.838-8.554-8.555
			c0-4.715,3.837-8.552,8.554-8.552H40.93c4.717,0,8.554,3.837,8.554,8.552c0,4.717-3.837,8.555-8.554,8.555h-1.937l-1.998,2.047
			C36.919,37.768,36.815,37.812,36.706,37.812z M25.579,19.344c-4.271,0-7.745,3.474-7.745,7.743c0,4.271,3.474,7.746,7.745,7.746
			h9.011c0.109,0,0.213,0.044,0.29,0.122l1.826,1.873l1.828-1.873c0.076-0.078,0.18-0.122,0.289-0.122h2.107
			c4.271,0,7.745-3.475,7.745-7.746c0-4.27-3.474-7.743-7.745-7.743H25.579z"/>
	</g>
	<g>
		<path d="M45.55,30.925c-0.081,0-0.162-0.024-0.233-0.074c-0.182-0.128-0.226-0.381-0.097-0.563c0.663-0.939,1.012-2.045,1.012-3.2
			c0-0.979-0.258-1.94-0.746-2.782c-0.112-0.193-0.047-0.441,0.146-0.553c0.192-0.113,0.44-0.047,0.553,0.146
			c0.56,0.964,0.856,2.067,0.856,3.188c0,1.322-0.401,2.59-1.161,3.667C45.802,30.866,45.677,30.925,45.55,30.925z"/>
	</g>
	<g>
		<path d="M44.574,22.983c-0.094,0-0.188-0.032-0.265-0.099c-1.008-0.873-2.299-1.354-3.636-1.354c-0.223,0-0.404-0.182-0.404-0.405
			s0.181-0.404,0.404-0.404c1.531,0,3.01,0.551,4.165,1.551c0.169,0.146,0.188,0.401,0.041,0.57
			C44.8,22.936,44.688,22.983,44.574,22.983z"/>
	</g>
</g>
</svg>
