<?xml version="1.0" encoding="utf-8"?>
<!-- Generator: Adobe Illustrator 16.0.0, SVG Export Plug-In . SVG Version: 6.00 Build 0)  -->
<!DOCTYPE svg PUBLIC "-//W3C//DTD SVG 1.1//EN" "http://www.w3.org/Graphics/SVG/1.1/DTD/svg11.dtd">
<svg version="1.1" id="Layer_1" xmlns="http://www.w3.org/2000/svg" xmlns:xlink="http://www.w3.org/1999/xlink" x="0px" y="0px"
	 width="450.493px" height="68.606px" viewBox="0 0 450.493 68.606" enable-background="new 0 0 450.493 68.606"
	 xml:space="preserve">
<g>
	<g>
		<path d="M11.084,36.167h8.157c3.376,0,5.978,0.727,7.808,2.181c1.832,1.454,2.745,3.509,2.745,6.165
			c0,2.121-0.724,3.9-2.172,5.336c-1.448,1.438-3.432,2.344-5.951,2.72l6.157,6.089h2v1.368h-4.275l-7.148-7.149h-2.376v5.781h2.273
			v1.368h-7.218v-1.368h2.274V37.571h-2.274V36.167z M16.028,37.708v13.63h2.94c2.601,0,4.58-0.589,5.942-1.771
			c1.362-1.179,2.044-2.887,2.044-5.121c0-2.19-0.67-3.859-2.011-5.012c-1.339-1.151-3.285-1.727-5.839-1.727H16.028z"/>
		<path d="M35.528,42.941l1.11,0.239l-0.273,1.436c0.684-0.548,1.402-0.951,2.155-1.214c0.753-0.262,1.562-0.393,2.429-0.393
			c1.743,0,3.021,0.486,3.829,1.461c0.812,0.977,1.217,2.519,1.217,4.627v9.663h1.881v1.266h-4.122l-0.257-2.172
			c-0.719,0.889-1.527,1.557-2.428,2.001c-0.901,0.443-1.888,0.666-2.959,0.666c-1.495,0-2.761-0.543-3.799-1.633
			c-1.036-1.088-1.555-2.438-1.555-4.044c0-1.768,0.71-3.155,2.129-4.165c1.419-1.009,3.396-1.514,5.926-1.514
			c0.365,0,0.771,0.014,1.217,0.043c0.443,0.029,0.934,0.071,1.469,0.128V47.9c0-1.105-0.276-1.969-0.829-2.592
			c-0.553-0.62-1.314-0.932-2.283-0.932c-1.106,0-2.069,0.291-2.892,0.873c-0.819,0.581-1.452,1.431-1.898,2.549l-1.161-0.309
			L35.528,42.941z M43.497,50.567c-0.64-0.067-1.129-0.112-1.469-0.136c-0.345-0.022-0.637-0.034-0.874-0.034
			c-1.79,0-3.164,0.365-4.122,1.095c-0.957,0.73-1.438,1.778-1.438,3.146c0,1.22,0.337,2.201,1.011,2.941
			c0.673,0.741,1.562,1.112,2.668,1.112c1.266,0,2.285-0.439,3.061-1.317c0.776-0.877,1.163-2.058,1.163-3.539V50.567z"/>
		<path d="M55.9,43.18h0.205l0.068,2.668c1.187-0.958,2.277-1.671,3.275-2.139c0.998-0.467,1.913-0.7,2.745-0.7
			c0.946,0,1.81,0.264,2.591,0.795c0.78,0.529,1.331,1.235,1.649,2.112c1.209-0.992,2.311-1.725,3.31-2.198
			c0.997-0.473,1.93-0.709,2.797-0.709c1.437,0,2.594,0.447,3.472,1.343s1.316,2.089,1.316,3.583V58.76h1.898v1.266h-6.276V58.76
			h1.898V47.968c0-0.958-0.263-1.688-0.788-2.189c-0.522-0.501-1.288-0.752-2.29-0.752c-0.776,0-1.603,0.208-2.479,0.624
			c-0.878,0.416-1.723,0.995-2.531,1.736V58.76h1.882v1.266h-6.261V58.76h1.881V47.968c0-0.958-0.262-1.688-0.787-2.189
			c-0.523-0.501-1.288-0.752-2.291-0.752c-0.765,0-1.588,0.208-2.473,0.624c-0.883,0.416-1.729,0.995-2.538,1.736V58.76h1.898v1.266
			h-6.278V58.76h1.9V45.25l-1.9,0.599v-1.3L55.9,43.18z"/>
		<path d="M91.597,43.009c2.521,0,4.609,0.823,6.269,2.471c1.659,1.648,2.488,3.743,2.488,6.285c0,2.531-0.832,4.624-2.496,6.277
			c-1.666,1.652-3.753,2.479-6.261,2.479c-2.52,0-4.608-0.826-6.268-2.479c-1.659-1.653-2.489-3.746-2.489-6.277
			s0.83-4.623,2.489-6.276S89.077,43.009,91.597,43.009z M91.426,44.222c-1.769,0-3.178,0.629-4.233,1.882
			c-1.054,1.254-1.58,2.941-1.58,5.062c0,2.304,0.597,4.232,1.794,5.79c1.197,1.557,2.685,2.334,4.464,2.334
			c1.733,0,3.118-0.627,4.156-1.882c1.038-1.254,1.556-2.941,1.556-5.062c0-2.292-0.597-4.219-1.795-5.781
			C94.59,45.003,93.137,44.222,91.426,44.222z"/>
		<path d="M119.374,47.935V58.76h1.899v1.266h-6.275V58.76h1.896V47.968c0-0.958-0.273-1.688-0.82-2.189
			c-0.548-0.501-1.339-0.752-2.377-0.752c-0.821,0-1.688,0.208-2.6,0.624s-1.773,0.995-2.583,1.736V58.76h1.899v1.266h-6.277V58.76
			h1.897V45.25l-1.897,0.599v-1.3l4.104-1.368h0.205l0.068,2.668c1.187-0.958,2.281-1.671,3.284-2.139
			c1.004-0.467,1.932-0.7,2.787-0.7c1.437,0,2.593,0.447,3.472,1.343C118.936,45.248,119.374,46.441,119.374,47.935z"/>
		<path d="M127.622,42.941l1.111,0.239l-0.273,1.436c0.684-0.548,1.402-0.951,2.154-1.214c0.753-0.262,1.563-0.393,2.43-0.393
			c1.743,0,3.021,0.486,3.83,1.461c0.81,0.977,1.215,2.519,1.215,4.627v9.663h1.882v1.266h-4.123l-0.257-2.172
			c-0.718,0.889-1.527,1.557-2.428,2.001c-0.901,0.443-1.887,0.666-2.959,0.666c-1.494,0-2.76-0.543-3.797-1.633
			c-1.038-1.088-1.556-2.438-1.556-4.044c0-1.768,0.708-3.155,2.129-4.165c1.419-1.009,3.394-1.514,5.926-1.514
			c0.364,0,0.769,0.014,1.215,0.043c0.445,0.029,0.935,0.071,1.47,0.128V47.9c0-1.105-0.276-1.969-0.829-2.592
			c-0.553-0.62-1.314-0.932-2.284-0.932c-1.104,0-2.068,0.291-2.889,0.873c-0.821,0.581-1.454,1.431-1.898,2.549l-1.162-0.309
			L127.622,42.941z M135.591,50.567c-0.639-0.067-1.129-0.112-1.47-0.136c-0.343-0.022-0.633-0.034-0.873-0.034
			c-1.791,0-3.163,0.365-4.122,1.095c-0.956,0.73-1.436,1.778-1.436,3.146c0,1.22,0.335,2.201,1.009,2.941
			c0.673,0.741,1.56,1.112,2.668,1.112c1.266,0,2.286-0.439,3.062-1.317c0.774-0.877,1.162-2.058,1.162-3.539V50.567z"/>
		<path d="M171.29,38.408l1.079-0.94l0.94,0.975l-4.617,4.345l-1.009-1.009c0.307-0.274,0.535-0.565,0.684-0.872
			c0.147-0.309,0.223-0.65,0.223-1.026c0-0.775-0.408-1.454-1.223-2.036c-0.816-0.581-1.811-0.872-2.984-0.872
			c-2.485,0-4.572,0.966-6.26,2.898c-1.688,1.934-2.532,4.365-2.532,7.295c0,3.147,0.924,5.775,2.771,7.884
			c1.848,2.109,4.131,3.165,6.858,3.165c1.266,0,2.479-0.254,3.642-0.762c1.164-0.507,2.31-1.285,3.438-2.335l0.94,1.062
			c-1.175,1.391-2.542,2.462-4.104,3.214c-1.562,0.754-3.192,1.129-4.892,1.129c-3.204,0-5.842-1.131-7.918-3.394
			c-2.076-2.264-3.113-5.163-3.113-8.697c0-3.603,1.09-6.627,3.266-9.073c2.18-2.445,4.846-3.668,8.006-3.668
			c1.311,0,2.536,0.229,3.676,0.684C169.303,36.83,170.345,37.508,171.29,38.408z"/>
		<path d="M178.82,42.941l1.111,0.239l-0.274,1.436c0.685-0.548,1.402-0.951,2.154-1.214c0.755-0.262,1.562-0.393,2.43-0.393
			c1.744,0,3.021,0.486,3.831,1.461c0.81,0.977,1.215,2.519,1.215,4.627v9.663h1.882v1.266h-4.123l-0.257-2.172
			c-0.718,0.889-1.527,1.557-2.429,2.001c-0.902,0.443-1.886,0.666-2.957,0.666c-1.495,0-2.761-0.543-3.798-1.633
			c-1.038-1.088-1.557-2.438-1.557-4.044c0-1.768,0.71-3.155,2.129-4.165c1.42-1.009,3.396-1.514,5.926-1.514
			c0.365,0,0.771,0.014,1.216,0.043c0.443,0.029,0.935,0.071,1.47,0.128V47.9c0-1.105-0.276-1.969-0.831-2.592
			c-0.552-0.62-1.312-0.932-2.28-0.932c-1.106,0-2.07,0.291-2.891,0.873c-0.822,0.581-1.453,1.431-1.898,2.549l-1.165-0.309
			L178.82,42.941z M186.789,50.567c-0.638-0.067-1.129-0.112-1.47-0.136c-0.344-0.022-0.634-0.034-0.872-0.034
			c-1.791,0-3.164,0.365-4.123,1.095c-0.957,0.73-1.436,1.778-1.436,3.146c0,1.22,0.335,2.201,1.007,2.941
			c0.675,0.741,1.562,1.112,2.671,1.112c1.266,0,2.284-0.439,3.06-1.317c0.775-0.877,1.163-2.058,1.163-3.539V50.567z"/>
		<path d="M210.327,47.935V58.76h1.898v1.266h-6.276V58.76h1.897V47.968c0-0.958-0.272-1.688-0.82-2.189
			c-0.549-0.501-1.341-0.752-2.378-0.752c-0.82,0-1.687,0.208-2.599,0.624c-0.913,0.416-1.773,0.995-2.583,1.736V58.76h1.898v1.266
			h-6.276V58.76h1.897V45.25l-1.897,0.599v-1.3l4.105-1.368h0.204l0.068,2.668c1.187-0.958,2.281-1.671,3.284-2.139
			c1.003-0.467,1.932-0.7,2.787-0.7c1.437,0,2.594,0.447,3.472,1.343S210.327,46.441,210.327,47.935z"/>
		<path d="M219.686,40.033l0.701,0.205v3.404h3.574c0.012,0.045,0.019,0.097,0.026,0.153c0.006,0.058,0.008,0.144,0.008,0.257
			c0,0.421-0.104,0.732-0.316,0.932c-0.21,0.2-0.538,0.299-0.984,0.299h-2.308v11.031c0,0.879,0.131,1.518,0.394,1.916
			c0.262,0.399,0.678,0.599,1.248,0.599c0.308,0,0.615-0.054,0.924-0.163c0.307-0.108,0.667-0.299,1.078-0.572l0.529,0.855
			c-0.593,0.49-1.231,0.875-1.916,1.154c-0.683,0.279-1.356,0.418-2.019,0.418c-0.99,0-1.698-0.271-2.119-0.811
			c-0.422-0.543-0.634-1.486-0.634-2.831V45.283h-2.001v-0.837c0.912-0.536,1.682-1.169,2.311-1.899
			C218.808,41.817,219.31,40.979,219.686,40.033z"/>
		<path d="M231.61,43.18h0.273v12.364c0,0.958,0.271,1.688,0.812,2.189c0.541,0.502,1.332,0.752,2.368,0.752
			c0.822,0,1.681-0.204,2.581-0.615c0.902-0.41,1.758-0.985,2.566-1.727V45.25l-1.847,0.599v-1.3l4.105-1.368h0.273v15.58h1.847
			v1.266h-4.379v-2.343c-1.174,0.946-2.263,1.655-3.268,2.129c-1.002,0.473-1.932,0.709-2.787,0.709
			c-1.436,0-2.593-0.452-3.47-1.358c-0.88-0.907-1.318-2.112-1.318-3.618V45.25l-1.864,0.599v-1.3L231.61,43.18z M237.562,35.125
			h2.6l-4.602,5.986h-1.572L237.562,35.125z"/>
		<path d="M285.336,35.928l0.668,0.94c-0.434,0.479-0.855,1.334-1.266,2.565c-0.057,0.171-0.104,0.303-0.138,0.393l-5.626,15.958
			c-0.059,0.137-0.132,0.341-0.223,0.615c-0.558,1.528-0.895,2.736-1.011,3.626h-3.042c-0.104-0.571-0.234-1.146-0.395-1.728
			c-0.159-0.581-0.382-1.266-0.667-2.053l-1.915-5.574l-1.831,5.113c-0.021,0.079-0.067,0.211-0.136,0.394
			c-0.582,1.573-0.946,2.855-1.095,3.848h-3.112c-0.172-0.958-0.503-2.167-0.992-3.626l-0.051-0.154l-6.415-18.675h-1.931v-1.403
			h6.412v1.403h-1.744l6.858,20.077l3.3-9.185l-3.642-10.893h-1.659v-1.403h5.746v1.403h-1.437l1.128,3.642
			c1.071-1.789,2.21-3.117,3.414-3.984c1.203-0.867,2.504-1.3,3.907-1.3c0.49,0,1.271,0.083,2.343,0.248
			c1.071,0.165,1.874,0.247,2.412,0.247c0.5,0,0.926-0.039,1.273-0.119S285.108,36.099,285.336,35.928z M283.626,37.963
			c-0.524,0.342-0.983,0.585-1.377,0.728c-0.394,0.142-0.791,0.214-1.189,0.214c-0.386,0-1.007-0.111-1.863-0.334
			c-0.854-0.223-1.518-0.334-1.984-0.334c-0.934,0-1.85,0.343-2.745,1.026c-0.895,0.685-1.85,1.779-2.864,3.283l5.046,15.102
			L283.626,37.963z"/>
		<path d="M299.159,49.764l-10.587,2.908c0.342,1.744,1.046,3.095,2.112,4.053c1.065,0.958,2.408,1.437,4.027,1.437
			c0.97,0,1.907-0.188,2.814-0.564c0.906-0.377,1.752-0.936,2.54-1.676l0.803,0.855c-1.015,1.23-2.14,2.163-3.37,2.795
			c-1.23,0.633-2.56,0.949-3.984,0.949c-2.213,0-4.024-0.806-5.438-2.42c-1.416-1.612-2.122-3.668-2.122-6.164
			c0-2.543,0.781-4.667,2.344-6.372c1.563-1.704,3.489-2.556,5.78-2.556c0.992,0,1.936,0.215,2.83,0.649
			c0.896,0.434,1.668,1.055,2.318,1.863c0.478,0.594,0.878,1.258,1.197,1.993c0.316,0.735,0.479,1.286,0.479,1.65
			c0,0.16-0.279,0.291-0.837,0.393C299.678,49.639,299.374,49.708,299.159,49.764z M298.355,48.705
			c-0.491-1.426-1.141-2.512-1.951-3.258c-0.81-0.747-1.75-1.121-2.821-1.121c-1.562,0-2.834,0.573-3.813,1.719
			c-0.98,1.146-1.471,2.643-1.471,4.489c0,0.104,0.006,0.23,0.017,0.386c0.012,0.153,0.034,0.338,0.068,0.556L298.355,48.705z"/>
		<path d="M314.502,44.479l-1.162,1.779c-0.764-0.639-1.488-1.12-2.172-1.445c-0.686-0.324-1.329-0.487-1.933-0.487
			c-0.73,0-1.331,0.211-1.807,0.633c-0.472,0.422-0.708,0.963-0.708,1.624c0,1.016,1.049,1.984,3.146,2.908
			c0.559,0.251,0.993,0.445,1.301,0.581c1.413,0.673,2.402,1.375,2.967,2.104c0.564,0.73,0.845,1.654,0.845,2.771
			c0,1.436-0.591,2.725-1.776,3.864c-1.187,1.141-2.612,1.71-4.276,1.71c-1.038,0-2.038-0.223-3.001-0.666
			c-0.964-0.444-1.821-1.078-2.574-1.898l1.761-2.035c1.014,1.016,1.93,1.759,2.745,2.232c0.815,0.473,1.594,0.709,2.335,0.709
			c0.82,0,1.499-0.271,2.035-0.812c0.535-0.541,0.804-1.229,0.804-2.061c0-0.752-0.225-1.389-0.674-1.906
			c-0.452-0.52-1.407-1.121-2.867-1.806l-0.084-0.034c-3.033-1.413-4.55-3.032-4.55-4.856c0-1.255,0.473-2.298,1.42-3.13
			c0.946-0.832,2.132-1.248,3.557-1.248c0.799,0,1.58,0.119,2.342,0.358C312.94,43.607,313.716,43.978,314.502,44.479z"/>
		<path d="M322.203,40.033l0.701,0.205v3.404h3.573c0.013,0.045,0.021,0.097,0.026,0.153c0.006,0.058,0.009,0.144,0.009,0.257
			c0,0.421-0.104,0.732-0.316,0.932c-0.21,0.2-0.539,0.299-0.984,0.299h-2.308v11.031c0,0.879,0.131,1.518,0.394,1.916
			c0.262,0.399,0.678,0.599,1.248,0.599c0.308,0,0.615-0.054,0.923-0.163c0.31-0.108,0.668-0.299,1.079-0.572l0.529,0.855
			c-0.592,0.49-1.232,0.875-1.916,1.154s-1.356,0.418-2.018,0.418c-0.99,0-1.699-0.271-2.12-0.811
			c-0.422-0.543-0.634-1.486-0.634-2.831V45.283h-2.001v-0.837c0.912-0.536,1.682-1.169,2.311-1.899
			C321.324,41.817,321.825,40.979,322.203,40.033z"/>
		<path d="M343.055,49.764l-10.588,2.908c0.343,1.744,1.046,3.095,2.112,4.053s2.409,1.437,4.028,1.437
			c0.969,0,1.905-0.188,2.813-0.564c0.907-0.377,1.753-0.936,2.54-1.676l0.802,0.855c-1.014,1.23-2.137,2.163-3.368,2.795
			c-1.23,0.633-2.559,0.949-3.985,0.949c-2.213,0-4.024-0.806-5.438-2.42c-1.414-1.612-2.121-3.668-2.121-6.164
			c0-2.543,0.78-4.667,2.344-6.372c1.562-1.704,3.489-2.556,5.779-2.556c0.993,0,1.936,0.215,2.831,0.649
			c0.895,0.434,1.668,1.055,2.318,1.863c0.478,0.594,0.877,1.258,1.197,1.993c0.318,0.735,0.478,1.286,0.478,1.65
			c0,0.16-0.278,0.291-0.837,0.393C343.573,49.639,343.27,49.708,343.055,49.764z M342.25,48.705
			c-0.491-1.426-1.14-2.512-1.95-3.258c-0.81-0.747-1.75-1.121-2.822-1.121c-1.562,0-2.834,0.573-3.813,1.719
			c-0.979,1.146-1.47,2.643-1.47,4.489c0,0.104,0.005,0.23,0.016,0.386c0.012,0.153,0.035,0.338,0.068,0.556L342.25,48.705z"/>
		<path d="M363.785,47.935V58.76h1.899v1.266h-6.276V58.76h1.898V47.968c0-0.958-0.274-1.688-0.821-2.189
			c-0.548-0.501-1.342-0.752-2.378-0.752c-0.82,0-1.688,0.208-2.601,0.624c-0.912,0.416-1.771,0.995-2.581,1.736V58.76h1.898v1.266
			h-6.276V58.76h1.896V45.25l-1.896,0.599v-1.3l4.105-1.368h0.204l0.068,2.668c1.187-0.958,2.281-1.671,3.284-2.139
			c1.004-0.467,1.932-0.7,2.788-0.7c1.436,0,2.593,0.447,3.471,1.343S363.785,46.441,363.785,47.935z"/>
		<path d="M386.006,35.861v1.299l-1.728,0.632V58.76h1.896v1.266h-4.137l-0.239-1.968c-0.9,0.822-1.816,1.438-2.746,1.848
			c-0.929,0.411-1.861,0.615-2.796,0.615c-2.029,0-3.697-0.777-5.003-2.333c-1.305-1.556-1.958-3.571-1.958-6.046
			c0-2.589,0.764-4.757,2.292-6.509c1.527-1.75,3.339-2.624,5.438-2.624c0.856,0,1.677,0.142,2.463,0.427
			c0.787,0.285,1.557,0.713,2.31,1.283v-6.021l-1.897,0.633v-1.299L386.006,35.861z M381.799,48.824
			c0-1.437-0.396-2.562-1.188-3.377c-0.794-0.815-1.879-1.225-3.259-1.225c-1.562,0-2.865,0.657-3.907,1.968
			c-1.043,1.312-1.566,2.97-1.566,4.977c0,2.155,0.528,3.966,1.583,5.43c1.055,1.466,2.351,2.198,3.891,2.198
			c0.774,0,1.556-0.219,2.343-0.658c0.787-0.438,1.488-1.047,2.104-1.822V48.824z"/>
		<path d="M392.526,42.941l1.11,0.239l-0.274,1.436c0.684-0.548,1.403-0.951,2.155-1.214c0.754-0.262,1.563-0.393,2.429-0.393
			c1.745,0,3.022,0.486,3.832,1.461c0.81,0.977,1.214,2.519,1.214,4.627v9.663h1.882v1.266h-4.123l-0.258-2.172
			c-0.715,0.889-1.526,1.557-2.427,2.001c-0.9,0.443-1.888,0.666-2.959,0.666c-1.495,0-2.76-0.543-3.797-1.633
			c-1.037-1.088-1.557-2.438-1.557-4.044c0-1.768,0.711-3.155,2.13-4.165c1.419-1.009,3.395-1.514,5.927-1.514
			c0.364,0,0.769,0.014,1.216,0.043c0.443,0.029,0.934,0.071,1.467,0.128V47.9c0-1.105-0.274-1.969-0.827-2.592
			c-0.554-0.62-1.314-0.932-2.283-0.932c-1.104,0-2.071,0.291-2.891,0.873c-0.821,0.581-1.453,1.431-1.898,2.549l-1.162-0.309
			L392.526,42.941z M400.493,50.567c-0.637-0.067-1.127-0.112-1.467-0.136c-0.345-0.022-0.636-0.034-0.873-0.034
			c-1.791,0-3.165,0.365-4.123,1.095c-0.958,0.73-1.437,1.778-1.437,3.146c0,1.22,0.335,2.201,1.009,2.941
			c0.674,0.741,1.561,1.112,2.669,1.112c1.266,0,2.285-0.439,3.061-1.317c0.775-0.877,1.161-2.058,1.161-3.539V50.567z"/>
		<path d="M419.123,43.009l0.958,0.479l-2.104,3.404c-0.468-0.469-0.901-0.809-1.3-1.019c-0.399-0.212-0.811-0.316-1.233-0.316
			c-0.717,0-1.274,0.271-1.674,0.812c-0.399,0.542-0.599,1.309-0.599,2.301V58.76h2.205v1.266h-6.584V58.76h1.898V47.42
			c0-0.523-0.051-0.877-0.154-1.06c-0.103-0.182-0.297-0.342-0.58-0.479l-0.804,1.01l-1.027-0.702l2.241-3.181
			c0.773,0.422,1.359,0.838,1.752,1.248c0.394,0.41,0.675,0.89,0.848,1.438c0.422-0.97,0.857-1.66,1.31-2.07
			c0.447-0.411,0.969-0.615,1.563-0.615c0.365,0,0.758,0.077,1.18,0.23c0.422,0.154,0.876,0.391,1.367,0.71L419.123,43.009z"/>
		<path d="M426.874,59.12v6.551h1.864v1.248h-6.243V65.67h1.865V45.25l-1.865,0.599v-1.3l4.104-1.368h0.172l0.103,1.967
			c1.037-0.752,2-1.298,2.889-1.634c0.892-0.336,1.774-0.504,2.652-0.504c1.974,0,3.631,0.806,4.977,2.42
			c1.347,1.613,2.018,3.639,2.018,6.08c0,2.599-0.737,4.751-2.213,6.456c-1.478,1.705-3.293,2.556-5.447,2.556
			c-0.913,0-1.766-0.116-2.558-0.35C428.398,59.938,427.626,59.587,426.874,59.12z M426.874,54.142c0,1.803,0.336,3.105,1.009,3.908
			c0.674,0.804,1.75,1.205,3.232,1.205c1.71,0,3.053-0.654,4.028-1.967c0.974-1.31,1.462-3.117,1.462-5.42
			c0-2.121-0.484-3.871-1.452-5.252c-0.971-1.378-2.181-2.068-3.627-2.068c-0.741,0-1.472,0.162-2.189,0.487
			s-1.541,0.875-2.463,1.65V54.142z"/>
	</g>
	<g>
		<path d="M150.486,2.012h4.955c3.148,0,4.995,1.219,4.995,4.102c0,2.722-1.727,4.123-4.995,4.123h-3.532v6.396h-1.423V2.012z
			 M151.909,8.937h3.532c1.949,0,3.533-0.792,3.533-2.741c0-1.929-1.035-2.884-3.533-2.884h-3.532V8.937z"/>
		<path d="M169.021,8.612c2.051,0.609,4.082,1.441,4.082,4.081c0,2.336-1.482,4.265-5.341,4.265c-4.364,0-5.178-3.006-5.178-4.792
			h1.422c0,1.604,0.895,3.493,3.756,3.493c2.682,0,3.919-1.198,3.919-2.966c0-1.644-1.259-2.213-2.821-2.68l-2.275-0.67
			c-1.888-0.549-3.594-1.239-3.594-3.716c0-2.255,1.787-3.939,4.771-3.939c4.467,0,4.935,2.984,4.935,4.488h-1.421
			c-0.062-1.179-0.469-3.188-3.514-3.188c-2.336,0-3.35,1.4-3.35,2.64c0,1.462,1.117,1.99,2.579,2.396L169.021,8.612z"/>
		<path d="M176.288,2.012h1.421v14.621h-1.421V2.012z"/>
		<path d="M192.023,6.378c-0.447-1.4-1.017-3.391-4.265-3.391c-3.208,0-5.199,1.93-5.199,6.152c0,4.162,1.972,6.519,4.996,6.519
			c3.229,0,4.406-2.864,4.588-3.98h1.423c-0.244,1.747-1.665,5.279-6.011,5.279c-4.569,0-6.498-3.614-6.498-7.817
			c0-4.223,2.051-7.452,6.701-7.452c4.589,0,5.422,3.087,5.686,4.69H192.023z"/>
		<path d="M195.896,8.937c0-3.695,2.356-7.249,6.743-7.249c4.386,0,6.741,3.554,6.741,7.249c0,4.649-2.173,8.021-6.741,8.021
			C198.069,16.958,195.896,13.586,195.896,8.937z M202.639,15.659c3.757,0,5.279-3.147,5.279-6.722c0-3.208-1.765-5.949-5.279-5.949
			c-3.514,0-5.278,2.741-5.278,5.949C197.36,12.511,198.882,15.659,202.639,15.659z"/>
		<path d="M216.074,2.012h1.583l5.584,14.621h-1.422l-1.767-4.59h-6.396l-1.746,4.59h-1.422L216.074,2.012z M214.144,10.744h5.423
			l-2.701-7.065L214.144,10.744z"/>
		<path d="M226.04,2.012h1.502l8.306,12.549h0.041V2.012h1.419v14.621h-1.501l-8.305-12.549h-0.041v12.549h-1.421V2.012z"/>
		<path d="M245.672,2.012h1.584l5.583,14.621h-1.421l-1.767-4.59h-6.396l-1.746,4.59h-1.422L245.672,2.012z M243.741,10.744h5.423
			l-2.702-7.065L243.741,10.744z"/>
		<path d="M255.678,2.012h1.422v13.321h7.736v1.3h-9.158V2.012z"/>
		<path d="M267.816,2.012h1.422v14.621h-1.422V2.012z"/>
		<path d="M278.862,8.612c2.049,0.609,4.082,1.441,4.082,4.081c0,2.336-1.483,4.265-5.342,4.265c-4.366,0-5.179-3.006-5.179-4.792
			h1.421c0,1.604,0.896,3.493,3.758,3.493c2.681,0,3.919-1.198,3.919-2.966c0-1.644-1.26-2.213-2.822-2.68l-2.275-0.67
			c-1.887-0.549-3.595-1.239-3.595-3.716c0-2.255,1.788-3.939,4.773-3.939c4.468,0,4.935,2.984,4.935,4.488h-1.422
			c-0.061-1.179-0.467-3.188-3.513-3.188c-2.336,0-3.351,1.4-3.351,2.64c0,1.462,1.117,1.99,2.577,2.396L278.862,8.612z"/>
		<path d="M289.151,3.312h-4.527v-1.3h10.477v1.3h-4.526v13.321h-1.423V3.312z"/>
		<path d="M300.094,2.012h1.584l5.584,14.621h-1.422l-1.766-4.59h-6.396l-1.746,4.59h-1.422L300.094,2.012z M298.164,10.744h5.422
			l-2.699-7.065L298.164,10.744z"/>
	</g>
</g>
</svg>
