<?xml version="1.0" encoding="utf-8"?>
<!-- Generator: Adobe Illustrator 16.0.0, SVG Export Plug-In . SVG Version: 6.00 Build 0)  -->
<!DOCTYPE svg PUBLIC "-//W3C//DTD SVG 1.1//EN" "http://www.w3.org/Graphics/SVG/1.1/DTD/svg11.dtd">
<svg version="1.1" id="Layer_1" xmlns="http://www.w3.org/2000/svg" xmlns:xlink="http://www.w3.org/1999/xlink" x="0px" y="0px"
	 width="32px" height="16px" viewBox="0 0 32 16" enable-background="new 0 0 32 16" xml:space="preserve">
<path fill="#020202" d="M6.125,14.961h2.869V8h2.214l0.272-2.453H8.995V4.022c0-0.542,0.226-0.59,0.497-0.59h1.951V1.046
	L9.138,1.039c-2.559,0-3.013,1.779-3.013,2.918v1.59H4.519V8h1.606V14.961z"/>
<path fill="#B6C7ED" d="M22.125,14.961h2.869V8h2.214l0.272-2.453h-2.486V4.022c0-0.542,0.226-0.59,0.497-0.59h1.951V1.046
	l-2.305-0.008c-2.559,0-3.013,1.779-3.013,2.918v1.59h-1.606V8h1.606V14.961z"/>
</svg>
