<?xml version="1.0" encoding="utf-8"?>
<!-- Generator: Adobe Illustrator 16.0.0, SVG Export Plug-In . SVG Version: 6.00 Build 0)  -->
<!DOCTYPE svg PUBLIC "-//W3C//DTD SVG 1.1//EN" "http://www.w3.org/Graphics/SVG/1.1/DTD/svg11.dtd">
<svg version="1.1" id="Layer_1" xmlns="http://www.w3.org/2000/svg" xmlns:xlink="http://www.w3.org/1999/xlink" x="0px" y="0px"
	 width="40px" height="16px" viewBox="0 0 40 16" enable-background="new 0 0 40 16" xml:space="preserve">
<g>
	<path fill-rule="evenodd" clip-rule="evenodd" d="M8.849,5.571c-1.277-1.01-2.824-0.887-3.873-0.097
		c-1.088,0.819-1.521,2.238-1.08,3.51c0.449,1.292,1.693,2.145,3.062,2.1c1.222-0.04,2.458-0.916,2.767-1.983
		c-0.973,0-1.938,0-2.918,0c0-0.773,0-1.515,0-2.271c1.772,0,3.537,0,5.299,0c0.547,2.215-0.527,4.934-3.062,6.066
		c-2.522,1.125-5.471,0.169-6.861-2.213c-1.378-2.36-0.764-5.391,1.42-7.033c2.188-1.645,5.139-1.313,6.834,0.303
		C9.91,4.49,9.385,5.025,8.849,5.571z"/>
	<path fill-rule="evenodd" clip-rule="evenodd" d="M16.548,10.257c-0.479,0-0.91,0-1.373,0c0-0.622,0-1.235,0-1.87
		c-0.638,0-1.246,0-1.869,0c0-0.46,0-0.899,0-1.363c0.605,0,1.219,0,1.855,0c0-0.633,0-1.24,0-1.866c0.465,0,0.91,0,1.381,0
		c0,0.61,0,1.218,0,1.852c0.632,0,1.238,0,1.855,0c0,0.465,0,0.903,0,1.375c-0.611,0-1.217,0-1.85,0
		C16.548,9.022,16.548,9.629,16.548,10.257z"/>
</g>
<g>
	<g>
		<path fill-rule="evenodd" clip-rule="evenodd" fill="#B6C7ED" d="M28.927,5.571c-1.277-1.01-2.825-0.887-3.874-0.097
			c-1.088,0.819-1.521,2.238-1.08,3.511c0.449,1.291,1.693,2.145,3.062,2.1c1.222-0.04,2.458-0.915,2.767-1.982
			c-0.973,0-1.938,0-2.918,0c0-0.773,0-1.516,0-2.271c1.773,0,3.538,0,5.299,0c0.547,2.215-0.527,4.934-3.062,6.066
			c-2.523,1.125-5.471,0.169-6.862-2.214c-1.378-2.359-0.764-5.391,1.42-7.032c2.188-1.646,5.139-1.313,6.834,0.303
			C29.989,4.49,29.463,5.025,28.927,5.571z"/>
		<path fill-rule="evenodd" clip-rule="evenodd" fill="#B6C7ED" d="M36.626,10.257c-0.479,0-0.91,0-1.373,0c0-0.622,0-1.234,0-1.869
			c-0.638,0-1.246,0-1.869,0c0-0.461,0-0.899,0-1.363c0.605,0,1.219,0,1.855,0c0-0.634,0-1.24,0-1.866c0.465,0,0.91,0,1.381,0
			c0,0.61,0,1.218,0,1.852c0.632,0,1.238,0,1.855,0c0,0.465,0,0.903,0,1.375c-0.611,0-1.217,0-1.85,0
			C36.626,9.022,36.626,9.629,36.626,10.257z"/>
	</g>
</g>
</svg>
