<?xml version="1.0" encoding="utf-8"?>
<!-- Generator: Adobe Illustrator 16.0.0, SVG Export Plug-In . SVG Version: 6.00 Build 0)  -->
<!DOCTYPE svg PUBLIC "-//W3C//DTD SVG 1.1//EN" "http://www.w3.org/Graphics/SVG/1.1/DTD/svg11.dtd">
<svg version="1.1" id="Layer_1" xmlns="http://www.w3.org/2000/svg" xmlns:xlink="http://www.w3.org/1999/xlink" x="0px" y="0px"
	 width="32px" height="16px" viewBox="0 0 32 16" enable-background="new 0 0 32 16" xml:space="preserve">
<path fill="#020202" d="M12.272,1.036H3.727c-1.485,0-2.691,1.207-2.691,2.691V6.57v5.703c0,1.484,1.206,2.691,2.691,2.691h8.545
	c1.484,0,2.692-1.207,2.692-2.691V6.57V3.727C14.964,2.243,13.756,1.036,12.272,1.036 M13.044,2.642l0.308-0.002v0.308V5L11,5.009
	l-0.008-2.36L13.044,2.642z M6.012,6.57C6.458,5.954,7.181,5.549,8,5.549S9.542,5.954,9.988,6.57c0.29,0.403,0.464,0.897,0.464,1.43
	c0,1.352-1.101,2.452-2.452,2.452S5.548,9.352,5.548,8C5.548,7.467,5.722,6.974,6.012,6.57 M13.607,12.273
	c0,0.736-0.6,1.334-1.335,1.334H3.727c-0.737,0-1.335-0.598-1.335-1.334V6.57h2.08C4.292,7.013,4.191,7.495,4.191,8
	c0,2.101,1.709,3.809,3.809,3.809c2.101,0,3.809-1.708,3.809-3.809c0-0.505-0.102-0.987-0.281-1.43h2.08V12.273z"/>
<path fill="#B6C7ED" d="M28.272,1.036h-8.545c-1.485,0-2.691,1.207-2.691,2.691V6.57v5.703c0,1.484,1.206,2.691,2.691,2.691h8.545
	c1.484,0,2.692-1.207,2.692-2.691V6.57V3.727C30.964,2.243,29.756,1.036,28.272,1.036 M29.044,2.642l0.308-0.002v0.308V5L27,5.009
	l-0.008-2.36L29.044,2.642z M22.012,6.57C22.458,5.954,23.181,5.549,24,5.549s1.542,0.405,1.988,1.021
	c0.29,0.403,0.464,0.897,0.464,1.43c0,1.352-1.101,2.452-2.452,2.452S21.548,9.352,21.548,8C21.548,7.467,21.722,6.974,22.012,6.57
	 M29.607,12.273c0,0.736-0.6,1.334-1.335,1.334h-8.545c-0.737,0-1.335-0.598-1.335-1.334V6.57h2.08
	c-0.18,0.442-0.281,0.925-0.281,1.43c0,2.101,1.709,3.809,3.809,3.809c2.101,0,3.809-1.708,3.809-3.809
	c0-0.505-0.102-0.987-0.281-1.43h2.08V12.273z"/>
</svg>
