<?xml version="1.0" encoding="utf-8"?>
<!-- Generator: Adobe Illustrator 16.0.0, SVG Export Plug-In . SVG Version: 6.00 Build 0)  -->
<!DOCTYPE svg PUBLIC "-//W3C//DTD SVG 1.1//EN" "http://www.w3.org/Graphics/SVG/1.1/DTD/svg11.dtd">
<svg version="1.1" id="Layer_1" xmlns="http://www.w3.org/2000/svg" xmlns:xlink="http://www.w3.org/1999/xlink" x="0px" y="0px"
	 width="32px" height="16px" viewBox="0 0 32 16" enable-background="new 0 0 32 16" xml:space="preserve">
<path fill="#020202" d="M15.036,1.852c-0.59,0.37-1.244,0.639-1.941,0.783c-0.557-0.626-1.351-1.019-2.23-1.019
	C9.177,1.616,7.81,3.06,7.81,4.84c0,0.253,0.027,0.498,0.078,0.734C5.349,5.439,3.097,4.156,1.589,2.206
	c-0.262,0.477-0.414,1.03-0.414,1.622c0,1.117,0.541,2.104,1.36,2.682c-0.5-0.017-0.972-0.162-1.384-0.403v0.041
	c0,1.561,1.053,2.864,2.451,3.16C3.346,9.382,3.075,9.421,2.796,9.421c-0.196,0-0.387-0.02-0.574-0.058
	c0.391,1.28,1.518,2.212,2.855,2.238c-1.047,0.864-2.363,1.38-3.797,1.38c-0.246,0-0.489-0.016-0.729-0.045
	c1.354,0.914,2.96,1.447,4.685,1.447c5.622,0,8.694-4.911,8.694-9.17c0-0.14-0.002-0.279-0.008-0.418
	c0.597-0.454,1.115-1.021,1.525-1.668c-0.549,0.257-1.137,0.43-1.756,0.507C14.323,3.236,14.808,2.605,15.036,1.852"/>
<path fill="#B6C7ED" d="M31.036,1.852c-0.59,0.37-1.244,0.639-1.941,0.783c-0.557-0.626-1.351-1.019-2.23-1.019
	c-1.688,0-3.055,1.443-3.055,3.224c0,0.253,0.027,0.498,0.078,0.734c-2.539-0.135-4.791-1.418-6.299-3.368
	c-0.262,0.477-0.414,1.03-0.414,1.622c0,1.117,0.541,2.104,1.36,2.682c-0.5-0.017-0.972-0.162-1.384-0.403v0.041
	c0,1.561,1.053,2.864,2.451,3.16c-0.257,0.074-0.527,0.113-0.807,0.113c-0.196,0-0.387-0.02-0.574-0.058
	c0.391,1.28,1.518,2.212,2.855,2.238c-1.047,0.864-2.363,1.38-3.797,1.38c-0.246,0-0.489-0.016-0.729-0.045
	c1.354,0.914,2.96,1.447,4.685,1.447c5.622,0,8.694-4.911,8.694-9.17c0-0.14-0.002-0.279-0.008-0.418
	c0.597-0.454,1.115-1.021,1.525-1.668c-0.549,0.257-1.137,0.43-1.756,0.507C30.323,3.236,30.808,2.605,31.036,1.852"/>
</svg>
