<?xml version="1.0" encoding="utf-8"?>
<!-- Generator: Adobe Illustrator 16.0.0, SVG Export Plug-In . SVG Version: 6.00 Build 0)  -->
<!DOCTYPE svg PUBLIC "-//W3C//DTD SVG 1.1//EN" "http://www.w3.org/Graphics/SVG/1.1/DTD/svg11.dtd">
<svg version="1.1" id="Layer_1" xmlns="http://www.w3.org/2000/svg" xmlns:xlink="http://www.w3.org/1999/xlink" x="0px" y="0px"
	 width="32px" height="16px" viewBox="0 0 32 16" enable-background="new 0 0 32 16" xml:space="preserve">
<g>
	<rect x="1.079" y="5.281" fill="#020202" width="2.966" height="9.393"/>
	<path fill="#020202" d="M2.562,4.292c0.818,0,1.482-0.664,1.482-1.482c0-0.819-0.664-1.483-1.482-1.483
		c-0.82,0-1.483,0.664-1.483,1.483C1.079,3.628,1.742,4.292,2.562,4.292"/>
	<path fill="#020202" d="M14.921,9.646c0-2.468-0.535-4.365-3.422-4.365c-1.388,0-2.319,0.76-2.7,1.479h-0.04V5.509H6.021v9.165
		h2.854v-4.533c0-1.196,0.228-2.354,1.712-2.354c1.462,0,1.483,1.368,1.483,2.431v4.457h2.852V9.646z"/>
</g>
<g>
	<g>
		<rect x="17.079" y="5.281" fill="#B6C7ED" width="2.966" height="9.393"/>
		<path fill="#B6C7ED" d="M18.562,4.292c0.818,0,1.482-0.664,1.482-1.482c0-0.819-0.664-1.483-1.482-1.483
			c-0.82,0-1.483,0.664-1.483,1.483C17.079,3.628,17.742,4.292,18.562,4.292"/>
		<path fill="#B6C7ED" d="M30.921,9.646c0-2.468-0.535-4.365-3.422-4.365c-1.388,0-2.319,0.76-2.7,1.479h-0.04V5.509h-2.738v9.165
			h2.854v-4.533c0-1.196,0.228-2.354,1.712-2.354c1.462,0,1.483,1.368,1.483,2.431v4.457h2.852V9.646z"/>
	</g>
</g>
</svg>
